<?xml version="1.0" standalone="no"?>
<!DOCTYPE svg PUBLIC "-//W3C//DTD SVG 1.1//EN" "http://www.w3.org/Graphics/SVG/1.1/DTD/svg11.dtd" >
<svg>
<metadata>
Created by FontForge 20090622 at Wed Jun 17 10:07:28 2020
 By deploy user
Copyright &#194;&#169; 2018 by Martin Vacha. All rights reserved.
</metadata>
<defs>
<font id="Dazzed-Light" horiz-adv-x="625" >
  <font-face 
    font-family="Dazzed Light"
    font-weight="300"
    font-stretch="normal"
    units-per-em="1000"
    panose-1="0 0 4 0 0 0 0 0 0 0"
    ascent="810"
    descent="-190"
    x-height="569"
    cap-height="748"
    bbox="-125 -204 1251 1186"
    underline-thickness="50"
    underline-position="-50"
    unicode-range="U+000D-U+25CF"
  />
<missing-glyph horiz-adv-x="1129" 
d="M547 -204v1000q-200 -7 -341.5 -154t-141.5 -347q0 -201 141 -346.5t342 -152.5zM581 793v-994q63 18 107.5 162t44.5 334t-44.5 334.5t-107.5 163.5zM765 295q0 -160 -30.5 -289t-82.5 -192q111 41 182.5 175.5t71.5 305.5q0 170 -71.5 305t-182.5 178
q52 -64 82.5 -193.5t30.5 -289.5zM750 -168q140 56 227 183t87 280t-87.5 280.5t-229.5 184.5q89 -71 140.5 -195.5t51.5 -269.5t-51 -269t-138 -194z" />
    <glyph glyph-name="f_f" unicode="ff" horiz-adv-x="660" 
d="M505 654v-85h134v-41h-134v-528h-45v528h-295v-528h-45v528h-102v41h102v89q0 40 25 65t65 25h96l7 -40h-95q-24 0 -38.5 -14.5t-14.5 -39.5v-85h295v89q0 40 25 65t65 25h105l8 -40h-105q-24 0 -38.5 -15t-14.5 -39z" />
    <glyph glyph-name="f_f_i" unicode="ffi" horiz-adv-x="939" 
d="M846 569v-569h-45v528h-296v-528h-45v528h-295v-528h-45v528h-102v41h102v88q0 41 25 65.5t65 24.5h104l8 -39h-104q-24 0 -38.5 -14.5t-14.5 -39.5v-85h295v89q0 40 25 65t65 25h208l8 -40h-208q-24 0 -38.5 -15t-14.5 -39v-85h341z" />
    <glyph glyph-name="f_i" unicode="fi" horiz-adv-x="602" 
d="M505 569v-569h-45v528h-295v-528h-45v528h-102v41h102v89q0 40 25 65t65 25h208l7 -40h-207q-24 0 -38.5 -14.5t-14.5 -39.5v-85h340z" />
    <glyph glyph-name="f_l" unicode="fl" horiz-adv-x="606" 
d="M460 748h45v-748h-45v528h-295v-528h-45v528h-102v41h102v89q0 40 25 65t65 25h95l8 -39h-95q-24 0 -38.5 -14.5t-14.5 -39.5v-86h295v179z" />
    <glyph glyph-name=".notdef" horiz-adv-x="1129" 
d="M547 -204v1000q-200 -7 -341.5 -154t-141.5 -347q0 -201 141 -346.5t342 -152.5zM581 793v-994q63 18 107.5 162t44.5 334t-44.5 334.5t-107.5 163.5zM765 295q0 -160 -30.5 -289t-82.5 -192q111 41 182.5 175.5t71.5 305.5q0 170 -71.5 305t-182.5 178
q52 -64 82.5 -193.5t30.5 -289.5zM750 -168q140 56 227 183t87 280t-87.5 280.5t-229.5 184.5q89 -71 140.5 -195.5t51.5 -269.5t-51 -269t-138 -194z" />
    <glyph glyph-name=".null" horiz-adv-x="0" 
 />
    <glyph glyph-name="nonmarkingreturn" horiz-adv-x="333" 
 />
    <glyph glyph-name="CR" unicode="&#xd;" horiz-adv-x="201" 
 />
    <glyph glyph-name="space" unicode=" " horiz-adv-x="201" 
 />
    <glyph glyph-name="exclam" unicode="!" horiz-adv-x="246" 
d="M108 186l-12 562h55l-11 -562h-32zM154 72v-72h-61v72h61z" />
    <glyph glyph-name="quotedbl" unicode="&#x22;" horiz-adv-x="274" 
d="M107 748l-8 -235h-36l-9 235h53zM219 748l-8 -235h-36l-9 235h53z" />
    <glyph glyph-name="numbersign" unicode="#" horiz-adv-x="724" 
d="M677 465h-157l-49 -172h153v-37h-164l-73 -256h-40l73 256h-184l-73 -256h-40l73 256h-149v37h159l49 172h-155v36h166l70 247h41l-71 -247h184l71 247h40l-71 -247h147v-36zM431 293l49 172h-184l-49 -172h184z" />
    <glyph glyph-name="dollar" unicode="$" horiz-adv-x="659" 
d="M603 197q0 -74 -46 -127t-125 -72v-152h-34v145q-24 -3 -50 -3q-44 0 -80 10v-152h-34v163q-70 28 -118 87.5t-63 139.5l47 8q18 -96 86.5 -154.5t163.5 -58.5q90 0 147.5 46t57.5 117q0 49 -26.5 82.5t-69 51t-93.5 31t-102 28.5t-93.5 35.5t-69 58.5t-26.5 93
q0 65 42 111t117 64v151h34v-144q27 4 64 4t66 -7v147h34v-157q65 -23 109 -72.5t60 -117.5l-47 -7q-20 79 -80.5 125.5t-144.5 46.5q-95 0 -150.5 -38.5t-55.5 -103.5q0 -45 26.5 -76t69 -47.5t93.5 -29.5t102 -28.5t93.5 -37t69 -62t26.5 -98.5z" />
    <glyph glyph-name="percent" unicode="%" horiz-adv-x="892" 
d="M703 753l-485 -778l-29 19l485 778zM225 397q-77 0 -124 49.5t-47 130.5q0 82 47 131.5t124 49.5q76 0 122.5 -49.5t46.5 -131.5q0 -81 -46.5 -130.5t-122.5 -49.5zM225 432q58 0 93.5 40t35.5 105q0 66 -35 105.5t-94 39.5t-95 -39.5t-36 -105.5q0 -65 36 -105t95 -40z
M668 -12q-76 0 -123 49.5t-47 130.5t47 131t123 50t123 -50t47 -131t-47 -130.5t-123 -49.5zM668 23q58 0 94 40t36 105t-36 105t-94 40t-94 -40t-36 -105t36 -105t94 -40z" />
    <glyph glyph-name="ampersand" unicode="&#x26;" horiz-adv-x="652" 
d="M635 0h-65l-76 77q-97 -89 -215 -89q-101 0 -169.5 58t-68.5 144q0 153 146 208q-43 53 -60.5 94.5t-17.5 87.5q0 79 58.5 129.5t149.5 50.5q92 0 151 -50.5t59 -128.5q0 -77 -49 -123t-147 -68l-63 -14q46 -52 154 -160l72 -73q62 76 84 184l47 -8q-25 -120 -99 -208z
M156 580q0 -39 18 -77.5t62 -90.5q0 1 2 1l79 17q83 20 123 56t40 95t-46 98.5t-116 39.5t-116 -39.5t-46 -99.5zM281 31q100 0 182 77l-94 95q-112 114 -152 159q-128 -43 -128 -171q0 -66 56 -113t136 -47z" />
    <glyph glyph-name="quotesingle" unicode="'" horiz-adv-x="161" 
d="M107 748l-8 -235h-36l-9 235h53z" />
    <glyph glyph-name="parenleft" unicode="(" horiz-adv-x="297" 
d="M257 -139q-193 181 -193 455q0 275 193 455l30 -23q-181 -168 -181 -432q0 -262 181 -432z" />
    <glyph glyph-name="parenright" unicode=")" horiz-adv-x="297" 
d="M40 -139l-30 23q181 170 181 432q0 264 -181 432l30 23q193 -180 193 -455q0 -274 -193 -455z" />
    <glyph glyph-name="asterisk" unicode="*" horiz-adv-x="363" 
d="M100 441l-28 22l81 112l-133 43l12 33l132 -43v139h36v-139l132 44l11 -34l-132 -44l82 -111l-29 -21l-82 112z" />
    <glyph glyph-name="plus" unicode="+" horiz-adv-x="495" 
d="M457 395v-39h-190v-190h-39v190h-190v39h190v190h39v-190h190z" />
    <glyph glyph-name="comma" unicode="," horiz-adv-x="184" 
d="M69 72h61v-72l-42 -114h-26l33 114h-26v72z" />
    <glyph glyph-name="hyphen" unicode="-" horiz-adv-x="296" 
d="M257 319v-43h-219v43h219z" />
    <glyph glyph-name="period" unicode="." horiz-adv-x="170" 
d="M115 72v-72h-61v72h61z" />
    <glyph glyph-name="slash" unicode="/" horiz-adv-x="263" 
d="M63 0h-45l182 748h45z" />
    <glyph glyph-name="zero" unicode="0" horiz-adv-x="611" 
d="M305 760q109 0 170 -102.5t61 -284.5q0 -181 -61 -283t-170 -102t-170 102t-61 283q0 182 61 284.5t170 102.5zM305 717q-86 0 -134 -90t-48 -254q0 -163 48 -252.5t134 -89.5q87 0 135 89.5t48 252.5q0 164 -48 254t-135 90z" />
    <glyph glyph-name="one" unicode="1" horiz-adv-x="365" 
d="M209 748h46v-748h-48v616q-14 -28 -40.5 -37t-84.5 -9h-62v43h62q72 0 99 26t28 109z" />
    <glyph glyph-name="two" unicode="2" horiz-adv-x="555" 
d="M283 760q95 0 154 -56t59 -145q0 -57 -20.5 -103.5t-54 -79t-73.5 -61l-80 -55.5t-73 -56.5t-53 -70.5t-20 -91h365v-42h-412v25q0 63 21 113.5t53.5 84t72.5 62.5l79.5 55.5t72.5 55.5t53.5 70.5t20.5 92.5q0 71 -45.5 115t-119.5 44q-71 0 -122 -53.5t-60 -146.5l-46 3
q9 109 73 174t155 65z" />
    <glyph glyph-name="three" unicode="3" horiz-adv-x="566" 
d="M284 -12q-84 0 -146 55t-71 141l46 5q10 -71 57 -114.5t114 -43.5q75 0 122 49t47 127q0 73 -53 119t-137 46h-34l-8 43h46q72 0 117.5 43.5t45.5 112.5q0 64 -43 105t-110 41q-66 0 -112.5 -46.5t-55.5 -121.5l-46 4q10 91 70.5 149t144.5 58q88 0 144 -52t56 -135
q0 -70 -43.5 -121t-110.5 -57q77 -6 127 -61.5t50 -128.5q0 -96 -60.5 -156.5t-156.5 -60.5z" />
    <glyph glyph-name="four" unicode="4" horiz-adv-x="544" 
d="M516 197v-42h-93v-155h-48v155h-345v44l262 549h51l-263 -551h295v190l48 12v-202h93z" />
    <glyph glyph-name="five" unicode="5" horiz-adv-x="565" 
d="M479 748l8 -43h-311l-31 -318q24 46 68.5 73.5t94.5 27.5q91 0 145.5 -68t54.5 -182t-56.5 -182t-150.5 -68q-86 0 -143 54t-66 145l44 6q8 -74 53 -118t112 -44q73 0 116 56t43 151t-43.5 151.5t-116.5 56.5q-48 0 -90 -29t-64 -77h-51l37 408h347z" />
    <glyph glyph-name="six" unicode="6" horiz-adv-x="593" 
d="M318 470q90 0 149 -69t59 -172t-60 -172t-151 -69q-65 0 -112.5 28.5t-75 79t-40.5 113.5t-13 140q0 181 72 296t189 115q82 0 139.5 -49t70.5 -131l-46 -10q-12 68 -56 107.5t-108 39.5q-105 0 -165.5 -121.5t-46.5 -309.5q14 92 70 138t125 46zM313 31q71 0 118 56.5
t47 141.5t-47 141t-119 56q-71 0 -118.5 -55.5t-47.5 -141.5q0 -90 47 -144t120 -54z" />
    <glyph glyph-name="seven" unicode="7" horiz-adv-x="507" 
d="M485 748v-41q-141 -158 -207 -326.5t-50 -380.5h-49q-26 402 254 706h-413v42h465z" />
    <glyph glyph-name="eight" unicode="8" horiz-adv-x="583" 
d="M292 -12q-98 0 -163 58.5t-65 148.5q0 71 42.5 122.5t115.5 64.5q-69 14 -108 63.5t-39 117.5q0 85 61.5 141t155.5 56t155 -55.5t61 -141.5q0 -68 -39 -117.5t-108 -63.5q74 -13 116 -65t42 -122q0 -90 -64.5 -148.5t-162.5 -58.5zM292 405q79 0 124 45.5t45 110.5
q0 66 -48.5 111t-120.5 45q-73 0 -121.5 -45t-48.5 -111q0 -65 45.5 -110.5t124.5 -45.5zM292 32q77 0 128 47.5t51 117.5q0 67 -48.5 115.5t-130.5 48.5q-84 0 -131.5 -47.5t-47.5 -116.5q0 -70 51 -117.5t128 -47.5z" />
    <glyph glyph-name="nine" unicode="9" horiz-adv-x="593" 
d="M519 399q1 -181 -71.5 -296t-189.5 -115q-82 0 -139.5 49t-70.5 131l46 10q12 -68 56 -107.5t108 -39.5q105 0 165.5 121.5t46.5 309.5q-14 -92 -70 -138t-125 -46q-90 0 -149 69t-59 172t60 172t151 69q65 0 112.5 -28.5t75 -79t40.5 -113.5t13 -140zM281 322
q71 0 118.5 55.5t47.5 141.5q0 90 -47 144t-120 54q-71 0 -118 -56.5t-47 -141.5t47 -141t119 -56z" />
    <glyph glyph-name="colon" unicode=":" horiz-adv-x="170" 
d="M115 569v-72h-61v72h61zM115 72v-72h-61v72h61z" />
    <glyph glyph-name="semicolon" unicode=";" horiz-adv-x="184" 
d="M69 569h61v-72h-61v72zM69 0v72h61v-72l-42 -114h-26l33 114h-26z" />
    <glyph glyph-name="less" unicode="&#x3c;" horiz-adv-x="505" 
d="M457 164l-419 185v50l419 186v-46l-379 -164l379 -165v-46z" />
    <glyph glyph-name="equal" unicode="=" horiz-adv-x="534" 
d="M476 477v-39h-418v39h418zM476 310v-39h-418v39h418z" />
    <glyph glyph-name="greater" unicode="&#x3e;" horiz-adv-x="505" 
d="M48 164v46l379 165l-379 164v46l419 -186v-50z" />
    <glyph glyph-name="question" unicode="?" horiz-adv-x="451" 
d="M213 218q-81 0 -132 37.5t-51 96.5q0 55 35.5 85.5t86 42.5t101.5 22.5t86.5 38.5t35.5 78q0 47 -39.5 76.5t-101.5 29.5q-63 0 -113 -41.5t-65 -106.5l-42 7q16 78 77 127t141 49q83 0 135 -40t52 -104q0 -51 -25.5 -84t-64 -46t-83 -24.5t-83 -20t-64 -31.5t-25.5 -60
q0 -44 38 -70.5t99 -26.5q63 0 109 34t59 88l42 -7q-13 -67 -71 -108.5t-137 -41.5zM252 72v-72h-61v72h61z" />
    <glyph glyph-name="at" unicode="@" horiz-adv-x="929" 
d="M464 -111q-171 0 -285.5 114.5t-114.5 285.5t114.5 285.5t285.5 114.5q166 0 283.5 -108t117.5 -261q0 -108 -44.5 -177t-110.5 -69q-48 0 -79 38t-33 96q-10 -61 -53 -97.5t-97 -36.5q-78 0 -127.5 60t-49.5 158t49 158.5t127 60.5q53 0 94.5 -36t51.5 -95v121h36v-269
q0 -56 22.5 -90t59.5 -34q51 0 85.5 59.5t34.5 152.5q0 139 -107.5 237.5t-259.5 98.5q-157 0 -261.5 -105t-104.5 -262t104.5 -262t261.5 -105q43 0 100.5 17t93.5 45l17 -29q-39 -30 -101 -48t-110 -18zM453 108q61 0 100 51t39 133q0 83 -39.5 134t-99.5 51
q-63 0 -103 -51t-40 -134t40 -133.5t103 -50.5z" />
    <glyph glyph-name="A" unicode="A" horiz-adv-x="738" 
d="M661 0l-83 196h-419l-83 -196h-51l318 748h52l318 -748h-52zM177 238h383l-191 453z" />
    <glyph glyph-name="B" unicode="B" horiz-adv-x="691" 
d="M470 376q73 -13 115 -61t42 -119q0 -90 -62 -143t-166 -53h-289v748h278q104 0 166 -53t62 -143q0 -70 -38 -116t-108 -60zM158 706v-310h227q84 0 133 42t49 113t-49 113t-133 42h-227zM396 42q84 0 133 42t49 114q0 71 -49 113t-133 42h-238v-311h238z" />
    <glyph glyph-name="C" unicode="C" horiz-adv-x="793" 
d="M422 760q105 0 184 -60.5t101 -159.5l-47 -10q-22 84 -87.5 135.5t-152.5 51.5q-134 0 -220.5 -96.5t-86.5 -245.5q0 -150 87 -247t222 -97q93 0 166 60t99 157l46 -6q-27 -113 -113 -183.5t-198 -70.5q-155 0 -256.5 109.5t-101.5 277.5q0 167 101.5 276t256.5 109z" />
    <glyph glyph-name="D" unicode="D" horiz-adv-x="770" 
d="M335 748q169 0 270 -103t101 -270q0 -168 -101 -271.5t-270 -103.5h-225v748h225zM335 707h-177v-666h177q149 0 236 92t87 242t-87 241t-236 91z" />
    <glyph glyph-name="E" unicode="E" horiz-adv-x="621" 
d="M538 748v-42h-380v-298h374v-42h-374v-324h380v-42h-428v748h428z" />
    <glyph glyph-name="F" unicode="F" horiz-adv-x="611" 
d="M538 748v-42h-380v-298h374v-42h-374v-366h-48v748h428z" />
    <glyph glyph-name="G" unicode="G" horiz-adv-x="803" 
d="M738 327q1 -154 -85 -246.5t-230 -92.5q-156 0 -257.5 109t-101.5 278q0 168 101.5 276.5t256.5 108.5q106 0 185 -60.5t101 -159.5l-47 -10q-21 84 -87 135.5t-154 51.5q-134 0 -220.5 -96.5t-86.5 -245.5t87.5 -246t222.5 -97q111 0 183.5 68.5t82.5 185.5h-196v41h245
z" />
    <glyph glyph-name="H" unicode="H" horiz-adv-x="804" 
d="M646 748h48v-748h-48v366h-488v-366h-48v748h48v-339h488v339z" />
    <glyph glyph-name="I" unicode="I" horiz-adv-x="268" 
d="M158 748v-748h-48v748h48z" />
    <glyph glyph-name="J" unicode="J" horiz-adv-x="334" 
d="M101 0h-67l-7 42h70q37 0 60.5 22t23.5 57v627h47v-633q0 -52 -35 -83.5t-92 -31.5z" />
    <glyph glyph-name="K" unicode="K" horiz-adv-x="671" 
d="M603 0l-321 420l-124 -119v-301h-48v748h48v-387l403 387h62l-306 -294l345 -454h-59z" />
    <glyph glyph-name="L" unicode="L" horiz-adv-x="564" 
d="M158 748v-706h383v-42h-431v748h48z" />
    <glyph glyph-name="M" unicode="M" horiz-adv-x="990" 
d="M880 748v-748h-48v683l-46 -101l-269 -582h-51l-262 578l-46 105v-683h-48v748h72l310 -693l317 693h71z" />
    <glyph glyph-name="N" unicode="N" horiz-adv-x="755" 
d="M597 748h47v-748h-62l-388 624l-36 60v-684h-48v748h63l385 -622l39 -62v684z" />
    <glyph glyph-name="O" unicode="O" horiz-adv-x="837" 
d="M419 -12q-155 0 -255 109t-100 277t100 277t255 109q154 0 253.5 -109t99.5 -277t-99.5 -277t-253.5 -109zM419 31q133 0 219 97t86 246t-86 246t-219 97t-219.5 -97t-86.5 -246t86.5 -246t219.5 -97z" />
    <glyph glyph-name="P" unicode="P" horiz-adv-x="677" 
d="M354 748q131 0 203.5 -55.5t72.5 -155.5q0 -102 -72.5 -157.5t-203.5 -55.5h-196v-324h-48v748h244zM354 366q109 0 168.5 44.5t59.5 126.5q0 81 -59.5 125t-168.5 44h-196v-340h196z" />
    <glyph glyph-name="Q" unicode="Q" horiz-adv-x="837" 
d="M772 374q0 -191 -125 -302l102 -108l-33 -30l-104 111q-85 -57 -193 -57q-155 0 -255 109t-100 277t100 277t255 109q154 0 253.5 -109t99.5 -277zM113 374q0 -149 86.5 -246t219.5 -97t219 97t86 246t-86 246t-219 97t-219.5 -97t-86.5 -246z" />
    <glyph glyph-name="R" unicode="R" horiz-adv-x="715" 
d="M499 369q57 -13 87 -53.5t30 -97.5v-218h-48v210q0 63 -39.5 99t-112.5 36h-258v-345h-48v748h259q125 0 194 -53t69 -148q0 -66 -34 -113t-99 -65zM368 388q103 0 159 41t56 118t-56 118t-159 41h-210v-318h210z" />
    <glyph glyph-name="S" unicode="S" horiz-adv-x="659" 
d="M348 -12q-112 0 -193.5 68.5t-101.5 179.5l47 8q18 -96 86.5 -154.5t163.5 -58.5q90 0 147.5 46t57.5 117q0 49 -26.5 82.5t-69 51t-93.5 31t-102 28.5t-93.5 35.5t-69 58.5t-26.5 93q0 85 69.5 135.5t187.5 50.5q101 0 174.5 -57t94.5 -150l-47 -7q-20 79 -80.5 125.5
t-144.5 46.5q-95 0 -150.5 -38.5t-55.5 -103.5q0 -45 26.5 -76t69 -47.5t93.5 -29.5t102 -28.5t93.5 -37t69 -62t26.5 -98.5q0 -93 -70.5 -151t-184.5 -58z" />
    <glyph glyph-name="T" unicode="T" horiz-adv-x="621" 
d="M595 748v-42h-260v-706h-48v706h-260v42h568z" />
    <glyph glyph-name="U" unicode="U" horiz-adv-x="769" 
d="M352 0q-119 0 -183 69t-64 193v486h48v-486q0 -106 52.5 -163t152.5 -57h53q100 0 152.5 57t52.5 163v486h48v-486q0 -124 -64 -193t-183 -69h-65z" />
    <glyph glyph-name="V" unicode="V" horiz-adv-x="738" 
d="M343 0l-318 748h52l292 -691l293 691h51l-318 -748h-52z" />
    <glyph glyph-name="W" unicode="W" horiz-adv-x="1058" 
d="M1029 748l-233 -748h-57l-210 683l-210 -683h-57l-233 748h50l212 -688l210 688h57l210 -688l212 688h49z" />
    <glyph glyph-name="X" unicode="X" horiz-adv-x="642" 
d="M600 0h-55l-224 338l-224 -338h-55l252 379l-245 369h55l217 -327l217 327h54l-244 -368z" />
    <glyph glyph-name="Y" unicode="Y" horiz-adv-x="593" 
d="M576 748l-258 -445v-303h-48v303l-253 445h54l224 -399l227 399h54z" />
    <glyph glyph-name="Z" unicode="Z" horiz-adv-x="622" 
d="M576 748v-46l-475 -660h475v-42h-529v47l473 659h-457v42h513z" />
    <glyph glyph-name="bracketleft" unicode="[" horiz-adv-x="321" 
d="M311 745h-157v-848h157v-36h-201v921h201v-37z" />
    <glyph glyph-name="backslash" unicode="\" horiz-adv-x="263" 
d="M200 0l-182 748h45l182 -748h-45z" />
    <glyph glyph-name="bracketright" unicode="]" horiz-adv-x="321" 
d="M211 782v-921h-201v36h158v848h-158v37h201z" />
    <glyph glyph-name="asciicircum" unicode="^" horiz-adv-x="437" 
d="M412 370h-46l-147 338l-149 -338h-45l168 378h50z" />
    <glyph glyph-name="underscore" unicode="_" horiz-adv-x="469" 
d="M469 -31v-35h-469v35h469z" />
    <glyph glyph-name="grave" unicode="`" horiz-adv-x="239" 
d="M50 810h51l88 -163h-43z" />
    <glyph glyph-name="a" unicode="a" horiz-adv-x="589" 
d="M278 581q99 0 159.5 -54.5t60.5 -146.5v-380h-36l-8 131q-20 -69 -70 -106t-116 -37q-82 0 -133.5 47.5t-51.5 123.5q0 98 69 150t200 52h101v19q0 75 -47.5 118t-127.5 43q-60 0 -113.5 -35.5t-71.5 -93.5l-42 9q20 72 86 116t141 44zM276 27q80 0 128.5 63.5
t48.5 170.5v61h-102q-109 0 -165.5 -41t-56.5 -119q0 -60 40.5 -97.5t106.5 -37.5z" />
    <glyph glyph-name="b" unicode="b" horiz-adv-x="638" 
d="M344 581q106 0 172.5 -81.5t66.5 -215.5t-67 -215t-172 -81q-70 0 -124.5 44t-74.5 118v-2l-8 -148h-37v748h45v-329q20 75 74 118.5t125 43.5zM338 29q89 0 144.5 70t55.5 185q0 116 -55.5 185.5t-144.5 69.5q-85 0 -139 -70t-54 -185t54 -185t139 -70z" />
    <glyph glyph-name="c" unicode="c" horiz-adv-x="604" 
d="M313 -12q-117 0 -188 81t-71 216t71 215.5t188 80.5q90 0 151 -53.5t73 -137.5l-45 -6q-11 68 -60 111.5t-119 43.5q-97 0 -155 -68.5t-58 -185.5t58 -186.5t155 -69.5q76 0 128 44t64 119l45 -7q-14 -90 -78.5 -143.5t-158.5 -53.5z" />
    <glyph glyph-name="d" unicode="d" horiz-adv-x="638" 
d="M493 748h45v-748h-37l-8 148v2q-20 -74 -74.5 -118t-124.5 -44q-105 0 -172.5 81.5t-67.5 214.5q0 134 67 215.5t173 81.5q70 0 124.5 -44t74.5 -118v329zM300 29q85 0 139 70t54 185t-54 185.5t-139 70.5q-90 0 -145 -70t-55 -186t55 -185.5t145 -69.5z" />
    <glyph glyph-name="e" unicode="e" horiz-adv-x="606" 
d="M508 187l43 -8q-14 -88 -78 -139.5t-156 -51.5q-117 0 -190 82.5t-73 214.5q0 131 72.5 213.5t183.5 82.5q107 0 169.5 -72.5t56.5 -190.5h-435q-1 -9 -1 -28v-7q0 -113 60 -183.5t157 -70.5q75 0 126.5 42.5t64.5 115.5zM311 540q-76 0 -132 -49.5t-73 -134.5h385
q-5 82 -54 133t-126 51z" />
    <glyph glyph-name="f" unicode="f" horiz-adv-x="319" 
d="M165 654v-85h133v-41h-133v-528h-45v528h-102v41h102v89q0 40 25 65t65 25h105l7 -40h-104q-24 0 -38.5 -14.5t-14.5 -39.5z" />
    <glyph glyph-name="g" unicode="g" horiz-adv-x="580" 
d="M550 529q-33 0 -47 -26.5t-16 -102.5v-15q0 -84 -58 -139.5t-148 -55.5q-65 0 -117 30q-40 -28 -40 -59q0 -35 31 -55t87 -20h123q172 0 172 -133q0 -74 -56 -108.5t-146 -34.5h-81q-217 0 -217 142q0 43 21.5 72t69.5 52q-46 29 -46 83q0 49 55 81q-66 56 -66 145
q0 85 59 140.5t151 55.5q65 0 114 -29.5t73 -80.5q2 53 21.5 75.5t58.5 22.5h17l7 -40h-22zM281 227q71 0 117 44.5t46 113.5q0 70 -46 114.5t-117 44.5q-73 0 -120 -44.5t-47 -114.5q0 -69 47 -113.5t120 -44.5zM363 50h-121q-42 0 -77 10q-44 -20 -63.5 -44t-19.5 -62
q0 -108 179 -108h72q67 0 113 26t46 82q0 46 -33.5 71t-95.5 25z" />
    <glyph glyph-name="h" unicode="h" 
d="M330 581q94 0 149 -57t55 -156v-368h-45v361q0 83 -45 130.5t-124 47.5q-80 0 -127.5 -63t-47.5 -157v-319h-45v748h45v-314q21 71 69.5 109t115.5 38z" />
    <glyph glyph-name="i" unicode="i" horiz-adv-x="245" 
d="M123 687q-17 0 -28 10.5t-11 27.5q0 18 11 28t28 10q18 0 28.5 -10t10.5 -28q0 -17 -11 -27.5t-28 -10.5zM145 569v-569h-45v569h45z" />
    <glyph glyph-name="j" unicode="j" horiz-adv-x="245" 
d="M123 687q-17 0 -28 10.5t-11 27.5q0 18 11 28t28 10q18 0 28.5 -10t10.5 -28q0 -17 -11 -27.5t-28 -10.5zM58 -178h-33l-8 39h39q19 0 31.5 13t12.5 33v662h45v-665q0 -37 -24 -59.5t-63 -22.5z" />
    <glyph glyph-name="k" unicode="k" horiz-adv-x="567" 
d="M551 569l-263 -207l261 -362h-53l-242 335l-109 -86v-249h-45v748h45v-442l339 263h67z" />
    <glyph glyph-name="l" unicode="l" horiz-adv-x="245" 
d="M145 748v-748h-45v748h45z" />
    <glyph glyph-name="m" unicode="m" horiz-adv-x="1008" 
d="M716 581q93 0 147 -57t54 -156v-368h-45v361q0 83 -44 131t-121 48q-80 0 -128 -63.5t-48 -157.5v-319h-45v361q0 83 -44 131t-121 48q-80 0 -128 -63.5t-48 -157.5v-319h-45v569h34l11 -140q20 73 68.5 112.5t116.5 39.5q79 0 130.5 -41.5t65.5 -116.5q21 77 70.5 117.5
t119.5 40.5z" />
    <glyph glyph-name="n" unicode="n" 
d="M330 581q94 0 149 -57t55 -156v-368h-45v361q0 83 -45 130.5t-124 47.5q-80 0 -127.5 -63t-47.5 -157v-319h-45v569h34l10 -137q21 72 69.5 110.5t116.5 38.5z" />
    <glyph glyph-name="o" unicode="o" horiz-adv-x="595" 
d="M297 -12q-109 0 -176 81.5t-67 214.5t67 215t176 82t176 -82t67 -215t-67 -214.5t-176 -81.5zM297 29q88 0 142.5 69.5t54.5 185.5t-54.5 185.5t-142.5 69.5q-87 0 -142 -69.5t-55 -185.5t55 -185.5t142 -69.5z" />
    <glyph glyph-name="p" unicode="p" horiz-adv-x="638" 
d="M344 581q106 0 172.5 -81.5t66.5 -215.5t-67 -215t-172 -81q-70 0 -124.5 44t-74.5 118v-328h-45v747h37l8 -148v-2q20 75 74 118.5t125 43.5zM338 29q89 0 144.5 70t55.5 185q0 116 -55.5 185.5t-144.5 69.5q-85 0 -139 -70t-54 -185t54 -185t139 -70z" />
    <glyph glyph-name="q" unicode="q" horiz-adv-x="638" 
d="M501 569h37v-747h-45v328q-20 -74 -74.5 -118t-124.5 -44q-106 0 -173 81.5t-67 214.5q0 134 67 215.5t173 81.5q70 0 124.5 -44t74.5 -118v2zM300 29q85 0 139 70t54 185t-54 185t-139 70q-90 0 -145 -69.5t-55 -185.5t55 -185.5t145 -69.5z" />
    <glyph glyph-name="r" unicode="r" horiz-adv-x="389" 
d="M359 569l7 -41h-100q-121 0 -121 -187v-341h-45v569h34l8 -106q12 50 43.5 78t79.5 28h94z" />
    <glyph glyph-name="s" unicode="s" horiz-adv-x="520" 
d="M274 -12q-84 0 -148.5 53.5t-81.5 139.5l44 8q16 -74 69.5 -118.5t118.5 -44.5q67 0 108.5 32t41.5 84q0 55 -37.5 85.5t-91.5 42.5l-107.5 25t-91 46.5t-37.5 93.5q0 65 54 105.5t139 40.5q83 0 145 -45.5t75 -117.5l-44 -8q-13 59 -62 96t-115 37q-65 0 -105.5 -29
t-40.5 -76q0 -48 37.5 -74t91 -37.5t107.5 -25.5t91.5 -52t37.5 -104q0 -70 -55 -113.5t-143 -43.5z" />
    <glyph glyph-name="t" unicode="t" horiz-adv-x="327" 
d="M219 40h86l-8 -40h-86q-41 0 -66 25t-25 66v437h-102v41h102v159l45 31v-190h132v-41h-132v-433q0 -25 14.5 -40t39.5 -15z" />
    <glyph glyph-name="u" unicode="u" 
d="M480 569h45v-569h-35l-10 138q-21 -72 -69 -111t-116 -39q-94 0 -149 57t-55 156v368h45v-361q0 -83 45 -131t123 -48q81 0 128.5 63.5t47.5 157.5v319z" />
    <glyph glyph-name="v" unicode="v" horiz-adv-x="539" 
d="M248 0l-223 569h48l204 -527l190 527h47l-207 -569h-59z" />
    <glyph glyph-name="w" unicode="w" horiz-adv-x="876" 
d="M219 0l-190 569h47l173 -525l162 525h54l163 -525l173 525h46l-190 -569h-58l-161 512l-161 -512h-58z" />
    <glyph glyph-name="x" unicode="x" horiz-adv-x="515" 
d="M473 0h-53l-163 245l-162 -245h-52l188 284l-189 285h53l163 -245l162 245h52l-188 -284z" />
    <glyph glyph-name="y" unicode="y" horiz-adv-x="533" 
d="M461 569h47l-290 -747h-48l73 187l-218 560h48l194 -498z" />
    <glyph glyph-name="z" unicode="z" horiz-adv-x="478" 
d="M448 569v-41l-363 -488h363v-40h-418v40l364 488h-364v41h418z" />
    <glyph glyph-name="braceleft" unicode="{" horiz-adv-x="320" 
d="M272 -139q-63 0 -97.5 35t-34.5 99v172q0 63 -22.5 98t-63.5 38v37q42 3 64 38t22 98v172q0 64 34.5 99t97.5 35h38v-37h-38q-43 0 -66.5 -25t-23.5 -72v-174q0 -122 -77 -152q77 -30 77 -153v-174q0 -47 23.5 -72.5t66.5 -25.5h38v-36h-38z" />
    <glyph glyph-name="bar" unicode="|" horiz-adv-x="259" 
d="M149 810v-988h-39v988h39z" />
    <glyph glyph-name="braceright" unicode="}" horiz-adv-x="320" 
d="M48 782q63 0 97 -35t34 -100v-172q0 -63 22.5 -98t63.5 -38v-37q-41 -3 -63.5 -38t-22.5 -97v-173q0 -64 -34 -98.5t-97 -34.5h-38v36h37q44 0 67.5 25.5t23.5 71.5v174q0 122 77 152q-77 30 -77 153v174q0 47 -23.5 72.5t-67.5 25.5h-37v37h38z" />
    <glyph glyph-name="asciitilde" unicode="~" horiz-adv-x="510" 
d="M361 296q-32 0 -62.5 17.5t-50 38t-46 38t-51.5 17.5q-31 0 -50.5 -23.5t-21.5 -63.5h-40q1 57 32.5 92.5t79.5 35.5q32 0 62.5 -17.5t50.5 -38t46 -38t50 -17.5q30 0 50 24t22 64h40q-2 -58 -33 -93.5t-78 -35.5z" />
    <glyph glyph-name="uni00A0" unicode="&#xa0;" horiz-adv-x="201" 
 />
    <glyph glyph-name="exclamdown" unicode="&#xa1;" horiz-adv-x="246" 
d="M93 497v72h61v-72h-61zM96 -180l12 563h32l11 -563h-55z" />
    <glyph glyph-name="cent" unicode="&#xa2;" horiz-adv-x="604" 
d="M550 185q-13 -85 -72 -138t-146 -58v-143h-41v143q-108 8 -172.5 88t-64.5 208q0 129 64.5 208t172.5 87v141h41v-141q83 -6 138.5 -58.5t66.5 -131.5l-45 -6q-11 68 -60 111.5t-119 43.5q-97 0 -155 -68.5t-58 -185.5t58 -186.5t155 -69.5q76 0 128 44t64 119z" />
    <glyph glyph-name="sterling" unicode="&#xa3;" horiz-adv-x="618" 
d="M234 261q2 -54 -30.5 -117.5t-90.5 -101.5h426v-42h-486v42q59 28 99.5 94.5t38.5 122.5q-1 47 -18 89h-116v40h98q-36 78 -36 154q0 99 57.5 158.5t155.5 59.5q91 0 151.5 -61t69.5 -153l-45 -3q-9 74 -57 124.5t-119 50.5q-77 0 -121.5 -48.5t-44.5 -130.5
q0 -71 35 -151h249v-40h-232q15 -44 16 -87z" />
    <glyph glyph-name="currency" unicode="&#xa4;" horiz-adv-x="728" 
d="M82 54l-29 29l99 98q-69 82 -69 184q0 104 70 182l-101 99l30 30l100 -99q80 69 183 69q104 0 183 -68l97 99l30 -30l-98 -99q69 -78 69 -183q0 -106 -69 -184l99 -98l-30 -29l-98 98q-79 -68 -183 -68t-183 68zM365 128q98 0 167.5 69t69.5 168q0 98 -69 167.5
t-168 69.5t-168.5 -69.5t-69.5 -167.5q0 -99 69.5 -168t168.5 -69z" />
    <glyph glyph-name="yen" unicode="&#xa5;" horiz-adv-x="593" 
d="M576 748l-242 -417h199v-32h-215v-114h215v-32h-215v-153h-48v153h-201v32h201v114h-201v32h185l-237 417h54l224 -399l227 399h54z" />
    <glyph glyph-name="brokenbar" unicode="&#xa6;" horiz-adv-x="259" 
d="M110 414v396h39v-396h-39zM110 -178v394h39v-394h-39z" />
    <glyph glyph-name="section" unicode="&#xa7;" horiz-adv-x="550" 
d="M295 -120q-91 0 -159 53.5t-83 139.5l42 8q13 -73 70 -118.5t131 -45.5q71 0 113.5 35t42.5 84q0 54 -52 88.5t-143 46.5q-83 12 -131 54t-48 110q0 55 38 95t110 43q-73 12 -111 51.5t-38 89.5q0 64 53.5 104t139.5 40t146.5 -45t73.5 -118l-43 -7q-13 60 -62 97
t-116 37q-66 0 -106.5 -29.5t-40.5 -77.5q0 -47 47 -80t125 -44q88 -13 141 -55t53 -110q0 -56 -38.5 -97.5t-109.5 -44.5q77 -14 117 -54.5t40 -91.5q0 -67 -55 -112.5t-147 -45.5zM301 203q64 0 103 32.5t39 85.5q0 59 -50 95.5t-131 36.5q-63 0 -101.5 -32t-38.5 -84
q0 -60 49 -97t130 -37z" />
    <glyph glyph-name="dieresis" unicode="&#xa8;" horiz-adv-x="318" 
d="M89 671q-17 0 -28 10t-11 28q0 17 11 27t28 10t27.5 -10t10.5 -27q0 -18 -10.5 -28t-27.5 -10zM231 671q-17 0 -27.5 10t-10.5 28q0 17 10.5 27t27.5 10t28 -10t11 -27q0 -18 -10.5 -28t-28.5 -10z" />
    <glyph glyph-name="copyright" unicode="&#xa9;" horiz-adv-x="902" 
d="M452 -12q-160 0 -274 113.5t-114 272.5t114 272.5t274 113.5q159 0 272 -113.5t113 -272.5t-113 -272.5t-272 -113.5zM452 14q148 0 253.5 106t105.5 254t-105.5 254t-253.5 106t-254.5 -106t-106.5 -254t106.5 -254t254.5 -106zM459 608q64 0 113 -37.5t61 -97.5l-36 -9
q-14 49 -52 79t-87 30q-76 0 -125.5 -55.5t-49.5 -140.5q0 -86 49.5 -141.5t126.5 -55.5q53 0 95.5 34.5t56.5 90.5l37 -5q-14 -69 -67 -112t-122 -43q-93 0 -154.5 66t-61.5 166t61.5 165.5t154.5 65.5z" />
    <glyph glyph-name="ordfeminine" unicode="&#xaa;" horiz-adv-x="355" 
d="M168 760q60 0 97 -33.5t37 -88.5v-227h-28l-5 73q-13 -38 -42 -59t-68 -21q-48 0 -79 28.5t-31 73.5q0 59 41.5 89t118.5 30h59v13q0 43 -27 67.5t-73 24.5q-35 0 -65.5 -20t-41.5 -54l-32 6q12 44 52.5 71t86.5 27zM168 433q45 0 72.5 36.5t27.5 96.5v35h-58
q-126 0 -126 -91q0 -34 23.5 -55.5t60.5 -21.5z" />
    <glyph glyph-name="guillemotleft" unicode="&#xab;" horiz-adv-x="437" 
d="M237 527l-155 -237l155 -238h-43l-157 238l157 237h43zM390 527l-155 -237l155 -238h-43l-157 238l157 237h43z" />
    <glyph glyph-name="logicalnot" unicode="&#xac;" horiz-adv-x="527" 
d="M430 188v171h-392v40h431v-211h-39z" />
    <glyph glyph-name="uni00AD" unicode="&#xad;" horiz-adv-x="296" 
d="M257 319v-43h-219v43h219z" />
    <glyph glyph-name="registered" unicode="&#xae;" horiz-adv-x="573" 
d="M287 760q95 0 163 -68.5t68 -163.5t-68 -163t-163 -68q-96 0 -164.5 68t-68.5 163t68.5 163.5t164.5 68.5zM287 316q88 0 150 62.5t62 149.5q0 88 -62 150.5t-150 62.5t-150.5 -62.5t-62.5 -150.5q0 -87 62.5 -149.5t150.5 -62.5zM387 589q0 -46 -41 -63q37 -13 37 -53
v-78h-28v73q0 21 -13.5 33.5t-37.5 12.5h-82v-119h-28v270h97q45 0 70.5 -20t25.5 -56zM290 538q33 0 51 13.5t18 37.5q0 51 -69 51h-68v-102h68z" />
    <glyph glyph-name="macron" unicode="&#xaf;" horiz-adv-x="328" 
d="M50 672v34h228v-34h-228z" />
    <glyph glyph-name="degree" unicode="&#xb0;" horiz-adv-x="448" 
d="M225 397q-77 0 -124 50t-47 131t47 130.5t124 49.5q76 0 122.5 -49.5t46.5 -130.5t-46.5 -131t-122.5 -50zM225 433q58 0 93.5 40t35.5 105t-35.5 105t-93.5 40q-59 0 -95 -40t-36 -105t36 -105t95 -40z" />
    <glyph glyph-name="plusminus" unicode="&#xb1;" horiz-adv-x="515" 
d="M277 472h190v-40h-190v-189h-39v189h-190v40h190v189h39v-189zM48 143v40h419v-40h-419z" />
    <glyph glyph-name="uni00B2" unicode="&#xb2;" horiz-adv-x="337" 
d="M171 885q56 0 93.5 -34.5t37.5 -87.5q0 -46 -22.5 -81.5t-55 -58l-64.5 -44t-54.5 -50.5t-22.5 -67h213v-33h-252v18q0 52 22.5 90.5t55 61.5t65 43.5t55 50.5t22.5 70q0 39 -27 64t-66 25q-40 0 -69.5 -31t-33.5 -85l-37 3q5 67 44 106.5t96 39.5z" />
    <glyph glyph-name="uni00B3" unicode="&#xb3;" horiz-adv-x="340" 
d="M171 422q-52 0 -90.5 34t-43.5 87l37 5q5 -42 32 -67t65 -25q41 0 67.5 27.5t26.5 70.5q0 41 -29.5 67.5t-76.5 26.5h-21l-5 33h27q41 0 67 24.5t26 62.5q0 37 -24 59.5t-62 22.5q-37 0 -64 -26.5t-31 -68.5l-37 3q5 56 42.5 91.5t89.5 35.5q55 0 89.5 -32t34.5 -82
q0 -41 -25 -71t-64 -34q44 -4 73 -37.5t29 -75.5q0 -58 -37.5 -94.5t-95.5 -36.5z" />
    <glyph glyph-name="acute" unicode="&#xb4;" horiz-adv-x="239" 
d="M189 810l-96 -163h-43l88 163h51z" />
    <glyph glyph-name="uni00B5" unicode="&#xb5;" horiz-adv-x="634" 
d="M489 569h45v-569h-34l-10 137q-21 -72 -69.5 -110.5t-116.5 -38.5q-105 0 -159 68v-234h-45v747h45v-361q0 -83 45 -131t123 -48q81 0 128.5 63.5t47.5 157.5v319z" />
    <glyph glyph-name="paragraph" unicode="&#xb6;" horiz-adv-x="583" 
d="M297 -178v531q-109 0 -176 48.5t-67 149.5q0 100 66.5 148.5t175.5 48.5h40v-926h-39zM434 -178v926h39v-926h-39z" />
    <glyph glyph-name="periodcentered" unicode="&#xb7;" horiz-adv-x="170" 
d="M115 349v-72h-61v72h61z" />
    <glyph glyph-name="cedilla" unicode="&#xb8;" horiz-adv-x="271" 
d="M95 -78l22 82h30l-19 -71q42 3 67.5 -15t25.5 -48q0 -31 -25.5 -49t-65.5 -18q-49 0 -80 29l12 21q29 -24 66 -24q25 0 42.5 11t17.5 29q0 22 -22.5 32.5t-59.5 5.5z" />
    <glyph glyph-name="uni00B9" unicode="&#xb9;" horiz-adv-x="225" 
d="M126 878h36v-449h-37v360q-10 -16 -26 -21t-51 -5h-36v33h36q42 0 59.5 15.5t18.5 66.5z" />
    <glyph glyph-name="ordmasculine" unicode="&#xba;" horiz-adv-x="359" 
d="M179 404q-66 0 -107 49t-41 129q0 79 41 128.5t107 49.5q67 0 108 -49t41 -129t-41 -129t-108 -49zM179 435q51 0 82.5 40t31.5 107q0 66 -31.5 106.5t-82.5 40.5q-50 0 -81.5 -40.5t-31.5 -106.5q0 -67 31.5 -107t81.5 -40z" />
    <glyph glyph-name="guillemotright" unicode="&#xbb;" horiz-adv-x="437" 
d="M47 52l156 238l-156 237h43l157 -237l-157 -238h-43zM200 52l156 238l-156 237h43l157 -237l-157 -238h-43z" />
    <glyph glyph-name="onequarter" unicode="&#xbc;" horiz-adv-x="834" 
d="M637 772l29 -19l-485 -778l-29 19zM162 299h-37v360q-10 -16 -26 -21t-51 -5h-36v33h36q42 0 59.5 15.5t18.5 66.5h36v-449zM818 126v-34h-55v-92h-38v92h-204v35l151 322h41l-152 -323h164v111l38 8v-119h55z" />
    <glyph glyph-name="onehalf" unicode="&#xbd;" horiz-adv-x="878" 
d="M666 753l-485 -778l-29 19l485 778zM126 748h36v-449h-37v360q-10 -16 -26 -21t-51 -5h-36v33h36q42 0 59.5 15.5t18.5 66.5zM712 456q56 0 93.5 -34.5t37.5 -87.5q0 -46 -22.5 -81.5t-55 -58l-64.5 -44t-54.5 -50.5t-22.5 -67h213v-33h-252v18q0 52 22.5 90.5t55 61.5
t65 43.5t55 50.5t22.5 70q0 39 -27 64t-66 25q-40 0 -69.5 -31t-33.5 -85l-37 3q5 67 44 106.5t96 39.5z" />
    <glyph glyph-name="threequarters" unicode="&#xbe;" horiz-adv-x="900" 
d="M703 772l29 -19l-485 -778l-29 19zM304 423q0 -58 -37.5 -94.5t-95.5 -36.5q-52 0 -90.5 34t-43.5 87l37 5q5 -42 32 -67t65 -25q41 0 67.5 27.5t26.5 70.5q0 41 -29.5 67.5t-76.5 26.5h-21l-5 33h27q41 0 67 24.5t26 62.5q0 37 -24 59.5t-62 22.5q-37 0 -64 -26.5
t-31 -68.5l-37 3q5 56 42.5 91.5t89.5 35.5q55 0 89.5 -32t34.5 -82q0 -41 -25 -71t-64 -34q44 -4 73 -37.5t29 -75.5zM884 126v-34h-55v-92h-38v92h-204v35l151 322h41l-152 -323h164v111l38 8v-119h55z" />
    <glyph glyph-name="questiondown" unicode="&#xbf;" horiz-adv-x="424" 
d="M176 497v72h61v-72h-61zM215 350q81 0 132 -37t51 -97q0 -55 -35.5 -85.5t-86 -42.5t-101.5 -22.5t-86.5 -38t-35.5 -77.5q0 -47 39.5 -76.5t101.5 -29.5q63 0 113 41t65 107l42 -7q-16 -78 -77.5 -127t-141.5 -49q-82 0 -134 39.5t-52 103.5q0 60 35.5 95t86.5 48
t101.5 23t86 33.5t35.5 67.5q0 43 -38.5 69.5t-99.5 26.5q-63 0 -109 -33.5t-58 -87.5l-42 7q13 66 71 107.5t137 41.5z" />
    <glyph glyph-name="Agrave" unicode="&#xc0;" horiz-adv-x="738" 
d="M397 826h-43l-96 163h51zM661 0l-83 196h-419l-83 -196h-51l318 748h52l318 -748h-52zM177 238h383l-191 453z" />
    <glyph glyph-name="Aacute" unicode="&#xc1;" horiz-adv-x="738" 
d="M483 989l-96 -163h-43l88 163h51zM661 0l-83 196h-419l-83 -196h-51l318 748h52l318 -748h-52zM177 238h383l-191 453z" />
    <glyph glyph-name="Acircumflex" unicode="&#xc2;" horiz-adv-x="738" 
d="M376 961l-79 -135h-38l89 163h56l89 -163h-37zM661 0l-83 196h-419l-83 -196h-51l318 748h52l318 -748h-52zM177 238h383l-191 453z" />
    <glyph glyph-name="Atilde" unicode="&#xc3;" horiz-adv-x="738" 
d="M315 911q-39 0 -44 -65h-37q2 47 23.5 73.5t57.5 26.5q16 0 31 -7t21 -12.5t20 -19.5q29 -31 48 -31q18 0 30 17t15 48h37q-3 -47 -24 -73.5t-57 -26.5q-16 0 -30.5 6.5t-21.5 13t-18 19.5q-29 31 -51 31zM661 0l-83 196h-419l-83 -196h-51l318 748h52l318 -748h-52z
M177 238h383l-191 453z" />
    <glyph glyph-name="Adieresis" unicode="&#xc4;" horiz-adv-x="738" 
d="M306 850q-17 0 -28 10t-11 28q0 17 11 27t28 10t27.5 -10t10.5 -27q0 -18 -10.5 -28t-27.5 -10zM448 850q-17 0 -27.5 10t-10.5 28q0 17 10.5 27t27.5 10t28 -10t11 -27q0 -18 -10.5 -28t-28.5 -10zM661 0l-83 196h-419l-83 -196h-51l318 748h52l318 -748h-52zM177 238
h383l-191 453z" />
    <glyph glyph-name="Aring" unicode="&#xc5;" horiz-adv-x="738" 
d="M376 821q-39 0 -64.5 24.5t-25.5 62.5q0 37 25.5 61.5t64.5 24.5t64 -24t25 -62t-25 -62.5t-64 -24.5zM376 967q-26 0 -43 -17t-17 -42q0 -26 17 -43t43 -17q25 0 42 17t17 43t-16.5 42.5t-42.5 16.5zM661 0l-83 196h-419l-83 -196h-51l318 748h52l318 -748h-52zM177 238
h383l-191 453z" />
    <glyph glyph-name="AE" unicode="&#xc6;" horiz-adv-x="1002" 
d="M918 706h-380v-298h374v-42h-374v-324h380v-42h-428v204h-297l-121 -204h-55l446 748h455v-42zM220 250h270v454z" />
    <glyph glyph-name="Ccedilla" unicode="&#xc7;" horiz-adv-x="793" 
d="M733 242q-26 -111 -109.5 -181t-192.5 -73l-15 -55q42 3 67.5 -15t25.5 -48q0 -31 -25.5 -49t-65.5 -18q-49 0 -80 29l12 21q29 -24 66 -24q25 0 42.5 11t17.5 29q0 22 -22.5 32.5t-59.5 5.5l-11 15l18 67q-147 8 -242 116t-95 270q0 167 101.5 276t256.5 109
q105 0 184 -60.5t101 -159.5l-47 -10q-22 84 -87.5 135.5t-152.5 51.5q-134 0 -220.5 -96.5t-86.5 -245.5q0 -150 87 -247t222 -97q93 0 166 60t99 157z" />
    <glyph glyph-name="Egrave" unicode="&#xc8;" horiz-adv-x="621" 
d="M214 989h51l88 -163h-43zM538 748v-42h-380v-298h374v-42h-374v-324h380v-42h-428v748h428z" />
    <glyph glyph-name="Eacute" unicode="&#xc9;" horiz-adv-x="621" 
d="M439 989l-96 -163h-43l88 163h51zM538 748v-42h-380v-298h374v-42h-374v-324h380v-42h-428v748h428z" />
    <glyph glyph-name="Ecircumflex" unicode="&#xca;" horiz-adv-x="621" 
d="M214 826l89 163h56l89 -163h-37l-80 135l-79 -135h-38zM538 748v-42h-380v-298h374v-42h-374v-324h380v-42h-428v748h428z" />
    <glyph glyph-name="Edieresis" unicode="&#xcb;" horiz-adv-x="621" 
d="M261 850q-17 0 -28 10t-11 28q0 17 11 27t28 10t27.5 -10t10.5 -27q0 -18 -10.5 -28t-27.5 -10zM403 850q-17 0 -27.5 10t-10.5 28q0 17 10.5 27t27.5 10t28 -10t11 -27q0 -18 -10.5 -28t-28.5 -10zM538 748v-42h-380v-298h374v-42h-374v-324h380v-42h-428v748h428z" />
    <glyph glyph-name="Igrave" unicode="&#xcc;" horiz-adv-x="268" 
d="M17 989h51l88 -163h-43zM158 748v-748h-48v748h48z" />
    <glyph glyph-name="Iacute" unicode="&#xcd;" horiz-adv-x="268" 
d="M241 989l-96 -163h-43l88 163h51zM158 748v-748h-48v748h48z" />
    <glyph glyph-name="Icircumflex" unicode="&#xce;" horiz-adv-x="268" 
d="M17 826l89 163h56l89 -163h-37l-80 135l-79 -135h-38zM158 748v-748h-48v748h48z" />
    <glyph glyph-name="Idieresis" unicode="&#xcf;" horiz-adv-x="268" 
d="M64 850q-17 0 -28 10t-11 28q0 17 11 27t28 10t27.5 -10t10.5 -27q0 -18 -10.5 -28t-27.5 -10zM206 850q-17 0 -27.5 10t-10.5 28q0 17 10.5 27t27.5 10t28 -10t11 -27q0 -18 -10.5 -28t-28.5 -10zM158 748v-748h-48v748h48z" />
    <glyph glyph-name="Eth" unicode="&#xd0;" horiz-adv-x="798" 
d="M362 748q169 0 270 -103t101 -270q0 -168 -101 -271.5t-270 -103.5h-225v367h-93v37h93v344h225zM362 41q149 0 235.5 92t86.5 242q0 151 -86.5 241.5t-235.5 90.5h-177v-303h225v-37h-225v-326h177z" />
    <glyph glyph-name="Ntilde" unicode="&#xd1;" horiz-adv-x="755" 
d="M519 941q-3 -47 -24 -73.5t-57 -26.5q-16 0 -30.5 6.5t-21.5 13t-18 19.5q-29 31 -51 31q-39 0 -44 -65h-37q2 47 23.5 73.5t57.5 26.5q16 0 31 -7t21 -12.5t20 -19.5q29 -31 48 -31q18 0 30 17t15 48h37zM597 748h47v-748h-62l-388 624l-36 60v-684h-48v748h63l385 -622
l39 -62v684z" />
    <glyph glyph-name="Ograve" unicode="&#xd2;" horiz-adv-x="837" 
d="M302 989h51l88 -163h-43zM419 -12q-155 0 -255 109t-100 277t100 277t255 109q154 0 253.5 -109t99.5 -277t-99.5 -277t-253.5 -109zM419 31q133 0 219 97t86 246t-86 246t-219 97t-219.5 -97t-86.5 -246t86.5 -246t219.5 -97z" />
    <glyph glyph-name="Oacute" unicode="&#xd3;" horiz-adv-x="837" 
d="M526 989l-96 -163h-43l88 163h51zM419 -12q-155 0 -255 109t-100 277t100 277t255 109q154 0 253.5 -109t99.5 -277t-99.5 -277t-253.5 -109zM419 31q133 0 219 97t86 246t-86 246t-219 97t-219.5 -97t-86.5 -246t86.5 -246t219.5 -97z" />
    <glyph glyph-name="Ocircumflex" unicode="&#xd4;" horiz-adv-x="837" 
d="M302 826l89 163h56l89 -163h-37l-80 135l-79 -135h-38zM419 -12q-155 0 -255 109t-100 277t100 277t255 109q154 0 253.5 -109t99.5 -277t-99.5 -277t-253.5 -109zM419 31q133 0 219 97t86 246t-86 246t-219 97t-219.5 -97t-86.5 -246t86.5 -246t219.5 -97z" />
    <glyph glyph-name="Otilde" unicode="&#xd5;" horiz-adv-x="837" 
d="M561 941q-3 -47 -24 -73.5t-57 -26.5q-16 0 -30.5 6.5t-21.5 13t-18 19.5q-29 31 -51 31q-39 0 -44 -65h-37q2 47 23.5 73.5t57.5 26.5q16 0 31 -7t21 -12.5t20 -19.5q29 -31 48 -31q18 0 30 17t15 48h37zM419 -12q-155 0 -255 109t-100 277t100 277t255 109
q154 0 253.5 -109t99.5 -277t-99.5 -277t-253.5 -109zM419 31q133 0 219 97t86 246t-86 246t-219 97t-219.5 -97t-86.5 -246t86.5 -246t219.5 -97z" />
    <glyph glyph-name="Odieresis" unicode="&#xd6;" horiz-adv-x="837" 
d="M349 850q-17 0 -28 10t-11 28q0 17 11 27t28 10t27.5 -10t10.5 -27q0 -18 -10.5 -28t-27.5 -10zM491 850q-17 0 -27.5 10t-10.5 28q0 17 10.5 27t27.5 10t28 -10t11 -27q0 -18 -10.5 -28t-28.5 -10zM419 -12q-155 0 -255 109t-100 277t100 277t255 109q154 0 253.5 -109
t99.5 -277t-99.5 -277t-253.5 -109zM419 31q133 0 219 97t86 246t-86 246t-219 97t-219.5 -97t-86.5 -246t86.5 -246t219.5 -97z" />
    <glyph glyph-name="multiply" unicode="&#xd7;" horiz-adv-x="420" 
d="M372 506l-134 -133l134 -134l-28 -28l-134 134l-134 -134l-28 28l134 134l-134 133l28 28l134 -134l134 134z" />
    <glyph glyph-name="Oslash" unicode="&#xd8;" horiz-adv-x="837" 
d="M614 702q74 -51 116 -136.5t42 -191.5q0 -168 -99.5 -277t-253.5 -109q-91 0 -165 40l-54 -101l-31 16l55 103q-75 50 -117.5 135.5t-42.5 192.5q0 168 100 277t255 109q92 0 166 -41l54 102l30 -16zM113 374q0 -92 35.5 -167t97.5 -121l318 594q-66 37 -145 37
q-133 0 -219.5 -97t-86.5 -246zM419 31q133 0 219 97t86 246q0 93 -35 167.5t-97 120.5l-317 -595q66 -36 144 -36z" />
    <glyph glyph-name="Ugrave" unicode="&#xd9;" horiz-adv-x="769" 
d="M267 989h51l88 -163h-43zM352 0q-119 0 -183 69t-64 193v486h48v-486q0 -106 52.5 -163t152.5 -57h53q100 0 152.5 57t52.5 163v486h48v-486q0 -124 -64 -193t-183 -69h-65z" />
    <glyph glyph-name="Uacute" unicode="&#xda;" horiz-adv-x="769" 
d="M492 989l-96 -163h-43l88 163h51zM352 0q-119 0 -183 69t-64 193v486h48v-486q0 -106 52.5 -163t152.5 -57h53q100 0 152.5 57t52.5 163v486h48v-486q0 -124 -64 -193t-183 -69h-65z" />
    <glyph glyph-name="Ucircumflex" unicode="&#xdb;" horiz-adv-x="769" 
d="M267 826l89 163h56l89 -163h-37l-80 135l-79 -135h-38zM352 0q-119 0 -183 69t-64 193v486h48v-486q0 -106 52.5 -163t152.5 -57h53q100 0 152.5 57t52.5 163v486h48v-486q0 -124 -64 -193t-183 -69h-65z" />
    <glyph glyph-name="Udieresis" unicode="&#xdc;" horiz-adv-x="769" 
d="M315 850q-17 0 -28 10t-11 28q0 17 11 27t28 10t27.5 -10t10.5 -27q0 -18 -10.5 -28t-27.5 -10zM457 850q-17 0 -27.5 10t-10.5 28q0 17 10.5 27t27.5 10t28 -10t11 -27q0 -18 -10.5 -28t-28.5 -10zM352 0q-119 0 -183 69t-64 193v486h48v-486q0 -106 52.5 -163
t152.5 -57h53q100 0 152.5 57t52.5 163v486h48v-486q0 -124 -64 -193t-183 -69h-65z" />
    <glyph glyph-name="Yacute" unicode="&#xdd;" horiz-adv-x="593" 
d="M403 989l-96 -163h-43l88 163h51zM576 748l-258 -445v-303h-48v303l-253 445h54l224 -399l227 399h54z" />
    <glyph glyph-name="Thorn" unicode="&#xde;" horiz-adv-x="650" 
d="M110 0v748h48v-155h169q132 0 204 -55.5t72 -156.5t-72 -157t-204 -56h-169v-168h-48zM158 211h169q109 0 168.5 44.5t59.5 125.5q0 82 -59 125.5t-169 43.5h-169v-339z" />
    <glyph glyph-name="germandbls" unicode="&#xdf;" horiz-adv-x="669" 
d="M459 376q70 -13 109 -61t39 -119q0 -90 -58.5 -143t-157.5 -53h-136v42h132q79 0 125.5 42.5t46.5 113.5q0 73 -46.5 115t-125.5 42h-132v38h122q79 0 125.5 44t46.5 121q0 68 -48 113t-121 45q-104 0 -160 -70t-56 -186v-460h-49v355h-97v38h97v67q0 134 70 216t200 82
q93 0 152.5 -55.5t59.5 -141.5q0 -74 -36 -122.5t-102 -62.5z" />
    <glyph glyph-name="agrave" unicode="&#xe0;" horiz-adv-x="589" 
d="M304 647h-43l-96 163h51zM278 581q99 0 159.5 -54.5t60.5 -146.5v-380h-36l-8 131q-20 -69 -70 -106t-116 -37q-82 0 -133.5 47.5t-51.5 123.5q0 98 69 150t200 52h101v19q0 75 -47.5 118t-127.5 43q-60 0 -113.5 -35.5t-71.5 -93.5l-42 9q20 72 86 116t141 44zM276 27
q80 0 128.5 63.5t48.5 170.5v61h-102q-109 0 -165.5 -41t-56.5 -119q0 -60 40.5 -97.5t106.5 -37.5z" />
    <glyph glyph-name="aacute" unicode="&#xe1;" horiz-adv-x="589" 
d="M390 810l-96 -163h-43l88 163h51zM278 581q99 0 159.5 -54.5t60.5 -146.5v-380h-36l-8 131q-20 -69 -70 -106t-116 -37q-82 0 -133.5 47.5t-51.5 123.5q0 98 69 150t200 52h101v19q0 75 -47.5 118t-127.5 43q-60 0 -113.5 -35.5t-71.5 -93.5l-42 9q20 72 86 116t141 44z
M276 27q80 0 128.5 63.5t48.5 170.5v61h-102q-109 0 -165.5 -41t-56.5 -119q0 -60 40.5 -97.5t106.5 -37.5z" />
    <glyph glyph-name="acircumflex" unicode="&#xe2;" horiz-adv-x="589" 
d="M283 782l-79 -135h-38l89 163h56l89 -163h-37zM278 581q99 0 159.5 -54.5t60.5 -146.5v-380h-36l-8 131q-20 -69 -70 -106t-116 -37q-82 0 -133.5 47.5t-51.5 123.5q0 98 69 150t200 52h101v19q0 75 -47.5 118t-127.5 43q-60 0 -113.5 -35.5t-71.5 -93.5l-42 9
q20 72 86 116t141 44zM276 27q80 0 128.5 63.5t48.5 170.5v61h-102q-109 0 -165.5 -41t-56.5 -119q0 -60 40.5 -97.5t106.5 -37.5z" />
    <glyph glyph-name="atilde" unicode="&#xe3;" horiz-adv-x="589" 
d="M222 732q-39 0 -44 -65h-37q2 47 23.5 73.5t57.5 26.5q16 0 31 -7t21 -12.5t20 -19.5q29 -31 48 -31q18 0 30 17t15 48h37q-3 -47 -24 -73.5t-57 -26.5q-16 0 -30.5 6.5t-21.5 13t-18 19.5q-29 31 -51 31zM278 581q99 0 159.5 -54.5t60.5 -146.5v-380h-36l-8 131
q-20 -69 -70 -106t-116 -37q-82 0 -133.5 47.5t-51.5 123.5q0 98 69 150t200 52h101v19q0 75 -47.5 118t-127.5 43q-60 0 -113.5 -35.5t-71.5 -93.5l-42 9q20 72 86 116t141 44zM276 27q80 0 128.5 63.5t48.5 170.5v61h-102q-109 0 -165.5 -41t-56.5 -119q0 -60 40.5 -97.5
t106.5 -37.5z" />
    <glyph glyph-name="adieresis" unicode="&#xe4;" horiz-adv-x="589" 
d="M213 671q-17 0 -28 10t-11 28q0 17 11 27t28 10t27.5 -10t10.5 -27q0 -18 -10.5 -28t-27.5 -10zM355 671q-17 0 -27.5 10t-10.5 28q0 17 10.5 27t27.5 10t28 -10t11 -27q0 -18 -10.5 -28t-28.5 -10zM278 581q99 0 159.5 -54.5t60.5 -146.5v-380h-36l-8 131
q-20 -69 -70 -106t-116 -37q-82 0 -133.5 47.5t-51.5 123.5q0 98 69 150t200 52h101v19q0 75 -47.5 118t-127.5 43q-60 0 -113.5 -35.5t-71.5 -93.5l-42 9q20 72 86 116t141 44zM276 27q80 0 128.5 63.5t48.5 170.5v61h-102q-109 0 -165.5 -41t-56.5 -119q0 -60 40.5 -97.5
t106.5 -37.5z" />
    <glyph glyph-name="aring" unicode="&#xe5;" horiz-adv-x="589" 
d="M283 642q-39 0 -64.5 24.5t-25.5 62.5q0 37 25.5 61.5t64.5 24.5t64 -24t25 -62t-25 -62.5t-64 -24.5zM283 788q-26 0 -43 -17t-17 -42t17.5 -42.5t42.5 -17.5t42 17t17 43q0 25 -17 42t-42 17zM278 581q99 0 159.5 -54.5t60.5 -146.5v-380h-36l-8 131q-20 -69 -70 -106
t-116 -37q-82 0 -133.5 47.5t-51.5 123.5q0 98 69 150t200 52h101v19q0 75 -47.5 118t-127.5 43q-60 0 -113.5 -35.5t-71.5 -93.5l-42 9q20 72 86 116t141 44zM276 27q80 0 128.5 63.5t48.5 170.5v61h-102q-109 0 -165.5 -41t-56.5 -119q0 -60 40.5 -97.5t106.5 -37.5z" />
    <glyph glyph-name="ae" unicode="&#xe6;" horiz-adv-x="1004" 
d="M906 187l44 -8q-15 -88 -78.5 -139.5t-154.5 -51.5q-87 0 -146 47t-83 131q-21 -86 -77 -132t-139 -46q-85 0 -137 47t-52 124q0 98 69 147.5t200 49.5h109v25q0 72 -51 116t-121 44q-71 0 -124 -35t-72 -94l-42 9q21 73 87 116.5t151 43.5q76 0 133.5 -42.5t72.5 -113.5
q27 73 82.5 114.5t132.5 41.5q110 0 170.5 -75t54.5 -188h-427q-1 -9 -1 -28v-7q0 -114 56 -184t152 -70q75 0 126.5 42.5t64.5 115.5zM709 540q-76 0 -128.5 -49.5t-67.5 -134.5h377q-5 82 -54.5 133t-126.5 51zM277 27q85 0 134.5 62.5t49.5 171.5v56h-109
q-223 0 -223 -155q0 -60 41 -97.5t107 -37.5z" />
    <glyph glyph-name="ccedilla" unicode="&#xe7;" horiz-adv-x="604" 
d="M550 185q-14 -88 -75.5 -141t-152.5 -56l-15 -55q42 3 67.5 -15t25.5 -48q0 -31 -25.5 -49t-65.5 -18q-49 0 -80 29l12 21q29 -24 66 -24q25 0 42.5 11t17.5 29q0 22 -22.5 32.5t-59.5 5.5l-11 15l18 67q-108 8 -173 88t-65 208q0 135 71 215.5t188 80.5q90 0 151 -53.5
t73 -137.5l-45 -6q-11 68 -60 111.5t-119 43.5q-97 0 -155 -68.5t-58 -185.5t58 -186.5t155 -69.5q76 0 128 44t64 119z" />
    <glyph glyph-name="egrave" unicode="&#xe8;" horiz-adv-x="606" 
d="M330 647h-43l-96 163h51zM508 187l43 -8q-14 -88 -78 -139.5t-156 -51.5q-117 0 -190 82.5t-73 214.5q0 131 72.5 213.5t183.5 82.5q107 0 169.5 -72.5t56.5 -190.5h-435q-1 -9 -1 -28v-7q0 -113 60 -183.5t157 -70.5q75 0 126.5 42.5t64.5 115.5zM311 540
q-76 0 -132 -49.5t-73 -134.5h385q-5 82 -54 133t-126 51z" />
    <glyph glyph-name="eacute" unicode="&#xe9;" horiz-adv-x="606" 
d="M416 810l-96 -163h-43l88 163h51zM508 187l43 -8q-14 -88 -78 -139.5t-156 -51.5q-117 0 -190 82.5t-73 214.5q0 131 72.5 213.5t183.5 82.5q107 0 169.5 -72.5t56.5 -190.5h-435q-1 -9 -1 -28v-7q0 -113 60 -183.5t157 -70.5q75 0 126.5 42.5t64.5 115.5zM311 540
q-76 0 -132 -49.5t-73 -134.5h385q-5 82 -54 133t-126 51z" />
    <glyph glyph-name="ecircumflex" unicode="&#xea;" horiz-adv-x="606" 
d="M308 782l-79 -135h-38l89 163h56l89 -163h-37zM508 187l43 -8q-14 -88 -78 -139.5t-156 -51.5q-117 0 -190 82.5t-73 214.5q0 131 72.5 213.5t183.5 82.5q107 0 169.5 -72.5t56.5 -190.5h-435q-1 -9 -1 -28v-7q0 -113 60 -183.5t157 -70.5q75 0 126.5 42.5t64.5 115.5z
M311 540q-76 0 -132 -49.5t-73 -134.5h385q-5 82 -54 133t-126 51z" />
    <glyph glyph-name="edieresis" unicode="&#xeb;" horiz-adv-x="606" 
d="M239 671q-17 0 -28 10t-11 28q0 17 11 27t28 10t27.5 -10t10.5 -27q0 -18 -10.5 -28t-27.5 -10zM381 671q-17 0 -27.5 10t-10.5 28q0 17 10.5 27t27.5 10t28 -10t11 -27q0 -18 -10.5 -28t-28.5 -10zM508 187l43 -8q-14 -88 -78 -139.5t-156 -51.5q-117 0 -190 82.5
t-73 214.5q0 131 72.5 213.5t183.5 82.5q107 0 169.5 -72.5t56.5 -190.5h-435q-1 -9 -1 -28v-7q0 -113 60 -183.5t157 -70.5q75 0 126.5 42.5t64.5 115.5zM311 540q-76 0 -132 -49.5t-73 -134.5h385q-5 82 -54 133t-126 51z" />
    <glyph glyph-name="igrave" unicode="&#xec;" horiz-adv-x="245" 
d="M5 810h51l88 -163h-43zM145 569v-569h-45v569h45z" />
    <glyph glyph-name="iacute" unicode="&#xed;" horiz-adv-x="245" 
d="M230 810l-96 -163h-43l88 163h51zM145 569v-569h-45v569h45z" />
    <glyph glyph-name="icircumflex" unicode="&#xee;" horiz-adv-x="245" 
d="M6 647l89 163h56l89 -163h-37l-80 135l-79 -135h-38zM145 569v-569h-45v569h45z" />
    <glyph glyph-name="idieresis" unicode="&#xef;" horiz-adv-x="245" 
d="M53 671q-17 0 -28 10t-11 28q0 17 11 27t28 10t27.5 -10t10.5 -27q0 -18 -10.5 -28t-27.5 -10zM195 671q-17 0 -27.5 10t-10.5 28q0 17 10.5 27t27.5 10t28 -10t11 -27q0 -18 -10.5 -28t-28.5 -10zM145 569v-569h-45v569h45z" />
    <glyph glyph-name="eth" unicode="&#xf0;" horiz-adv-x="581" 
d="M384 633q137 -177 137 -383q0 -122 -61.5 -192t-172.5 -70q-106 0 -169.5 67.5t-63.5 186.5q0 115 60.5 183t167.5 68q59 0 108 -26.5t72 -81.5q-31 128 -120 241l-195 -34l-5 28l180 30q-47 55 -106 98h53q54 -43 94 -90l121 20l5 -27zM288 29q85 0 135.5 56.5
t50.5 157.5q0 96 -49 153.5t-137 57.5q-86 0 -137 -56t-51 -155q0 -98 50 -156t138 -58z" />
    <glyph glyph-name="ntilde" unicode="&#xf1;" 
d="M260 732q-39 0 -44 -65h-37q2 47 23.5 73.5t57.5 26.5q16 0 31 -7t21 -12.5t20 -19.5q29 -31 48 -31q18 0 30 17t15 48h37q-3 -47 -24 -73.5t-57 -26.5q-16 0 -30.5 6.5t-21.5 13t-18 19.5q-29 31 -51 31zM330 581q94 0 149 -57t55 -156v-368h-45v361q0 83 -45 130.5
t-124 47.5q-80 0 -127.5 -63t-47.5 -157v-319h-45v569h34l10 -137q21 72 69.5 110.5t116.5 38.5z" />
    <glyph glyph-name="ograve" unicode="&#xf2;" horiz-adv-x="595" 
d="M180 810h51l88 -163h-43zM297 -12q-109 0 -176 81.5t-67 214.5t67 215t176 82t176 -82t67 -215t-67 -214.5t-176 -81.5zM297 29q88 0 142.5 69.5t54.5 185.5t-54.5 185.5t-142.5 69.5q-87 0 -142 -69.5t-55 -185.5t55 -185.5t142 -69.5z" />
    <glyph glyph-name="oacute" unicode="&#xf3;" horiz-adv-x="595" 
d="M404 810l-96 -163h-43l88 163h51zM297 -12q-109 0 -176 81.5t-67 214.5t67 215t176 82t176 -82t67 -215t-67 -214.5t-176 -81.5zM297 29q88 0 142.5 69.5t54.5 185.5t-54.5 185.5t-142.5 69.5q-87 0 -142 -69.5t-55 -185.5t55 -185.5t142 -69.5z" />
    <glyph glyph-name="ocircumflex" unicode="&#xf4;" horiz-adv-x="595" 
d="M180 647l89 163h56l89 -163h-37l-80 135l-79 -135h-38zM297 -12q-109 0 -176 81.5t-67 214.5t67 215t176 82t176 -82t67 -215t-67 -214.5t-176 -81.5zM297 29q88 0 142.5 69.5t54.5 185.5t-54.5 185.5t-142.5 69.5q-87 0 -142 -69.5t-55 -185.5t55 -185.5t142 -69.5z" />
    <glyph glyph-name="otilde" unicode="&#xf5;" horiz-adv-x="595" 
d="M439 762q-3 -47 -24 -73.5t-57 -26.5q-16 0 -30.5 6.5t-21.5 13t-18 19.5q-29 31 -51 31q-39 0 -44 -65h-37q2 47 23.5 73.5t57.5 26.5q16 0 31 -7t21 -12.5t20 -19.5q29 -31 48 -31q18 0 30 17t15 48h37zM297 -12q-109 0 -176 81.5t-67 214.5t67 215t176 82t176 -82
t67 -215t-67 -214.5t-176 -81.5zM297 29q88 0 142.5 69.5t54.5 185.5t-54.5 185.5t-142.5 69.5q-87 0 -142 -69.5t-55 -185.5t55 -185.5t142 -69.5z" />
    <glyph glyph-name="odieresis" unicode="&#xf6;" horiz-adv-x="595" 
d="M227 671q-17 0 -28 10t-11 28q0 17 11 27t28 10t27.5 -10t10.5 -27q0 -18 -10.5 -28t-27.5 -10zM369 671q-17 0 -27.5 10t-10.5 28q0 17 10.5 27t27.5 10t28 -10t11 -27q0 -18 -10.5 -28t-28.5 -10zM297 -12q-109 0 -176 81.5t-67 214.5t67 215t176 82t176 -82t67 -215
t-67 -214.5t-176 -81.5zM297 29q88 0 142.5 69.5t54.5 185.5t-54.5 185.5t-142.5 69.5q-87 0 -142 -69.5t-55 -185.5t55 -185.5t142 -69.5z" />
    <glyph glyph-name="divide" unicode="&#xf7;" horiz-adv-x="503" 
d="M282 564v-72h-61v72h61zM464 394v-40h-426v40h426zM282 256v-72h-61v72h61z" />
    <glyph glyph-name="oslash" unicode="&#xf8;" horiz-adv-x="595" 
d="M444 529q96 -83 96 -245q0 -133 -67 -214.5t-176 -81.5q-67 0 -120 32l-36 -69l-29 15l39 73q-97 81 -97 245q0 133 67 215t176 82q66 0 121 -33l37 70l28 -15zM100 284q0 -135 72 -205l226 430q-46 30 -101 30q-87 0 -142 -69.5t-55 -185.5zM297 29q88 0 142.5 69.5
t54.5 185.5q0 133 -71 204l-226 -430q44 -29 100 -29z" />
    <glyph glyph-name="ugrave" unicode="&#xf9;" 
d="M330 647h-43l-96 163h51zM480 569h45v-569h-35l-10 138q-21 -72 -69 -111t-116 -39q-94 0 -149 57t-55 156v368h45v-361q0 -83 45 -131t123 -48q81 0 128.5 63.5t47.5 157.5v319z" />
    <glyph glyph-name="uacute" unicode="&#xfa;" 
d="M416 810l-96 -163h-43l88 163h51zM480 569h45v-569h-35l-10 138q-21 -72 -69 -111t-116 -39q-94 0 -149 57t-55 156v368h45v-361q0 -83 45 -131t123 -48q81 0 128.5 63.5t47.5 157.5v319z" />
    <glyph glyph-name="ucircumflex" unicode="&#xfb;" 
d="M309 782l-79 -135h-38l89 163h56l89 -163h-37zM480 569h45v-569h-35l-10 138q-21 -72 -69 -111t-116 -39q-94 0 -149 57t-55 156v368h45v-361q0 -83 45 -131t123 -48q81 0 128.5 63.5t47.5 157.5v319z" />
    <glyph glyph-name="udieresis" unicode="&#xfc;" 
d="M239 671q-17 0 -28 10t-11 28q0 17 11 27t28 10t27.5 -10t10.5 -27q0 -18 -10.5 -28t-27.5 -10zM381 671q-17 0 -27.5 10t-10.5 28q0 17 10.5 27t27.5 10t28 -10t11 -27q0 -18 -10.5 -28t-28.5 -10zM480 569h45v-569h-35l-10 138q-21 -72 -69 -111t-116 -39
q-94 0 -149 57t-55 156v368h45v-361q0 -83 45 -131t123 -48q81 0 128.5 63.5t47.5 157.5v319z" />
    <glyph glyph-name="yacute" unicode="&#xfd;" horiz-adv-x="533" 
d="M372 810l-96 -163h-43l88 163h51zM461 569h47l-290 -747h-48l73 187l-218 560h48l194 -498z" />
    <glyph glyph-name="thorn" unicode="&#xfe;" horiz-adv-x="638" 
d="M344 581q106 0 172.5 -81.5t66.5 -215.5t-67 -215t-172 -81q-70 0 -124.5 44t-74.5 118v-328h-45v926h45v-329q20 75 74 118.5t125 43.5zM338 29q89 0 144.5 70t55.5 185q0 116 -55.5 185.5t-144.5 69.5q-85 0 -139 -70t-54 -185t54 -185t139 -70z" />
    <glyph glyph-name="ydieresis" unicode="&#xff;" horiz-adv-x="533" 
d="M195 671q-17 0 -28 10t-11 28q0 17 11 27t28 10t27.5 -10t10.5 -27q0 -18 -10.5 -28t-27.5 -10zM337 671q-17 0 -27.5 10t-10.5 28q0 17 10.5 27t27.5 10t28 -10t11 -27q0 -18 -10.5 -28t-28.5 -10zM461 569h47l-290 -747h-48l73 187l-218 560h48l194 -498z" />
    <glyph glyph-name="Amacron" unicode="&#x100;" horiz-adv-x="738" 
d="M490 885v-34h-228v34h228zM661 0l-83 196h-419l-83 -196h-51l318 748h52l318 -748h-52zM177 238h383l-191 453z" />
    <glyph glyph-name="amacron" unicode="&#x101;" horiz-adv-x="589" 
d="M397 706v-34h-228v34h228zM278 581q99 0 159.5 -54.5t60.5 -146.5v-380h-36l-8 131q-20 -69 -70 -106t-116 -37q-82 0 -133.5 47.5t-51.5 123.5q0 98 69 150t200 52h101v19q0 75 -47.5 118t-127.5 43q-60 0 -113.5 -35.5t-71.5 -93.5l-42 9q20 72 86 116t141 44zM276 27
q80 0 128.5 63.5t48.5 170.5v61h-102q-109 0 -165.5 -41t-56.5 -119q0 -60 40.5 -97.5t106.5 -37.5z" />
    <glyph glyph-name="Abreve" unicode="&#x102;" horiz-adv-x="738" 
d="M376 825q-111 0 -113 164h35q0 -134 78 -134q77 0 77 134h35q-2 -164 -112 -164zM661 0l-83 196h-419l-83 -196h-51l318 748h52l318 -748h-52zM177 238h383l-191 453z" />
    <glyph glyph-name="abreve" unicode="&#x103;" horiz-adv-x="589" 
d="M283 646q-111 0 -113 164h35q0 -134 78 -134q77 0 77 134h35q-2 -164 -112 -164zM278 581q99 0 159.5 -54.5t60.5 -146.5v-380h-36l-8 131q-20 -69 -70 -106t-116 -37q-82 0 -133.5 47.5t-51.5 123.5q0 98 69 150t200 52h101v19q0 75 -47.5 118t-127.5 43
q-60 0 -113.5 -35.5t-71.5 -93.5l-42 9q20 72 86 116t141 44zM276 27q80 0 128.5 63.5t48.5 170.5v61h-102q-109 0 -165.5 -41t-56.5 -119q0 -60 40.5 -97.5t106.5 -37.5z" />
    <glyph glyph-name="Aogonek" unicode="&#x104;" horiz-adv-x="738" 
d="M647 -160q26 0 52 18l9 -25q-31 -23 -65 -23q-33 0 -53 18.5t-20 50.5q0 33 28 64.5t72 56.5h-9l-83 196h-419l-83 -196h-51l318 748h52l318 -748q-112 -61 -112 -117q0 -21 12.5 -32t33.5 -11zM177 238h383l-191 453z" />
    <glyph glyph-name="aogonek" unicode="&#x105;" horiz-adv-x="589" 
d="M278 581q99 0 159.5 -54.5t60.5 -146.5v-380h-7q-112 -61 -112 -117q0 -21 12.5 -32t33.5 -11q26 0 52 18l9 -25q-31 -23 -65 -23q-33 0 -53 18.5t-20 50.5q0 36 32 69.5t82 58.5l-8 124q-20 -69 -70 -106t-116 -37q-82 0 -133.5 47.5t-51.5 123.5q0 98 69 150t200 52
h101v19q0 75 -47.5 118t-127.5 43q-60 0 -113.5 -35.5t-71.5 -93.5l-42 9q20 72 86 116t141 44zM276 27q80 0 128.5 63.5t48.5 170.5v61h-102q-109 0 -165.5 -41t-56.5 -119q0 -60 40.5 -97.5t106.5 -37.5z" />
    <glyph glyph-name="Cacute" unicode="&#x106;" horiz-adv-x="793" 
d="M529 989l-96 -163h-43l88 163h51zM422 760q105 0 184 -60.5t101 -159.5l-47 -10q-22 84 -87.5 135.5t-152.5 51.5q-134 0 -220.5 -96.5t-86.5 -245.5q0 -150 87 -247t222 -97q93 0 166 60t99 157l46 -6q-27 -113 -113 -183.5t-198 -70.5q-155 0 -256.5 109.5
t-101.5 277.5q0 167 101.5 276t256.5 109z" />
    <glyph glyph-name="cacute" unicode="&#x107;" horiz-adv-x="604" 
d="M420 810l-96 -163h-43l88 163h51zM313 -12q-117 0 -188 81t-71 216t71 215.5t188 80.5q90 0 151 -53.5t73 -137.5l-45 -6q-11 68 -60 111.5t-119 43.5q-97 0 -155 -68.5t-58 -185.5t58 -186.5t155 -69.5q76 0 128 44t64 119l45 -7q-14 -90 -78.5 -143.5t-158.5 -53.5z
" />
    <glyph glyph-name="Ccircumflex" unicode="&#x108;" horiz-adv-x="793" 
d="M304 826l89 163h56l89 -163h-37l-80 135l-79 -135h-38zM422 760q105 0 184 -60.5t101 -159.5l-47 -10q-22 84 -87.5 135.5t-152.5 51.5q-134 0 -220.5 -96.5t-86.5 -245.5q0 -150 87 -247t222 -97q93 0 166 60t99 157l46 -6q-27 -113 -113 -183.5t-198 -70.5
q-155 0 -256.5 109.5t-101.5 277.5q0 167 101.5 276t256.5 109z" />
    <glyph glyph-name="ccircumflex" unicode="&#x109;" horiz-adv-x="604" 
d="M196 647l89 163h56l89 -163h-37l-80 135l-79 -135h-38zM313 -12q-117 0 -188 81t-71 216t71 215.5t188 80.5q90 0 151 -53.5t73 -137.5l-45 -6q-11 68 -60 111.5t-119 43.5q-97 0 -155 -68.5t-58 -185.5t58 -186.5t155 -69.5q76 0 128 44t64 119l45 -7
q-14 -90 -78.5 -143.5t-158.5 -53.5z" />
    <glyph glyph-name="Cdotaccent" unicode="&#x10a;" horiz-adv-x="793" 
d="M421 866q-17 0 -28 10.5t-11 27.5q0 18 11 28t28 10q18 0 28.5 -10t10.5 -28q0 -17 -11 -27.5t-28 -10.5zM422 760q105 0 184 -60.5t101 -159.5l-47 -10q-22 84 -87.5 135.5t-152.5 51.5q-134 0 -220.5 -96.5t-86.5 -245.5q0 -150 87 -247t222 -97q93 0 166 60t99 157
l46 -6q-27 -113 -113 -183.5t-198 -70.5q-155 0 -256.5 109.5t-101.5 277.5q0 167 101.5 276t256.5 109z" />
    <glyph glyph-name="cdotaccent" unicode="&#x10b;" horiz-adv-x="604" 
d="M313 687q-17 0 -28 10.5t-11 27.5q0 18 11 28t28 10q18 0 28.5 -10t10.5 -28q0 -17 -11 -27.5t-28 -10.5zM313 -12q-117 0 -188 81t-71 216t71 215.5t188 80.5q90 0 151 -53.5t73 -137.5l-45 -6q-11 68 -60 111.5t-119 43.5q-97 0 -155 -68.5t-58 -185.5t58 -186.5
t155 -69.5q76 0 128 44t64 119l45 -7q-14 -90 -78.5 -143.5t-158.5 -53.5z" />
    <glyph glyph-name="Ccaron" unicode="&#x10c;" horiz-adv-x="793" 
d="M393 826l-89 163h38l79 -134l80 134h37l-89 -163h-56zM687 248l46 -6q-27 -113 -113 -183.5t-198 -70.5q-155 0 -256.5 109.5t-101.5 277.5q0 167 101.5 276t256.5 109q105 0 184 -60.5t101 -159.5l-47 -10q-22 84 -87.5 135.5t-152.5 51.5q-134 0 -220.5 -96.5
t-86.5 -245.5q0 -150 87 -247t222 -97q93 0 166 60t99 157z" />
    <glyph glyph-name="ccaron" unicode="&#x10d;" horiz-adv-x="604" 
d="M285 647l-89 163h38l79 -134l80 134h37l-89 -163h-56zM505 192l45 -7q-14 -90 -78.5 -143.5t-158.5 -53.5q-117 0 -188 81t-71 216t71 215.5t188 80.5q90 0 151 -53.5t73 -137.5l-45 -6q-11 68 -60 111.5t-119 43.5q-97 0 -155 -68.5t-58 -185.5t58 -186.5t155 -69.5
q76 0 128 44t64 119z" />
    <glyph glyph-name="Dcaron" unicode="&#x10e;" horiz-adv-x="770" 
d="M323 826l-89 163h38l79 -134l80 134h37l-89 -163h-56zM335 748q169 0 270 -103t101 -270q0 -168 -101 -271.5t-270 -103.5h-225v748h225zM335 41q149 0 236 92t87 242t-87 241t-236 91h-177v-666h177z" />
    <glyph glyph-name="dcaron" unicode="&#x10f;" horiz-adv-x="638" 
d="M635 809h42l-30 -172h-31zM493 419v329h45v-748h-37l-8 148v2q-20 -74 -74.5 -118t-124.5 -44q-105 0 -172.5 81.5t-67.5 214.5q0 134 67 215.5t173 81.5q70 0 124.5 -44t74.5 -118zM300 29q85 0 139 70t54 185t-54 185.5t-139 70.5q-90 0 -145 -70t-55 -186t55 -185.5
t145 -69.5z" />
    <glyph glyph-name="Dcroat" unicode="&#x110;" horiz-adv-x="798" 
d="M362 748q169 0 270 -103t101 -270q0 -168 -101 -271.5t-270 -103.5h-225v367h-93v37h93v344h225zM362 41q149 0 235.5 92t86.5 242q0 151 -86.5 241.5t-235.5 90.5h-177v-303h225v-37h-225v-326h177z" />
    <glyph glyph-name="dcroat" unicode="&#x111;" horiz-adv-x="655" 
d="M623 668v-29h-85v-639h-37l-8 148v2q-20 -74 -74.5 -118t-124.5 -44q-105 0 -172.5 81.5t-67.5 214.5q0 134 67 215.5t173 81.5q70 0 124.5 -44t74.5 -118v220h-181v29h181v80h45v-80h85zM300 29q85 0 139 70t54 185t-54 185.5t-139 70.5q-90 0 -145 -70t-55 -186
t55 -185.5t145 -69.5z" />
    <glyph glyph-name="Emacron" unicode="&#x112;" horiz-adv-x="621" 
d="M218 851v34h228v-34h-228zM538 748v-42h-380v-298h374v-42h-374v-324h380v-42h-428v748h428z" />
    <glyph glyph-name="emacron" unicode="&#x113;" horiz-adv-x="606" 
d="M423 706v-34h-228v34h228zM508 187l43 -8q-14 -88 -78 -139.5t-156 -51.5q-117 0 -190 82.5t-73 214.5q0 131 72.5 213.5t183.5 82.5q107 0 169.5 -72.5t56.5 -190.5h-435q-1 -9 -1 -28v-7q0 -113 60 -183.5t157 -70.5q75 0 126.5 42.5t64.5 115.5zM311 540
q-76 0 -132 -49.5t-73 -134.5h385q-5 82 -54 133t-126 51z" />
    <glyph glyph-name="Ebreve" unicode="&#x114;" horiz-adv-x="621" 
d="M444 989q-2 -164 -112 -164q-111 0 -113 164h35q0 -134 78 -134q77 0 77 134h35zM538 748v-42h-380v-298h374v-42h-374v-324h380v-42h-428v748h428z" />
    <glyph glyph-name="ebreve" unicode="&#x115;" horiz-adv-x="606" 
d="M309 646q-111 0 -113 164h35q0 -134 78 -134q77 0 77 134h35q-2 -164 -112 -164zM508 187l43 -8q-14 -88 -78 -139.5t-156 -51.5q-117 0 -190 82.5t-73 214.5q0 131 72.5 213.5t183.5 82.5q107 0 169.5 -72.5t56.5 -190.5h-435q-1 -9 -1 -28v-7q0 -113 60 -183.5
t157 -70.5q75 0 126.5 42.5t64.5 115.5zM311 540q-76 0 -132 -49.5t-73 -134.5h385q-5 82 -54 133t-126 51z" />
    <glyph glyph-name="Edotaccent" unicode="&#x116;" horiz-adv-x="621" 
d="M331 866q-17 0 -28 10.5t-11 27.5q0 18 11 28t28 10q18 0 28.5 -10t10.5 -28q0 -17 -11 -27.5t-28 -10.5zM538 748v-42h-380v-298h374v-42h-374v-324h380v-42h-428v748h428z" />
    <glyph glyph-name="edotaccent" unicode="&#x117;" horiz-adv-x="606" 
d="M308 687q-17 0 -28 10.5t-11 27.5q0 18 11 28t28 10q18 0 28.5 -10t10.5 -28q0 -17 -11 -27.5t-28 -10.5zM508 187l43 -8q-14 -88 -78 -139.5t-156 -51.5q-117 0 -190 82.5t-73 214.5q0 131 72.5 213.5t183.5 82.5q107 0 169.5 -72.5t56.5 -190.5h-435q-1 -9 -1 -28v-7
q0 -113 60 -183.5t157 -70.5q75 0 126.5 42.5t64.5 115.5zM311 540q-76 0 -132 -49.5t-73 -134.5h385q-5 82 -54 133t-126 51z" />
    <glyph glyph-name="Eogonek" unicode="&#x118;" horiz-adv-x="621" 
d="M538 706h-380v-298h374v-42h-374v-324h380v-42h-82q-112 -61 -112 -117q0 -21 12.5 -32t33.5 -11q26 0 52 18l9 -25q-31 -23 -65 -23q-33 0 -53 18.5t-20 50.5q0 33 28 64.5t72 56.5h-303v748h428v-42z" />
    <glyph glyph-name="eogonek" unicode="&#x119;" horiz-adv-x="606" 
d="M380 -5q-103 -57 -103 -112q0 -21 12.5 -32t33.5 -11q26 0 52 18l9 -25q-31 -23 -65 -23q-33 0 -53 18.5t-20 50.5q0 57 81 109h-10q-117 0 -190 82.5t-73 214.5q0 131 72.5 213.5t183.5 82.5q107 0 169.5 -72.5t56.5 -190.5h-435q-1 -9 -1 -28v-7q0 -113 60 -183.5
t157 -70.5q75 0 126.5 42.5t64.5 115.5l43 -8q-12 -71 -57.5 -119.5t-113.5 -64.5zM311 540q-76 0 -132 -49.5t-73 -134.5h385q-5 82 -54 133t-126 51z" />
    <glyph glyph-name="Ecaron" unicode="&#x11a;" horiz-adv-x="621" 
d="M303 826l-89 163h38l79 -134l80 134h37l-89 -163h-56zM538 706h-380v-298h374v-42h-374v-324h380v-42h-428v748h428v-42z" />
    <glyph glyph-name="ecaron" unicode="&#x11b;" horiz-adv-x="606" 
d="M280 647l-89 163h38l79 -134l80 134h37l-89 -163h-56zM508 187l43 -8q-14 -88 -78 -139.5t-156 -51.5q-117 0 -190 82.5t-73 214.5q0 131 72.5 213.5t183.5 82.5q107 0 169.5 -72.5t56.5 -190.5h-435q-1 -9 -1 -28v-7q0 -113 60 -183.5t157 -70.5q75 0 126.5 42.5
t64.5 115.5zM311 540q-76 0 -132 -49.5t-73 -134.5h385q-5 82 -54 133t-126 51z" />
    <glyph glyph-name="Gcircumflex" unicode="&#x11c;" horiz-adv-x="803" 
d="M413 961l-79 -135h-38l89 163h56l89 -163h-37zM738 327q1 -154 -85 -246.5t-230 -92.5q-156 0 -257.5 109t-101.5 278q0 168 101.5 276.5t256.5 108.5q106 0 185 -60.5t101 -159.5l-47 -10q-21 84 -87 135.5t-154 51.5q-134 0 -220.5 -96.5t-86.5 -245.5t87.5 -246
t222.5 -97q111 0 183.5 68.5t82.5 185.5h-196v41h245z" />
    <glyph glyph-name="gcircumflex" unicode="&#x11d;" horiz-adv-x="580" 
d="M281 782l-79 -135h-38l89 163h56l89 -163h-37zM550 529q-33 0 -47 -26.5t-16 -102.5v-15q0 -84 -58 -139.5t-148 -55.5q-65 0 -117 30q-40 -28 -40 -59q0 -35 31 -55t87 -20h123q172 0 172 -133q0 -74 -56 -108.5t-146 -34.5h-81q-217 0 -217 142q0 43 21.5 72t69.5 52
q-46 29 -46 83q0 49 55 81q-66 56 -66 145q0 85 59 140.5t151 55.5q65 0 114 -29.5t73 -80.5q2 53 21.5 75.5t58.5 22.5h17l7 -40h-22zM281 227q71 0 117 44.5t46 113.5q0 70 -46 114.5t-117 44.5q-73 0 -120 -44.5t-47 -114.5q0 -69 47 -113.5t120 -44.5zM363 50h-121
q-42 0 -77 10q-44 -20 -63.5 -44t-19.5 -62q0 -108 179 -108h72q67 0 113 26t46 82q0 46 -33.5 71t-95.5 25z" />
    <glyph glyph-name="Gbreve" unicode="&#x11e;" horiz-adv-x="803" 
d="M414 825q-111 0 -113 164h35q0 -134 78 -134q77 0 77 134h35q-2 -164 -112 -164zM738 327q1 -154 -85 -246.5t-230 -92.5q-156 0 -257.5 109t-101.5 278q0 168 101.5 276.5t256.5 108.5q106 0 185 -60.5t101 -159.5l-47 -10q-21 84 -87 135.5t-154 51.5
q-134 0 -220.5 -96.5t-86.5 -245.5t87.5 -246t222.5 -97q111 0 183.5 68.5t82.5 185.5h-196v41h245z" />
    <glyph glyph-name="gbreve" unicode="&#x11f;" horiz-adv-x="580" 
d="M281 646q-111 0 -113 164h35q0 -134 78 -134q77 0 77 134h35q-2 -164 -112 -164zM550 529q-33 0 -47 -26.5t-16 -102.5v-15q0 -84 -58 -139.5t-148 -55.5q-65 0 -117 30q-40 -28 -40 -59q0 -35 31 -55t87 -20h123q172 0 172 -133q0 -74 -56 -108.5t-146 -34.5h-81
q-217 0 -217 142q0 43 21.5 72t69.5 52q-46 29 -46 83q0 49 55 81q-66 56 -66 145q0 85 59 140.5t151 55.5q65 0 114 -29.5t73 -80.5q2 53 21.5 75.5t58.5 22.5h17l7 -40h-22zM281 227q71 0 117 44.5t46 113.5q0 70 -46 114.5t-117 44.5q-73 0 -120 -44.5t-47 -114.5
q0 -69 47 -113.5t120 -44.5zM363 50h-121q-42 0 -77 10q-44 -20 -63.5 -44t-19.5 -62q0 -108 179 -108h72q67 0 113 26t46 82q0 46 -33.5 71t-95.5 25z" />
    <glyph glyph-name="Gdotaccent" unicode="&#x120;" horiz-adv-x="803" 
d="M413 866q-17 0 -28 10.5t-11 27.5q0 18 11 28t28 10q18 0 28.5 -10t10.5 -28q0 -17 -11 -27.5t-28 -10.5zM738 327q1 -154 -85 -246.5t-230 -92.5q-156 0 -257.5 109t-101.5 278q0 168 101.5 276.5t256.5 108.5q106 0 185 -60.5t101 -159.5l-47 -10q-21 84 -87 135.5
t-154 51.5q-134 0 -220.5 -96.5t-86.5 -245.5t87.5 -246t222.5 -97q111 0 183.5 68.5t82.5 185.5h-196v41h245z" />
    <glyph glyph-name="gdotaccent" unicode="&#x121;" horiz-adv-x="580" 
d="M280 687q-17 0 -28 10.5t-11 27.5q0 18 11 28t28 10q18 0 28.5 -10t10.5 -28q0 -17 -11 -27.5t-28 -10.5zM550 529q-33 0 -47 -26.5t-16 -102.5v-15q0 -84 -58 -139.5t-148 -55.5q-65 0 -117 30q-40 -28 -40 -59q0 -35 31 -55t87 -20h123q172 0 172 -133
q0 -74 -56 -108.5t-146 -34.5h-81q-217 0 -217 142q0 43 21.5 72t69.5 52q-46 29 -46 83q0 49 55 81q-66 56 -66 145q0 85 59 140.5t151 55.5q65 0 114 -29.5t73 -80.5q2 53 21.5 75.5t58.5 22.5h17l7 -40h-22zM281 227q71 0 117 44.5t46 113.5q0 70 -46 114.5t-117 44.5
q-73 0 -120 -44.5t-47 -114.5q0 -69 47 -113.5t120 -44.5zM363 50h-121q-42 0 -77 10q-44 -20 -63.5 -44t-19.5 -62q0 -108 179 -108h72q67 0 113 26t46 82q0 46 -33.5 71t-95.5 25z" />
    <glyph glyph-name="uni0122" unicode="&#x122;" horiz-adv-x="803" 
d="M738 327q1 -154 -85 -246.5t-230 -92.5q-156 0 -257.5 109t-101.5 278q0 168 101.5 276.5t256.5 108.5q106 0 185 -60.5t101 -159.5l-47 -10q-21 84 -87 135.5t-154 51.5q-134 0 -220.5 -96.5t-86.5 -245.5t87.5 -246t222.5 -97q111 0 183.5 68.5t82.5 185.5h-196v41h245
zM385 -190l16 129h47l-33 -129h-30z" />
    <glyph glyph-name="uni0123" unicode="&#x123;" horiz-adv-x="581" 
d="M330 776l-16 -129h-47l33 129h30zM550 529q-33 0 -47 -26.5t-16 -102.5v-15q0 -84 -58 -139.5t-148 -55.5q-65 0 -117 30q-40 -28 -40 -59q0 -35 31 -55t87 -20h123q172 0 172 -133q0 -74 -56 -108.5t-146 -34.5h-81q-217 0 -217 142q0 43 21.5 72t69.5 52q-46 29 -46 83
q0 49 55 81q-66 56 -66 145q0 85 59 140.5t151 55.5q65 0 114 -29.5t73 -80.5q2 53 21.5 75.5t58.5 22.5h17l7 -40h-22zM281 227q71 0 117 44.5t46 113.5q0 70 -46 114.5t-117 44.5q-73 0 -120 -44.5t-47 -114.5q0 -69 47 -113.5t120 -44.5zM363 50h-121q-42 0 -77 10
q-44 -20 -63.5 -44t-19.5 -62q0 -108 179 -108h72q67 0 113 26t46 82q0 46 -33.5 71t-95.5 25z" />
    <glyph glyph-name="Hcircumflex" unicode="&#x124;" horiz-adv-x="804" 
d="M402 961l-79 -135h-38l89 163h56l89 -163h-37zM646 748h48v-748h-48v366h-488v-366h-48v748h48v-339h488v339z" />
    <glyph glyph-name="hcircumflex" unicode="&#x125;" 
d="M202 826l-80 135l-79 -135h-38l89 163h56l89 -163h-37zM330 581q94 0 149 -57t55 -156v-368h-45v361q0 83 -45 130.5t-124 47.5q-80 0 -127.5 -63t-47.5 -157v-319h-45v748h45v-314q21 71 69.5 109t115.5 38z" />
    <glyph glyph-name="Hbar" unicode="&#x126;" horiz-adv-x="811" 
d="M767 624v-34h-70v-590h-48v366h-488v-366h-47v590h-70v34h70v124h47v-124h488v124h48v-124h70zM649 409v181h-488v-181h488z" />
    <glyph glyph-name="hbar" unicode="&#x127;" horiz-adv-x="605" 
d="M310 581q94 0 149 -57t55 -156v-368h-45v361q0 83 -45 130.5t-124 47.5q-80 0 -127.5 -63t-47.5 -157v-319h-45v639h-86v29h86v80h45v-80h180v-29h-180v-205q21 71 69.5 109t115.5 38z" />
    <glyph glyph-name="Itilde" unicode="&#x128;" horiz-adv-x="268" 
d="M276 941q-3 -47 -24 -73.5t-57 -26.5q-16 0 -30.5 6.5t-21.5 13t-18 19.5q-29 31 -51 31q-39 0 -44 -65h-37q2 47 23.5 73.5t57.5 26.5q16 0 31 -7t21 -12.5t20 -19.5q29 -31 48 -31q18 0 30 17t15 48h37zM158 748v-748h-48v748h48z" />
    <glyph glyph-name="itilde" unicode="&#x129;" horiz-adv-x="245" 
d="M264 762q-3 -47 -24 -73.5t-57 -26.5q-16 0 -30.5 6.5t-21.5 13t-18 19.5q-29 31 -51 31q-39 0 -44 -65h-37q2 47 23.5 73.5t57.5 26.5q16 0 31 -7t21 -12.5t20 -19.5q29 -31 48 -31q18 0 30 17t15 48h37zM145 569v-569h-45v569h45z" />
    <glyph glyph-name="Imacron" unicode="&#x12a;" horiz-adv-x="268" 
d="M20 851v34h228v-34h-228zM158 748v-748h-48v748h48z" />
    <glyph glyph-name="imacron" unicode="&#x12b;" horiz-adv-x="245" 
d="M9 672v34h228v-34h-228zM145 569v-569h-45v569h45z" />
    <glyph glyph-name="Ibreve" unicode="&#x12c;" horiz-adv-x="268" 
d="M247 989q-2 -164 -112 -164q-111 0 -113 164h35q0 -134 78 -134q77 0 77 134h35zM158 748v-748h-48v748h48z" />
    <glyph glyph-name="ibreve" unicode="&#x12d;" horiz-adv-x="245" 
d="M235 810q-2 -164 -112 -164q-111 0 -113 164h35q0 -134 78 -134q77 0 77 134h35zM145 569v-569h-45v569h45z" />
    <glyph glyph-name="Iogonek" unicode="&#x12e;" horiz-adv-x="268" 
d="M110 748h48v-748h-11q-112 -61 -112 -117q0 -21 12.5 -32t33.5 -11q26 0 52 18l9 -25q-31 -23 -65 -23q-33 0 -53 18.5t-20 50.5q0 67 106 124v745z" />
    <glyph glyph-name="iogonek" unicode="&#x12f;" horiz-adv-x="245" 
d="M123 763q18 0 28.5 -10t10.5 -28q0 -17 -11 -27.5t-28 -10.5t-28 10.5t-11 27.5q0 18 11 28t28 10zM100 0v569h45v-569q-112 -61 -112 -117q0 -21 12.5 -32t33.5 -11q26 0 52 18l9 -25q-31 -23 -65 -23q-33 0 -53 18.5t-20 50.5q0 33 28 64.5t72 56.5h-2z" />
    <glyph glyph-name="Idotaccent" unicode="&#x130;" horiz-adv-x="268" 
d="M134 866q-17 0 -28 10.5t-11 27.5q0 18 11 28t28 10q18 0 28.5 -10t10.5 -28q0 -17 -11 -27.5t-28 -10.5zM158 748v-748h-48v748h48z" />
    <glyph glyph-name="dotlessi" unicode="&#x131;" horiz-adv-x="245" 
d="M145 569v-569h-45v569h45z" />
    <glyph glyph-name="IJ" unicode="&#x132;" horiz-adv-x="602" 
d="M158 748v-748h-48v748h48zM369 0h-67l-7 42h70q37 0 60.5 22t23.5 57v627h47v-633q0 -52 -35 -83.5t-92 -31.5z" />
    <glyph glyph-name="ij" unicode="&#x133;" horiz-adv-x="490" 
d="M123 687q-17 0 -28 10.5t-11 27.5q0 18 11 28t28 10q18 0 28.5 -10t10.5 -28q0 -17 -11 -27.5t-28 -10.5zM368 687q-17 0 -28 10.5t-11 27.5q0 18 10.5 28t28.5 10t28.5 -10t10.5 -28q0 -17 -11 -27.5t-28 -10.5zM145 569v-569h-45v569h45zM303 -178h-33l-8 39h39
q19 0 31.5 13t12.5 33v662h45v-665q0 -37 -24 -59.5t-63 -22.5z" />
    <glyph glyph-name="Jcircumflex" unicode="&#x134;" horiz-adv-x="334" 
d="M88 826l89 163h56l89 -163h-37l-80 135l-79 -135h-38zM101 0h-67l-7 42h70q37 0 60.5 22t23.5 57v627h47v-633q0 -52 -35 -83.5t-92 -31.5z" />
    <glyph glyph-name="jcircumflex" unicode="&#x135;" horiz-adv-x="245" 
d="M6 647l89 163h56l89 -163h-37l-80 135l-79 -135h-38zM58 -178h-33l-8 39h39q19 0 31.5 13t12.5 33v662h45v-665q0 -37 -24 -59.5t-63 -22.5z" />
    <glyph glyph-name="uni0136" unicode="&#x136;" horiz-adv-x="671" 
d="M317 454l345 -454h-59l-321 420l-124 -119v-301h-48v748h48v-387l403 387h62zM315 -190l16 129h47l-33 -129h-30z" />
    <glyph glyph-name="uni0137" unicode="&#x137;" horiz-adv-x="567" 
d="M551 569l-263 -207l261 -362h-53l-242 335l-109 -86v-249h-45v748h45v-442l339 263h67zM261 -190l16 129h47l-33 -129h-30z" />
    <glyph glyph-name="kgreenlandic" unicode="&#x138;" horiz-adv-x="567" 
d="M550 569l-263 -221l262 -348h-54l-242 321l-108 -91v-230h-45v569h45v-285l337 285h68z" />
    <glyph glyph-name="Lacute" unicode="&#x139;" horiz-adv-x="564" 
d="M244 989l-96 -163h-43l88 163h51zM158 748v-706h383v-42h-431v748h48z" />
    <glyph glyph-name="lacute" unicode="&#x13a;" horiz-adv-x="245" 
d="M231 989l-96 -163h-43l88 163h51zM145 748v-748h-45v748h45z" />
    <glyph glyph-name="uni013B" unicode="&#x13b;" horiz-adv-x="564" 
d="M158 748v-706h383v-42h-431v748h48zM246 -190l16 129h47l-33 -129h-30z" />
    <glyph glyph-name="uni013C" unicode="&#x13c;" horiz-adv-x="245" 
d="M145 748v-748h-45v748h45zM87 -190l16 129h47l-33 -129h-30z" />
    <glyph glyph-name="Lcaron" unicode="&#x13d;" horiz-adv-x="564" 
d="M328 637l19 172h42l-30 -172h-31zM158 748v-706h383v-42h-431v748h48z" />
    <glyph glyph-name="lcaron" unicode="&#x13e;" horiz-adv-x="245" 
d="M224 637l19 172h42l-30 -172h-31zM145 748v-748h-45v748h45z" />
    <glyph glyph-name="Ldot" unicode="&#x13f;" horiz-adv-x="564" 
d="M158 748v-706h383v-42h-431v748h48zM331 348q-17 0 -28 10.5t-11 27.5q0 18 11 28.5t28 10.5t28 -10.5t11 -28.5q0 -17 -11 -27.5t-28 -10.5z" />
    <glyph glyph-name="ldot" unicode="&#x140;" horiz-adv-x="325" 
d="M145 748v-748h-45v748h45zM267 348q-17 0 -28 10.5t-11 27.5q0 18 11 28.5t28 10.5q18 0 29 -10.5t11 -28.5q0 -17 -11 -27.5t-29 -10.5z" />
    <glyph glyph-name="Lslash" unicode="&#x141;" horiz-adv-x="571" 
d="M166 42h383v-42h-431v354l-124 -47l-1 38l125 48v355h48v-337l192 73v-39l-192 -73v-330z" />
    <glyph glyph-name="lslash" unicode="&#x142;" horiz-adv-x="272" 
d="M236 439v-38l-79 -29v-372h-45v355l-77 -28v37l77 29v355h45v-338z" />
    <glyph glyph-name="Nacute" unicode="&#x143;" horiz-adv-x="755" 
d="M485 989l-96 -163h-43l88 163h51zM597 748h47v-748h-62l-388 624l-36 60v-684h-48v748h63l385 -622l39 -62v684z" />
    <glyph glyph-name="nacute" unicode="&#x144;" 
d="M428 810l-96 -163h-43l88 163h51zM330 581q94 0 149 -57t55 -156v-368h-45v361q0 83 -45 130.5t-124 47.5q-80 0 -127.5 -63t-47.5 -157v-319h-45v569h34l10 -137q21 72 69.5 110.5t116.5 38.5z" />
    <glyph glyph-name="uni0145" unicode="&#x145;" horiz-adv-x="755" 
d="M597 748h47v-748h-62l-388 624l-36 60v-684h-48v748h63l385 -622l39 -62v684zM341 -190l16 129h47l-33 -129h-30z" />
    <glyph glyph-name="uni0146" unicode="&#x146;" 
d="M330 581q94 0 149 -57t55 -156v-368h-45v361q0 83 -45 130.5t-124 47.5q-80 0 -127.5 -63t-47.5 -157v-319h-45v569h34l10 -137q21 72 69.5 110.5t116.5 38.5zM281 -190l16 129h47l-33 -129h-30z" />
    <glyph glyph-name="Ncaron" unicode="&#x147;" horiz-adv-x="755" 
d="M349 826l-89 163h38l79 -134l80 134h37l-89 -163h-56zM597 748h47v-748h-62l-388 624l-36 60v-684h-48v748h63l385 -622l39 -62v684z" />
    <glyph glyph-name="ncaron" unicode="&#x148;" 
d="M292 647l-89 163h38l79 -134l80 134h37l-89 -163h-56zM330 581q94 0 149 -57t55 -156v-368h-45v361q0 83 -45 130.5t-124 47.5q-80 0 -127.5 -63t-47.5 -157v-319h-45v569h34l10 -137q21 72 69.5 110.5t116.5 38.5z" />
    <glyph glyph-name="Eng" unicode="&#x14a;" horiz-adv-x="757" 
d="M523 -178l-8 39h39q20 0 32 13t12 33v83l-439 699v-689h-49v748h65l423 -671v671h48v-844q0 -37 -24.5 -59.5t-63.5 -22.5h-35z" />
    <glyph glyph-name="eng" unicode="&#x14b;" 
d="M330 581q94 0 149 -57t55 -156v-464q0 -37 -24 -59.5t-64 -22.5h-33l-7 39h39q19 0 31.5 13t12.5 33v454q0 83 -45 130.5t-124 47.5q-80 0 -127.5 -63t-47.5 -157v-319h-45v569h34l9 -144q20 75 69 115.5t118 40.5z" />
    <glyph glyph-name="Omacron" unicode="&#x14c;" horiz-adv-x="837" 
d="M305 851v34h228v-34h-228zM419 -12q-155 0 -255 109t-100 277t100 277t255 109q154 0 253.5 -109t99.5 -277t-99.5 -277t-253.5 -109zM419 31q133 0 219 97t86 246t-86 246t-219 97t-219.5 -97t-86.5 -246t86.5 -246t219.5 -97z" />
    <glyph glyph-name="omacron" unicode="&#x14d;" horiz-adv-x="595" 
d="M184 672v34h228v-34h-228zM297 -12q-109 0 -176 81.5t-67 214.5t67 215t176 82t176 -82t67 -215t-67 -214.5t-176 -81.5zM297 29q88 0 142.5 69.5t54.5 185.5t-54.5 185.5t-142.5 69.5q-87 0 -142 -69.5t-55 -185.5t55 -185.5t142 -69.5z" />
    <glyph glyph-name="Obreve" unicode="&#x14e;" horiz-adv-x="837" 
d="M532 989q-2 -164 -112 -164q-111 0 -113 164h35q0 -134 78 -134q77 0 77 134h35zM419 -12q-155 0 -255 109t-100 277t100 277t255 109q154 0 253.5 -109t99.5 -277t-99.5 -277t-253.5 -109zM419 31q133 0 219 97t86 246t-86 246t-219 97t-219.5 -97t-86.5 -246t86.5 -246
t219.5 -97z" />
    <glyph glyph-name="obreve" unicode="&#x14f;" horiz-adv-x="595" 
d="M410 810q-2 -164 -112 -164q-111 0 -113 164h35q0 -134 78 -134q77 0 77 134h35zM297 -12q-109 0 -176 81.5t-67 214.5t67 215t176 82t176 -82t67 -215t-67 -214.5t-176 -81.5zM297 29q88 0 142.5 69.5t54.5 185.5t-54.5 185.5t-142.5 69.5q-87 0 -142 -69.5t-55 -185.5
t55 -185.5t142 -69.5z" />
    <glyph glyph-name="Ohungarumlaut" unicode="&#x150;" horiz-adv-x="837" 
d="M474 989l-96 -163h-43l88 163h51zM583 989l-97 -163h-43l88 163h52zM419 -12q-155 0 -255 109t-100 277t100 277t255 109q154 0 253.5 -109t99.5 -277t-99.5 -277t-253.5 -109zM419 31q133 0 219 97t86 246t-86 246t-219 97t-219.5 -97t-86.5 -246t86.5 -246t219.5 -97z
" />
    <glyph glyph-name="ohungarumlaut" unicode="&#x151;" horiz-adv-x="595" 
d="M352 810l-96 -163h-43l88 163h51zM461 810l-97 -163h-43l88 163h52zM297 -12q-109 0 -176 81.5t-67 214.5t67 215t176 82t176 -82t67 -215t-67 -214.5t-176 -81.5zM297 29q88 0 142.5 69.5t54.5 185.5t-54.5 185.5t-142.5 69.5q-87 0 -142 -69.5t-55 -185.5t55 -185.5
t142 -69.5z" />
    <glyph glyph-name="OE" unicode="&#x152;" horiz-adv-x="1235" 
d="M1151 706h-380v-298h375v-42h-375v-324h380v-42h-427v209q-38 -103 -120 -162t-192 -59q-152 0 -250 108.5t-98 277.5t98 277.5t250 108.5q110 0 192 -59t120 -162v209h427v-42zM419 31q133 0 219 97t86 246t-86 246t-219 97t-219.5 -97t-86.5 -246t86.5 -246t219.5 -97z
" />
    <glyph glyph-name="oe" unicode="&#x153;" horiz-adv-x="1046" 
d="M949 187l43 -8q-15 -88 -79 -139.5t-155 -51.5q-83 0 -146 43.5t-93 120.5q-28 -77 -86 -120.5t-136 -43.5q-109 0 -176 81.5t-67 214.5t67 215t176 82q78 0 136 -43.5t86 -120.5q29 76 90.5 120t140.5 44q107 0 170 -72.5t57 -190.5h-435q-1 -9 -1 -28v-7
q0 -113 60 -183.5t157 -70.5q75 0 126.5 42.5t64.5 115.5zM752 540q-76 0 -132 -49.5t-73 -134.5h385q-5 82 -54 133t-126 51zM297 29q88 0 142.5 69.5t54.5 185.5t-54.5 185.5t-142.5 69.5q-87 0 -142 -69.5t-55 -185.5t55 -185.5t142 -69.5z" />
    <glyph glyph-name="Racute" unicode="&#x154;" horiz-adv-x="715" 
d="M450 989l-96 -163h-43l88 163h51zM499 369q57 -13 87 -53.5t30 -97.5v-218h-48v210q0 63 -39.5 99t-112.5 36h-258v-345h-48v748h259q125 0 194 -53t69 -148q0 -66 -34 -113t-99 -65zM368 388q103 0 159 41t56 118t-56 118t-159 41h-210v-318h210z" />
    <glyph glyph-name="racute" unicode="&#x155;" horiz-adv-x="389" 
d="M336 810l-96 -163h-43l88 163h51zM359 569l7 -41h-100q-121 0 -121 -187v-341h-45v569h34l8 -106q12 50 43.5 78t79.5 28h94z" />
    <glyph glyph-name="uni0156" unicode="&#x156;" horiz-adv-x="715" 
d="M499 369q57 -13 87 -53.5t30 -97.5v-218h-48v210q0 63 -39.5 99t-112.5 36h-258v-345h-48v748h259q125 0 194 -53t69 -148q0 -66 -34 -113t-99 -65zM368 388q103 0 159 41t56 118t-56 118t-159 41h-210v-318h210zM320 -190l16 129h47l-33 -129h-30z" />
    <glyph glyph-name="uni0157" unicode="&#x157;" horiz-adv-x="389" 
d="M359 569l7 -41h-100q-121 0 -121 -187v-341h-45v569h34l8 -106q12 50 43.5 78t79.5 28h94zM87 -190l16 129h47l-33 -129h-30z" />
    <glyph glyph-name="Rcaron" unicode="&#x158;" horiz-adv-x="715" 
d="M315 826l-89 163h38l79 -134l80 134h37l-89 -163h-56zM499 369q57 -13 87 -53.5t30 -97.5v-218h-48v210q0 63 -39.5 99t-112.5 36h-258v-345h-48v748h259q125 0 194 -53t69 -148q0 -66 -34 -113t-99 -65zM368 388q103 0 159 41t56 118t-56 118t-159 41h-210v-318h210z
" />
    <glyph glyph-name="rcaron" unicode="&#x159;" horiz-adv-x="389" 
d="M200 647l-89 163h38l79 -134l80 134h37l-89 -163h-56zM359 569l7 -41h-100q-121 0 -121 -187v-341h-45v569h34l8 -106q12 50 43.5 78t79.5 28h94z" />
    <glyph glyph-name="Sacute" unicode="&#x15a;" horiz-adv-x="659" 
d="M439 989l-96 -163h-43l88 163h51zM348 -12q-112 0 -193.5 68.5t-101.5 179.5l47 8q18 -96 86.5 -154.5t163.5 -58.5q90 0 147.5 46t57.5 117q0 49 -26.5 82.5t-69 51t-93.5 31t-102 28.5t-93.5 35.5t-69 58.5t-26.5 93q0 85 69.5 135.5t187.5 50.5q101 0 174.5 -57
t94.5 -150l-47 -7q-20 79 -80.5 125.5t-144.5 46.5q-95 0 -150.5 -38.5t-55.5 -103.5q0 -45 26.5 -76t69 -47.5t93.5 -29.5t102 -28.5t93.5 -37t69 -62t26.5 -98.5q0 -93 -70.5 -151t-184.5 -58z" />
    <glyph glyph-name="sacute" unicode="&#x15b;" horiz-adv-x="520" 
d="M361 810l-96 -163h-43l88 163h51zM274 -12q-84 0 -148.5 53.5t-81.5 139.5l44 8q16 -74 69.5 -118.5t118.5 -44.5q67 0 108.5 32t41.5 84q0 55 -37.5 85.5t-91.5 42.5l-107.5 25t-91 46.5t-37.5 93.5q0 65 54 105.5t139 40.5q83 0 145 -45.5t75 -117.5l-44 -8
q-13 59 -62 96t-115 37q-65 0 -105.5 -29t-40.5 -76q0 -48 37.5 -74t91 -37.5t107.5 -25.5t91.5 -52t37.5 -104q0 -70 -55 -113.5t-143 -43.5z" />
    <glyph glyph-name="Scircumflex" unicode="&#x15c;" horiz-adv-x="659" 
d="M215 826l89 163h56l89 -163h-37l-80 135l-79 -135h-38zM348 -12q-112 0 -193.5 68.5t-101.5 179.5l47 8q18 -96 86.5 -154.5t163.5 -58.5q90 0 147.5 46t57.5 117q0 49 -26.5 82.5t-69 51t-93.5 31t-102 28.5t-93.5 35.5t-69 58.5t-26.5 93q0 85 69.5 135.5t187.5 50.5
q101 0 174.5 -57t94.5 -150l-47 -7q-20 79 -80.5 125.5t-144.5 46.5q-95 0 -150.5 -38.5t-55.5 -103.5q0 -45 26.5 -76t69 -47.5t93.5 -29.5t102 -28.5t93.5 -37t69 -62t26.5 -98.5q0 -93 -70.5 -151t-184.5 -58z" />
    <glyph glyph-name="scircumflex" unicode="&#x15d;" horiz-adv-x="520" 
d="M137 647l89 163h56l89 -163h-37l-80 135l-79 -135h-38zM274 -12q-84 0 -148.5 53.5t-81.5 139.5l44 8q16 -74 69.5 -118.5t118.5 -44.5q67 0 108.5 32t41.5 84q0 55 -37.5 85.5t-91.5 42.5l-107.5 25t-91 46.5t-37.5 93.5q0 65 54 105.5t139 40.5q83 0 145 -45.5
t75 -117.5l-44 -8q-13 59 -62 96t-115 37q-65 0 -105.5 -29t-40.5 -76q0 -48 37.5 -74t91 -37.5t107.5 -25.5t91.5 -52t37.5 -104q0 -70 -55 -113.5t-143 -43.5z" />
    <glyph glyph-name="Scedilla" unicode="&#x15e;" horiz-adv-x="659" 
d="M348 -12h-7l-15 -55q42 3 67.5 -15t25.5 -48q0 -31 -25.5 -49t-65.5 -18q-49 0 -80 29l12 21q29 -24 66 -24q25 0 42.5 11t17.5 29q0 22 -22.5 32.5t-59.5 5.5l-11 15l18 68q-99 11 -169 77.5t-89 168.5l47 8q18 -96 86.5 -154.5t163.5 -58.5q90 0 147.5 46t57.5 117
q0 49 -26.5 82.5t-69 51t-93.5 31t-102 28.5t-93.5 35.5t-69 58.5t-26.5 93q0 85 69.5 135.5t187.5 50.5q101 0 174.5 -57t94.5 -150l-47 -7q-20 79 -80.5 125.5t-144.5 46.5q-95 0 -150.5 -38.5t-55.5 -103.5q0 -45 26.5 -76t69 -47.5t93.5 -29.5t102 -28.5t93.5 -37
t69 -62t26.5 -98.5q0 -93 -70.5 -151t-184.5 -58z" />
    <glyph glyph-name="scedilla" unicode="&#x15f;" horiz-adv-x="520" 
d="M107 438q0 -48 37.5 -74t91 -37.5t107.5 -25.5t91.5 -52t37.5 -104q0 -68 -52.5 -111.5t-136.5 -45.5l-15 -55q42 3 67.5 -15t25.5 -48q0 -31 -25.5 -49t-65.5 -18q-49 0 -80 29l12 21q29 -24 66 -24q25 0 42.5 11t17.5 29q0 22 -22.5 32.5t-59.5 5.5l-11 15l18 67
q-77 7 -135 59t-74 133l44 8q16 -74 69.5 -118.5t118.5 -44.5q67 0 108.5 32t41.5 84q0 55 -37.5 85.5t-91.5 42.5l-107.5 25t-91 46.5t-37.5 93.5q0 65 54 105.5t139 40.5q83 0 145 -45.5t75 -117.5l-44 -8q-13 59 -62 96t-115 37q-65 0 -105.5 -29t-40.5 -76z" />
    <glyph glyph-name="Scaron" unicode="&#x160;" horiz-adv-x="659" 
d="M304 826l-89 163h38l79 -134l80 134h37l-89 -163h-56zM123 576q0 -45 26.5 -76t69 -47.5t93.5 -29.5t102 -28.5t93.5 -37t69 -62t26.5 -98.5q0 -93 -70.5 -151t-184.5 -58q-112 0 -193.5 68.5t-101.5 179.5l47 8q18 -96 86.5 -154.5t163.5 -58.5q90 0 147.5 46t57.5 117
q0 49 -26.5 82.5t-69 51t-93.5 31t-102 28.5t-93.5 35.5t-69 58.5t-26.5 93q0 85 69.5 135.5t187.5 50.5q101 0 174.5 -57t94.5 -150l-47 -7q-20 79 -80.5 125.5t-144.5 46.5q-95 0 -150.5 -38.5t-55.5 -103.5z" />
    <glyph glyph-name="scaron" unicode="&#x161;" horiz-adv-x="520" 
d="M226 647l-89 163h38l79 -134l80 134h37l-89 -163h-56zM107 438q0 -48 37.5 -74t91 -37.5t107.5 -25.5t91.5 -52t37.5 -104q0 -70 -55 -113.5t-143 -43.5q-84 0 -148.5 53.5t-81.5 139.5l44 8q16 -74 69.5 -118.5t118.5 -44.5q67 0 108.5 32t41.5 84q0 55 -37.5 85.5
t-91.5 42.5l-107.5 25t-91 46.5t-37.5 93.5q0 65 54 105.5t139 40.5q83 0 145 -45.5t75 -117.5l-44 -8q-13 59 -62 96t-115 37q-65 0 -105.5 -29t-40.5 -76z" />
    <glyph glyph-name="uni0162" unicode="&#x162;" horiz-adv-x="621" 
d="M335 0h-19l-18 -67q42 3 67.5 -15t25.5 -48q0 -31 -25.5 -49t-64.5 -18q-50 0 -81 29l12 21q29 -24 66 -24q25 0 42.5 11t17.5 29q0 22 -22.5 32.5t-58.5 5.5l-12 15l22 82v702h-260v42h568v-42h-260v-706z" />
    <glyph glyph-name="uni0163" unicode="&#x163;" horiz-adv-x="327" 
d="M217 -67q42 3 67.5 -15t25.5 -48q0 -31 -25.5 -49t-65.5 -18q-49 0 -80 29l12 21q29 -24 66 -24q25 0 42.5 11t17.5 29q0 22 -22.5 32.5t-59.5 5.5l-11 15l21 78q-39 2 -62 26.5t-23 64.5v437h-102v41h102v159l45 31v-190h132v-41h-132v-433q0 -25 14.5 -40t39.5 -15h86
l-8 -40h-62z" />
    <glyph glyph-name="Tcaron" unicode="&#x164;" horiz-adv-x="621" 
d="M283 826l-89 163h38l79 -134l80 134h37l-89 -163h-56zM27 748h568v-42h-260v-706h-48v706h-260v42z" />
    <glyph glyph-name="tcaron" unicode="&#x165;" horiz-adv-x="327" 
d="M321 809l-30 -172h-31l19 172h42zM165 95q0 -25 14.5 -40t39.5 -15h86l-8 -40h-86q-41 0 -66 25t-25 66v437h-102v41h102v159l45 31v-190h132v-41h-132v-433z" />
    <glyph glyph-name="Tbar" unicode="&#x166;" horiz-adv-x="621" 
d="M595 706h-260v-284h180v-36h-180v-386h-48v386h-187v36h187v284h-260v42h568v-42z" />
    <glyph glyph-name="tbar" unicode="&#x167;" horiz-adv-x="329" 
d="M219 40h87l-8 -40h-87q-41 0 -66 25t-25 66v290h-102v36h102v111h-102v41h102v159l45 31v-190h133v-41h-133v-111h133v-36h-133v-286q0 -25 15 -40t39 -15z" />
    <glyph glyph-name="Utilde" unicode="&#x168;" horiz-adv-x="769" 
d="M526 941q-3 -47 -24 -73.5t-57 -26.5q-16 0 -30.5 6.5t-21.5 13t-18 19.5q-29 31 -51 31q-39 0 -44 -65h-37q2 47 23.5 73.5t57.5 26.5q16 0 31 -7t21 -12.5t20 -19.5q29 -31 48 -31q18 0 30 17t15 48h37zM352 0q-119 0 -183 69t-64 193v486h48v-486q0 -106 52.5 -163
t152.5 -57h53q100 0 152.5 57t52.5 163v486h48v-486q0 -124 -64 -193t-183 -69h-65z" />
    <glyph glyph-name="utilde" unicode="&#x169;" 
d="M249 732q-39 0 -44 -65h-37q2 47 23.5 73.5t57.5 26.5q16 0 31 -7t21 -12.5t20 -19.5q29 -31 48 -31q18 0 30 17t15 48h37q-3 -47 -24 -73.5t-57 -26.5q-16 0 -30.5 6.5t-21.5 13t-18 19.5q-29 31 -51 31zM480 569h45v-569h-35l-10 138q-21 -72 -69 -111t-116 -39
q-94 0 -149 57t-55 156v368h45v-361q0 -83 45 -131t123 -48q81 0 128.5 63.5t47.5 157.5v319z" />
    <glyph glyph-name="Umacron" unicode="&#x16a;" horiz-adv-x="769" 
d="M271 851v34h228v-34h-228zM352 0q-119 0 -183 69t-64 193v486h48v-486q0 -106 52.5 -163t152.5 -57h53q100 0 152.5 57t52.5 163v486h48v-486q0 -124 -64 -193t-183 -69h-65z" />
    <glyph glyph-name="umacron" unicode="&#x16b;" 
d="M423 706v-34h-228v34h228zM480 569h45v-569h-35l-10 138q-21 -72 -69 -111t-116 -39q-94 0 -149 57t-55 156v368h45v-361q0 -83 45 -131t123 -48q81 0 128.5 63.5t47.5 157.5v319z" />
    <glyph glyph-name="Ubreve" unicode="&#x16c;" horiz-adv-x="769" 
d="M497 989q-2 -164 -112 -164q-111 0 -113 164h35q0 -134 78 -134q77 0 77 134h35zM352 0q-119 0 -183 69t-64 193v486h48v-486q0 -106 52.5 -163t152.5 -57h53q100 0 152.5 57t52.5 163v486h48v-486q0 -124 -64 -193t-183 -69h-65z" />
    <glyph glyph-name="ubreve" unicode="&#x16d;" 
d="M309 646q-111 0 -113 164h35q0 -134 78 -134q77 0 77 134h35q-2 -164 -112 -164zM480 569h45v-569h-35l-10 138q-21 -72 -69 -111t-116 -39q-94 0 -149 57t-55 156v368h45v-361q0 -83 45 -131t123 -48q81 0 128.5 63.5t47.5 157.5v319z" />
    <glyph glyph-name="Uring" unicode="&#x16e;" horiz-adv-x="769" 
d="M384 821q-39 0 -64.5 24.5t-25.5 62.5q0 37 25.5 61.5t64.5 24.5t64 -24t25 -62t-25 -62.5t-64 -24.5zM384 848q25 0 42 17t17 43t-16.5 42.5t-42.5 16.5t-43 -17t-17 -42q0 -26 17 -43t43 -17zM352 0q-119 0 -183 69t-64 193v486h48v-486q0 -106 52.5 -163t152.5 -57h53
q100 0 152.5 57t52.5 163v486h48v-486q0 -124 -64 -193t-183 -69h-65z" />
    <glyph glyph-name="uring" unicode="&#x16f;" 
d="M309 642q-39 0 -64.5 24.5t-25.5 62.5q0 37 25.5 61.5t64.5 24.5t64 -24t25 -62t-25 -62.5t-64 -24.5zM309 788q-26 0 -43 -17t-17 -42t17.5 -42.5t42.5 -17.5t42 17t17 43q0 25 -17 42t-42 17zM480 569h45v-569h-35l-10 138q-21 -72 -69 -111t-116 -39q-94 0 -149 57
t-55 156v368h45v-361q0 -83 45 -131t123 -48q81 0 128.5 63.5t47.5 157.5v319z" />
    <glyph glyph-name="Uhungarumlaut" unicode="&#x170;" horiz-adv-x="769" 
d="M440 989l-96 -163h-43l88 163h51zM549 989l-97 -163h-43l88 163h52zM352 0q-119 0 -183 69t-64 193v486h48v-486q0 -106 52.5 -163t152.5 -57h53q100 0 152.5 57t52.5 163v486h48v-486q0 -124 -64 -193t-183 -69h-65z" />
    <glyph glyph-name="uhungarumlaut" unicode="&#x171;" 
d="M364 810l-96 -163h-43l88 163h51zM376 647h-43l88 163h52zM480 569h45v-569h-35l-10 138q-21 -72 -69 -111t-116 -39q-94 0 -149 57t-55 156v368h45v-361q0 -83 45 -131t123 -48q81 0 128.5 63.5t47.5 157.5v319z" />
    <glyph glyph-name="Uogonek" unicode="&#x172;" horiz-adv-x="769" 
d="M616 748h48v-486q0 -105 -47 -171.5t-135 -84.5q-105 -59 -105 -113q0 -21 12.5 -32t33.5 -11q26 0 52 18l9 -25q-31 -23 -65 -23q-33 0 -53 18.5t-20 50.5q0 59 84 111h-13h-65q-119 0 -183 69t-64 193v486h48v-486q0 -106 52.5 -163t152.5 -57h53q100 0 152.5 57
t52.5 163v486z" />
    <glyph glyph-name="uogonek" unicode="&#x173;" 
d="M525 0q-112 -61 -112 -117q0 -21 12.5 -32t33.5 -11q26 0 52 18l9 -25q-31 -23 -65 -23q-33 0 -53 18.5t-20 50.5q0 34 30 67t78 58l-10 134q-21 -72 -69 -111t-116 -39q-94 0 -149 57t-55 156v368h45v-361q0 -83 45 -131t123 -48q81 0 128.5 63.5t47.5 157.5v319h45
v-569z" />
    <glyph glyph-name="Wcircumflex" unicode="&#x174;" horiz-adv-x="1058" 
d="M413 826l89 163h56l89 -163h-37l-80 135l-79 -135h-38zM1029 748l-233 -748h-57l-210 683l-210 -683h-57l-233 748h50l212 -688l210 688h57l210 -688l212 688h49z" />
    <glyph glyph-name="wcircumflex" unicode="&#x175;" horiz-adv-x="876" 
d="M321 646l89 163h56l89 -163h-37l-80 135l-79 -135h-38zM219 0l-190 569h47l173 -525l162 525h54l163 -525l173 525h46l-190 -569h-58l-161 512l-161 -512h-58z" />
    <glyph glyph-name="Ycircumflex" unicode="&#x176;" horiz-adv-x="593" 
d="M179 826l89 163h56l89 -163h-37l-80 135l-79 -135h-38zM576 748l-258 -445v-303h-48v303l-253 445h54l224 -399l227 399h54z" />
    <glyph glyph-name="ycircumflex" unicode="&#x177;" horiz-adv-x="533" 
d="M265 782l-79 -135h-38l89 163h56l89 -163h-37zM461 569h47l-290 -747h-48l73 187l-218 560h48l194 -498z" />
    <glyph glyph-name="Ydieresis" unicode="&#x178;" horiz-adv-x="593" 
d="M226 850q-17 0 -28 10t-11 28q0 17 11 27t28 10t27.5 -10t10.5 -27q0 -18 -10.5 -28t-27.5 -10zM368 850q-17 0 -27.5 10t-10.5 28q0 17 10.5 27t27.5 10t28 -10t11 -27q0 -18 -10.5 -28t-28.5 -10zM576 748l-258 -445v-303h-48v303l-253 445h54l224 -399l227 399h54z
" />
    <glyph glyph-name="Zacute" unicode="&#x179;" horiz-adv-x="622" 
d="M420 989l-96 -163h-43l88 163h51zM576 748v-46l-475 -660h475v-42h-529v47l473 659h-457v42h513z" />
    <glyph glyph-name="zacute" unicode="&#x17a;" horiz-adv-x="478" 
d="M346 810l-96 -163h-43l88 163h51zM448 569v-41l-363 -488h363v-40h-418v40l364 488h-364v41h418z" />
    <glyph glyph-name="Zdotaccent" unicode="&#x17b;" horiz-adv-x="622" 
d="M313 866q-17 0 -28 10.5t-11 27.5q0 18 11 28t28 10q18 0 28.5 -10t10.5 -28q0 -17 -11 -27.5t-28 -10.5zM576 748v-46l-475 -660h475v-42h-529v47l473 659h-457v42h513z" />
    <glyph glyph-name="zdotaccent" unicode="&#x17c;" horiz-adv-x="478" 
d="M239 687q-17 0 -28 10.5t-11 27.5q0 18 11 28t28 10q18 0 28.5 -10t10.5 -28q0 -17 -11 -27.5t-28 -10.5zM448 569v-41l-363 -488h363v-40h-418v40l364 488h-364v41h418z" />
    <glyph glyph-name="Zcaron" unicode="&#x17d;" horiz-adv-x="622" 
d="M285 826l-89 163h38l79 -134l80 134h37l-89 -163h-56zM576 748v-46l-475 -660h475v-42h-529v47l473 659h-457v42h513z" />
    <glyph glyph-name="zcaron" unicode="&#x17e;" horiz-adv-x="478" 
d="M211 647l-89 163h38l79 -134l80 134h37l-89 -163h-56zM448 569v-41l-363 -488h363v-40h-418v40l364 488h-364v41h418z" />
    <glyph glyph-name="longs" unicode="&#x17f;" horiz-adv-x="279" 
d="M315 748l7 -40h-104q-24 0 -38.5 -14.5t-14.5 -39.5v-654h-45v528h-102v41h102v89q0 40 25 65t65 25h105z" />
    <glyph glyph-name="florin" unicode="&#x192;" horiz-adv-x="448" 
d="M271 665l-25 -202h126v-39h-131l-64 -512q-12 -90 -90 -90h-103l-8 39h105q46 0 53 54l64 509h-104v39h108l26 205q5 42 28 66t62 24h103l7 -39h-104q-46 0 -53 -54z" />
    <glyph glyph-name="Aringacute" unicode="&#x1fa;" horiz-adv-x="738" 
d="M483 1186l-96 -163h-43l88 163h51zM376 821q-39 0 -64.5 24.5t-25.5 62.5q0 37 25.5 61.5t64.5 24.5t64 -24t25 -62t-25 -62.5t-64 -24.5zM376 967q-26 0 -43 -17t-17 -42q0 -26 17 -43t43 -17q25 0 42 17t17 43t-16.5 42.5t-42.5 16.5zM661 0l-83 196h-419l-83 -196h-51
l318 748h52l318 -748h-52zM177 238h383l-191 453z" />
    <glyph glyph-name="aringacute" unicode="&#x1fb;" horiz-adv-x="589" 
d="M390 1007l-96 -163h-43l88 163h51zM283 642q-39 0 -64.5 24.5t-25.5 62.5q0 37 25.5 61.5t64.5 24.5t64 -24t25 -62t-25 -62.5t-64 -24.5zM283 788q-26 0 -43 -17t-17 -42t17.5 -42.5t42.5 -17.5t42 17t17 43q0 25 -17 42t-42 17zM278 581q99 0 159.5 -54.5t60.5 -146.5
v-380h-36l-8 131q-20 -69 -70 -106t-116 -37q-82 0 -133.5 47.5t-51.5 123.5q0 98 69 150t200 52h101v19q0 75 -47.5 118t-127.5 43q-60 0 -113.5 -35.5t-71.5 -93.5l-42 9q20 72 86 116t141 44zM276 27q80 0 128.5 63.5t48.5 170.5v61h-102q-109 0 -165.5 -41t-56.5 -119
q0 -60 40.5 -97.5t106.5 -37.5z" />
    <glyph glyph-name="AEacute" unicode="&#x1fc;" horiz-adv-x="1002" 
d="M608 989l-96 -163h-43l88 163h51zM918 706h-380v-298h374v-42h-374v-324h380v-42h-428v204h-297l-121 -204h-55l446 748h455v-42zM220 250h270v454z" />
    <glyph glyph-name="aeacute" unicode="&#x1fd;" horiz-adv-x="1004" 
d="M609 810l-96 -163h-43l88 163h51zM906 187l44 -8q-15 -88 -78.5 -139.5t-154.5 -51.5q-87 0 -146 47t-83 131q-21 -86 -77 -132t-139 -46q-85 0 -137 47t-52 124q0 98 69 147.5t200 49.5h109v25q0 72 -51 116t-121 44q-71 0 -124 -35t-72 -94l-42 9q21 73 87 116.5
t151 43.5q76 0 133.5 -42.5t72.5 -113.5q27 73 82.5 114.5t132.5 41.5q110 0 170.5 -75t54.5 -188h-427q-1 -9 -1 -28v-7q0 -114 56 -184t152 -70q75 0 126.5 42.5t64.5 115.5zM709 540q-76 0 -128.5 -49.5t-67.5 -134.5h377q-5 82 -54.5 133t-126.5 51zM277 27
q85 0 134.5 62.5t49.5 171.5v56h-109q-223 0 -223 -155q0 -60 41 -97.5t107 -37.5z" />
    <glyph glyph-name="Oslashacute" unicode="&#x1fe;" horiz-adv-x="837" 
d="M526 989l-96 -163h-43l88 163h51zM614 702q74 -51 116 -136.5t42 -191.5q0 -168 -99.5 -277t-253.5 -109q-91 0 -165 40l-54 -101l-31 16l55 103q-75 50 -117.5 135.5t-42.5 192.5q0 168 100 277t255 109q92 0 166 -41l54 102l30 -16zM113 374q0 -92 35.5 -167t97.5 -121
l318 594q-66 37 -145 37q-133 0 -219.5 -97t-86.5 -246zM419 31q133 0 219 97t86 246q0 93 -35 167.5t-97 120.5l-317 -595q66 -36 144 -36z" />
    <glyph glyph-name="oslashacute" unicode="&#x1ff;" horiz-adv-x="595" 
d="M404 810l-96 -163h-43l88 163h51zM444 529q96 -83 96 -245q0 -133 -67 -214.5t-176 -81.5q-67 0 -120 32l-36 -69l-29 15l39 73q-97 81 -97 245q0 133 67 215t176 82q66 0 121 -33l37 70l28 -15zM100 284q0 -135 72 -205l226 430q-46 30 -101 30q-87 0 -142 -69.5
t-55 -185.5zM297 29q88 0 142.5 69.5t54.5 185.5q0 133 -71 204l-226 -430q44 -29 100 -29z" />
    <glyph glyph-name="uni0218" unicode="&#x218;" horiz-adv-x="659" 
d="M348 -12q-112 0 -193.5 68.5t-101.5 179.5l47 8q18 -96 86.5 -154.5t163.5 -58.5q90 0 147.5 46t57.5 117q0 49 -26.5 82.5t-69 51t-93.5 31t-102 28.5t-93.5 35.5t-69 58.5t-26.5 93q0 85 69.5 135.5t187.5 50.5q101 0 174.5 -57t94.5 -150l-47 -7q-20 79 -80.5 125.5
t-144.5 46.5q-95 0 -150.5 -38.5t-55.5 -103.5q0 -45 26.5 -76t69 -47.5t93.5 -29.5t102 -28.5t93.5 -37t69 -62t26.5 -98.5q0 -93 -70.5 -151t-184.5 -58zM296 -190l16 129h47l-33 -129h-30z" />
    <glyph glyph-name="uni0219" unicode="&#x219;" horiz-adv-x="520" 
d="M274 -12q-84 0 -148.5 53.5t-81.5 139.5l44 8q16 -74 69.5 -118.5t118.5 -44.5q67 0 108.5 32t41.5 84q0 55 -37.5 85.5t-91.5 42.5l-107.5 25t-91 46.5t-37.5 93.5q0 65 54 105.5t139 40.5q83 0 145 -45.5t75 -117.5l-44 -8q-13 59 -62 96t-115 37q-65 0 -105.5 -29
t-40.5 -76q0 -48 37.5 -74t91 -37.5t107.5 -25.5t91.5 -52t37.5 -104q0 -70 -55 -113.5t-143 -43.5zM238 -190l16 129h47l-33 -129h-30z" />
    <glyph glyph-name="uni021A" unicode="&#x21a;" horiz-adv-x="621" 
d="M595 748v-42h-260v-706h-48v706h-260v42h568zM275 -190l16 129h47l-33 -129h-30z" />
    <glyph glyph-name="uni021B" unicode="&#x21b;" horiz-adv-x="327" 
d="M219 40h86l-8 -40h-86q-41 0 -66 25t-25 66v437h-102v41h102v159l45 31v-190h132v-41h-132v-433q0 -25 14.5 -40t39.5 -15zM187 -190l16 129h47l-33 -129h-30z" />
    <glyph glyph-name="uni0237" unicode="&#x237;" horiz-adv-x="245" 
d="M58 -178h-33l-8 39h39q19 0 31.5 13t12.5 33v662h45v-665q0 -37 -24 -59.5t-63 -22.5z" />
    <glyph glyph-name="circumflex" unicode="&#x2c6;" horiz-adv-x="334" 
d="M50 647l89 163h56l89 -163h-37l-80 135l-79 -135h-38z" />
    <glyph glyph-name="caron" unicode="&#x2c7;" horiz-adv-x="334" 
d="M247 810h37l-89 -163h-56l-89 163h38l79 -134z" />
    <glyph glyph-name="breve" unicode="&#x2d8;" horiz-adv-x="325" 
d="M275 810q-2 -164 -112 -164q-111 0 -113 164h35q0 -134 78 -134q77 0 77 134h35z" />
    <glyph glyph-name="dotaccent" unicode="&#x2d9;" horiz-adv-x="178" 
d="M89 687q-17 0 -28 10.5t-11 27.5q0 18 11 28t28 10q18 0 28.5 -10t10.5 -28q0 -17 -11 -27.5t-28 -10.5z" />
    <glyph glyph-name="ring" unicode="&#x2da;" horiz-adv-x="279" 
d="M140 642q-39 0 -64.5 24.5t-25.5 62.5q0 37 25.5 61.5t64.5 24.5t64 -24t25 -62t-25 -62.5t-64 -24.5zM140 669q25 0 42 17t17 43q0 25 -16.5 42t-42.5 17t-43 -17t-17 -42t17 -42.5t43 -17.5z" />
    <glyph glyph-name="ogonek" unicode="&#x2db;" horiz-adv-x="245" 
d="M123 -190q-33 0 -53 18.5t-20 50.5q0 39 38.5 76t95.5 62l9 -17q-112 -61 -112 -117q0 -21 12.5 -32t33.5 -11q26 0 52 18l9 -25q-31 -23 -65 -23z" />
    <glyph glyph-name="tilde" unicode="&#x2dc;" horiz-adv-x="383" 
d="M333 762q-3 -47 -24 -73.5t-57 -26.5q-16 0 -30.5 6.5t-21.5 13t-18 19.5q-29 31 -51 31q-39 0 -44 -65h-37q2 47 23.5 73.5t57.5 26.5q16 0 31 -7t21 -12.5t20 -19.5q29 -31 48 -31q18 0 30 17t15 48h37z" />
    <glyph glyph-name="hungarumlaut" unicode="&#x2dd;" horiz-adv-x="348" 
d="M189 810l-96 -163h-43l88 163h51zM298 810l-97 -163h-43l88 163h52z" />
    <glyph glyph-name="uni0394" unicode="&#x394;" horiz-adv-x="738" 
d="M395 748l318 -748h-688l318 748h52zM369 692l-275 -650h550z" />
    <glyph glyph-name="uni03A9" unicode="&#x3a9;" horiz-adv-x="837" 
d="M772 398q0 -116 -63 -211t-172 -147h208v-40h-286v40q120 44 192.5 140.5t72.5 215.5q0 143 -84 232t-221 89t-221.5 -89t-84.5 -232q0 -119 72.5 -215.5t193.5 -140.5v-40h-285v40h206q-109 53 -172.5 147t-63.5 211q0 161 98 261.5t257 100.5q158 0 255.5 -100.5
t97.5 -261.5z" />
    <glyph glyph-name="uni03BC" unicode="&#x3bc;" horiz-adv-x="634" 
d="M489 569h45v-569h-34l-10 137q-21 -72 -69.5 -110.5t-116.5 -38.5q-105 0 -159 68v-234h-45v747h45v-361q0 -83 45 -131t123 -48q81 0 128.5 63.5t47.5 157.5v319z" />
    <glyph glyph-name="pi" unicode="&#x3c0;" horiz-adv-x="645" 
d="M536 39h86l-7 -39h-87q-41 0 -66 25t-25 66v437h-272v-528h-45v528h-102v41h597v-41h-133v-433q0 -25 15 -40.5t39 -15.5z" />
    <glyph glyph-name="uni0E3F" unicode="&#xe3f;" horiz-adv-x="691" 
d="M470 376q73 -13 115 -61t42 -119q0 -90 -62 -143t-166 -53h-52v-154h-34v154h-203v748h203v152h34v-152h41q104 0 166 -53t62 -143q0 -70 -38 -116t-108 -60zM158 706v-310h227q84 0 133 42t49 113t-49 113t-133 42h-227zM396 42q84 0 133 42t49 114q0 71 -49 113
t-133 42h-238v-311h238z" />
    <glyph glyph-name="Wgrave" unicode="&#x1e80;" horiz-adv-x="1058" 
d="M413 989h51l88 -163h-43zM1029 748l-233 -748h-57l-210 683l-210 -683h-57l-233 748h50l212 -688l210 688h57l210 -688l212 688h49z" />
    <glyph glyph-name="wgrave" unicode="&#x1e81;" horiz-adv-x="876" 
d="M321 809h51l88 -163h-43zM219 0l-190 569h47l173 -525l162 525h54l163 -525l173 525h46l-190 -569h-58l-161 512l-161 -512h-58z" />
    <glyph glyph-name="Wacute" unicode="&#x1e82;" horiz-adv-x="1058" 
d="M637 989l-96 -163h-43l88 163h51zM1029 748l-233 -748h-57l-210 683l-210 -683h-57l-233 748h50l212 -688l210 688h57l210 -688l212 688h49z" />
    <glyph glyph-name="wacute" unicode="&#x1e83;" horiz-adv-x="876" 
d="M545 809l-96 -163h-43l88 163h51zM219 0l-190 569h47l173 -525l162 525h54l163 -525l173 525h46l-190 -569h-58l-161 512l-161 -512h-58z" />
    <glyph glyph-name="Wdieresis" unicode="&#x1e84;" horiz-adv-x="1058" 
d="M460 850q-17 0 -28 10t-11 28q0 17 11 27t28 10t27.5 -10t10.5 -27q0 -18 -10.5 -28t-27.5 -10zM602 850q-17 0 -27.5 10t-10.5 28q0 17 10.5 27t27.5 10t28 -10t11 -27q0 -18 -10.5 -28t-28.5 -10zM1029 748l-233 -748h-57l-210 683l-210 -683h-57l-233 748h50l212 -688
l210 688h57l210 -688l212 688h49z" />
    <glyph glyph-name="wdieresis" unicode="&#x1e85;" horiz-adv-x="876" 
d="M368 670q-17 0 -28 10t-11 28q0 17 11 27t28 10t27.5 -10t10.5 -27q0 -18 -10.5 -28t-27.5 -10zM510 670q-17 0 -27.5 10t-10.5 28q0 17 10.5 27t27.5 10t28 -10t11 -27q0 -18 -10.5 -28t-28.5 -10zM219 0l-190 569h47l173 -525l162 525h54l163 -525l173 525h46
l-190 -569h-58l-161 512l-161 -512h-58z" />
    <glyph glyph-name="uni1E9E" unicode="&#x1e9e;" horiz-adv-x="675" 
d="M360 396q119 4 190 -51t71 -148q0 -94 -57.5 -151.5t-151.5 -57.5q-115 0 -194 54l14 36q71 -49 175 -49q75 0 121 47t46 123q0 85 -74 131.5t-194 35.5l-2 34l245 222q-85 96 -213 96q-93 1 -144.5 -55t-51.5 -152v-511h-46v513q0 114 63.5 180.5t178.5 66.5
q154 0 258 -118v-34z" />
    <glyph glyph-name="Ygrave" unicode="&#x1ef2;" horiz-adv-x="593" 
d="M179 989h51l88 -163h-43zM576 748l-258 -445v-303h-48v303l-253 445h54l224 -399l227 399h54z" />
    <glyph glyph-name="ygrave" unicode="&#x1ef3;" horiz-adv-x="533" 
d="M287 647h-43l-96 163h51zM461 569h47l-290 -747h-48l73 187l-218 560h48l194 -498z" />
    <glyph glyph-name="uni2009" unicode="&#x2009;" horiz-adv-x="107" 
 />
    <glyph glyph-name="endash" unicode="&#x2013;" horiz-adv-x="546" 
d="M508 316v-35h-470v35h470z" />
    <glyph glyph-name="emdash" unicode="&#x2014;" horiz-adv-x="947" 
d="M909 316v-35h-871v35h871z" />
    <glyph glyph-name="quoteleft" unicode="&#x2018;" horiz-adv-x="184" 
d="M122 748l-33 -114h26v-72h-61v72l42 114h26z" />
    <glyph glyph-name="quoteright" unicode="&#x2019;" horiz-adv-x="181" 
d="M69 748h61v-72l-42 -114h-26l33 114h-26v72z" />
    <glyph glyph-name="quotesinglbase" unicode="&#x201a;" horiz-adv-x="184" 
d="M69 72h61v-72l-42 -114h-26l33 114h-26v72z" />
    <glyph glyph-name="quotedblleft" unicode="&#x201c;" horiz-adv-x="294" 
d="M96 748h26l-33 -114h26v-72h-61v72zM232 748l-33 -114h26v-72h-61v72l41 114h27z" />
    <glyph glyph-name="quotedblright" unicode="&#x201d;" horiz-adv-x="290" 
d="M69 676v72h61v-72l-42 -114h-26l33 114h-26zM178 748h61v-72l-41 -114h-27l34 114h-27v72z" />
    <glyph glyph-name="quotedblbase" unicode="&#x201e;" horiz-adv-x="294" 
d="M69 0v72h61v-72l-42 -114h-26l33 114h-26zM178 72h61v-72l-41 -114h-27l34 114h-27v72z" />
    <glyph glyph-name="dagger" unicode="&#x2020;" horiz-adv-x="552" 
d="M498 569v-37h-202v-710h-39v710h-203v37h203v241h39v-241h202z" />
    <glyph glyph-name="daggerdbl" unicode="&#x2021;" horiz-adv-x="552" 
d="M498 532h-202v-353h202v-37h-202v-320h-39v320h-203v37h203v353h-203v37h203v241h39v-241h202v-37z" />
    <glyph glyph-name="bullet" unicode="&#x2022;" horiz-adv-x="478" 
d="M239 192q-53 0 -91 38t-38 91t38 90.5t91 37.5t91 -37.5t38 -90.5t-38 -91t-91 -38z" />
    <glyph glyph-name="ellipsis" unicode="&#x2026;" horiz-adv-x="425" 
d="M115 72v-72h-61v72h61zM242 72v-72h-61v72h61zM370 72v-72h-61v72h61z" />
    <glyph glyph-name="perthousand" unicode="&#x2030;" horiz-adv-x="1306" 
d="M703 753l-485 -778l-29 19l485 778zM225 397q-77 0 -124 49.5t-47 130.5q0 82 47 131.5t124 49.5q76 0 122.5 -49.5t46.5 -131.5q0 -81 -46.5 -130.5t-122.5 -49.5zM225 432q58 0 93.5 40t35.5 105q0 66 -35 105.5t-94 39.5t-95 -39.5t-36 -105.5q0 -65 36 -105t95 -40z
M668 -12q-76 0 -123 49.5t-47 130.5t47 131t123 50t123 -50t47 -131t-47 -130.5t-123 -49.5zM1082 -12q-77 0 -123.5 49.5t-46.5 130.5t46.5 131t123.5 50q76 0 122.5 -50t46.5 -131t-46.5 -130.5t-122.5 -49.5zM668 23q58 0 94 40t36 105t-36 105t-94 40t-94 -40t-36 -105
t36 -105t94 -40zM1082 23q58 0 94 40t36 105t-36 105t-94 40q-59 0 -95 -40t-36 -105t36 -105t95 -40z" />
    <glyph glyph-name="guilsinglleft" unicode="&#x2039;" horiz-adv-x="284" 
d="M237 527l-155 -237l155 -238h-43l-157 238l157 237h43z" />
    <glyph glyph-name="guilsinglright" unicode="&#x203a;" horiz-adv-x="284" 
d="M47 52l156 238l-156 237h43l157 -237l-157 -238h-43z" />
    <glyph glyph-name="fraction" unicode="&#x2044;" horiz-adv-x="264" 
d="M389 753l-485 -778l-29 19l485 778z" />
    <glyph glyph-name="franc" unicode="&#x20a3;" horiz-adv-x="618" 
d="M544 706h-380v-298h374v-42h-374v-161h213v-32h-213v-173h-48v173h-101v32h101v543h428v-42z" />
    <glyph glyph-name="uni20AA" unicode="&#x20aa;" horiz-adv-x="784" 
d="M110 0v748h245q146 0 146 -149v-436h-42v428q0 122 -115 122h-192v-713h-42zM283 0v585h41v-550h192q116 0 116 122v591h41v-599q0 -149 -146 -149h-244z" />
    <glyph glyph-name="dong" unicode="&#x20ab;" horiz-adv-x="655" 
d="M538 668h85v-29h-85v-639h-37l-8 148v2q-20 -74 -74.5 -118t-124.5 -44q-105 0 -172.5 81.5t-67.5 214.5q0 134 67 215.5t173 81.5q70 0 124.5 -44t74.5 -118v220h-181v29h181v80h45v-80zM300 29q85 0 139 70t54 185t-54 185.5t-139 70.5q-90 0 -145 -70t-55 -186
t55 -185.5t145 -69.5zM83 -130v29h469v-29h-469z" />
    <glyph glyph-name="Euro" unicode="&#x20ac;" horiz-adv-x="847" 
d="M742 248l45 -6q-26 -113 -112 -183.5t-198 -70.5q-130 0 -225 79.5t-123 209.5h-127l5 32h117q-5 35 -5 66q0 36 4 64h-102l5 32h103q27 130 121.5 209.5t226.5 79.5q105 0 183.5 -60.5t100.5 -159.5l-46 -10q-22 84 -87.5 135.5t-152.5 51.5q-111 0 -191 -67.5
t-106 -178.5h381l-5 -32h-382q-5 -35 -5 -64q0 -31 5 -66h368l-5 -32h-357q26 -111 107 -178.5t192 -67.5q93 0 165.5 60t99.5 157z" />
    <glyph glyph-name="uni20B4" unicode="&#x20b4;" horiz-adv-x="710" 
d="M561 472h102v-33h-625v33h470q45 40 45 100q-1 67 -56.5 106.5t-149.5 39.5q-81 0 -139.5 -45.5t-76.5 -122.5l-52 6q22 93 94.5 148.5t171.5 55.5q117 0 186.5 -50.5t69.5 -135.5q0 -62 -40 -102zM38 276v33h625v-33h-470q-45 -40 -44 -100q0 -67 55.5 -106.5
t150.5 -39.5q81 0 139 45.5t76 122.5l52 -6q-22 -93 -94.5 -148.5t-171.5 -55.5q-117 0 -186.5 50.5t-69.5 135.5q0 60 40 102h-102z" />
    <glyph glyph-name="uni20B9" unicode="&#x20b9;" horiz-adv-x="704" 
d="M671 748l-5 -32h-264q90 -42 106 -130h144l-5 -33h-136v-5q0 -65 -35 -112.5t-101 -66.5q58 -12 89 -53t31 -99v-217h-48v210q0 64 -40 101.5t-114 37.5h-111v33h62q106 0 162.5 43t56.5 123v5h-398l5 33h389q-13 63 -68 96.5t-147 33.5h-160l5 32h582z" />
    <glyph glyph-name="uni20BA" unicode="&#x20ba;" horiz-adv-x="617" 
d="M531 265l46 -7v-37q0 -99 -58.5 -160t-153.5 -61h-206v303l-131 -45v37l131 45v138l-131 -45v37l131 45v233h48v-217l211 72v-37l-211 -72v-138l211 72v-37l-211 -72v-277h159q74 0 119.5 50t45.5 132v41z" />
    <glyph glyph-name="uni20BD" unicode="&#x20bd;" horiz-adv-x="713" 
d="M194 324v-123h213v-33h-213v-168h-47v168h-102v33h102v123h-102v33h102v391h243q132 0 204.5 -55t72.5 -156q0 -102 -72.5 -157.5t-204.5 -55.5h-196zM194 706v-340h196q109 0 168.5 44.5t59.5 126.5q0 81 -59.5 125t-168.5 44h-196z" />
    <glyph glyph-name="uni20BF" unicode="&#x20bf;" horiz-adv-x="691" 
d="M627 196q0 -83 -53 -135t-145 -60v-155h-34v154h-131v-154h-33v154h-121v748h121v152h33v-152h124h7v152h34v-154q87 -11 137 -62t50 -132q0 -70 -38 -116t-108 -60q73 -13 115 -61t42 -119zM158 706v-310h227q84 0 133 42t49 113t-49 113t-133 42h-227zM396 42
q84 0 133 42t49 114q0 71 -49 113t-133 42h-238v-311h238z" />
    <glyph glyph-name="uni2116" unicode="&#x2116;" horiz-adv-x="984" 
d="M785 397q-65 0 -105 50t-40 131t40 130.5t105 49.5t104.5 -49.5t39.5 -130.5t-40 -131t-104 -50zM110 0v748h65l326 -680v680h49v-748h-66l-325 677v-677h-49zM785 433q47 0 76 40t29 105t-29 105t-76 40t-76 -40t-29 -105t29 -105t76 -40zM670 306v32h230v-32h-230z" />
    <glyph glyph-name="uni2117" unicode="&#x2117;" horiz-adv-x="593" 
d="M297 297q-96 0 -164.5 68t-68.5 163t68.5 163.5t164.5 68.5q95 0 163 -68.5t68 -163.5t-68 -163t-163 -68zM297 316q88 0 150.5 62.5t62.5 149.5q0 88 -62.5 150.5t-150.5 62.5t-151 -62.5t-63 -150.5q0 -87 63 -149.5t151 -62.5zM302 665q48 0 75 -21t27 -58t-27 -58
t-75 -21h-64v-112h-25v270h89zM302 530q76 0 76 56q0 26 -20 41t-56 15h-64v-112h64z" />
    <glyph glyph-name="trademark" unicode="&#x2122;" horiz-adv-x="664" 
d="M236 665v-22h-92v-247h-25v247h-92v22h209zM554 665v-269h-26v232l-98 -232h-25l-97 232v-232h-26v269h38l97 -239l100 239h37z" />
    <glyph glyph-name="uni2153" unicode="&#x2153;" horiz-adv-x="882" 
d="M666 753l-485 -778l-29 19l485 778zM126 748h36v-449h-37v360q-10 -16 -26 -21t-51 -5h-36v33h36q42 0 59.5 15.5t18.5 66.5zM712 -7q-52 0 -90.5 34t-43.5 87l37 5q5 -42 32 -67t65 -25q41 0 67.5 27.5t26.5 70.5q0 41 -29.5 67.5t-76.5 26.5h-21l-5 33h27q41 0 67 24.5
t26 62.5q0 37 -24 59.5t-62 22.5q-37 0 -64 -26.5t-31 -68.5l-37 3q5 56 42.5 91.5t89.5 35.5q55 0 89.5 -32t34.5 -82q0 -41 -25 -71t-64 -34q44 -4 73 -37.5t29 -75.5q0 -58 -37.5 -94.5t-95.5 -36.5z" />
    <glyph glyph-name="uni2154" unicode="&#x2154;" horiz-adv-x="969" 
d="M753 753l-485 -778l-29 19l485 778zM171 755q56 0 93.5 -34.5t37.5 -87.5q0 -46 -22.5 -81.5t-55 -58l-64.5 -44t-54.5 -50.5t-22.5 -67h213v-33h-252v18q0 52 22.5 90.5t55 61.5t65 43.5t55 50.5t22.5 70q0 39 -27 64t-66 25q-40 0 -69.5 -31t-33.5 -85l-37 3
q5 67 44 106.5t96 39.5zM799 -7q-52 0 -90.5 34t-43.5 87l37 5q5 -42 32 -67t65 -25q41 0 67.5 27.5t26.5 70.5q0 41 -29.5 67.5t-76.5 26.5h-21l-5 33h27q41 0 67 24.5t26 62.5q0 37 -24 59.5t-62 22.5q-37 0 -64 -26.5t-31 -68.5l-37 3q5 56 42.5 91.5t89.5 35.5
q55 0 89.5 -32t34.5 -82q0 -41 -25 -71t-64 -34q44 -4 73 -37.5t29 -75.5q0 -58 -37.5 -94.5t-95.5 -36.5z" />
    <glyph glyph-name="oneeighth" unicode="&#x215b;" horiz-adv-x="895" 
d="M666 753l-485 -778l-29 19l485 778zM126 748h36v-449h-37v360q-10 -16 -26 -21t-51 -5h-36v33h36q42 0 59.5 15.5t18.5 66.5zM719 -7q-59 0 -98.5 35.5t-39.5 89.5q0 41 24.5 71.5t65.5 39.5q-38 8 -61 37.5t-23 69.5q0 52 37.5 86t94.5 34q56 0 94 -34t38 -86
q0 -39 -23 -68.5t-62 -38.5q43 -9 67.5 -39.5t24.5 -71.5q0 -54 -40 -89.5t-99 -35.5zM719 247q44 0 69.5 25.5t25.5 61.5q0 37 -27.5 62t-67.5 25t-67 -25t-27 -62q0 -36 25 -61.5t69 -25.5zM719 27q43 0 71.5 27t28.5 66q0 38 -27 65t-73 27q-47 0 -73 -26.5t-26 -65.5
t28.5 -66t70.5 -27z" />
    <glyph glyph-name="threeeighths" unicode="&#x215c;" horiz-adv-x="961" 
d="M732 753l-485 -778l-29 19l485 778zM171 292q-52 0 -90.5 34t-43.5 87l37 5q5 -42 32 -67t65 -25q41 0 67.5 27.5t26.5 70.5q0 41 -29.5 67.5t-76.5 26.5h-21l-5 33h27q41 0 67 24.5t26 62.5q0 37 -24 59.5t-62 22.5q-37 0 -64 -26.5t-31 -68.5l-37 3q5 56 42.5 91.5
t89.5 35.5q55 0 89.5 -32t34.5 -82q0 -41 -25 -71t-64 -34q44 -4 73 -37.5t29 -75.5q0 -58 -37.5 -94.5t-95.5 -36.5zM785 -7q-59 0 -98.5 35.5t-39.5 89.5q0 41 24.5 71.5t65.5 39.5q-38 8 -61 37.5t-23 69.5q0 52 37.5 86t94.5 34q56 0 94 -34t38 -86q0 -39 -23 -68.5
t-62 -38.5q43 -9 67.5 -39.5t24.5 -71.5q0 -54 -40 -89.5t-99 -35.5zM785 247q44 0 69.5 25.5t25.5 61.5q0 37 -27.5 62t-67.5 25t-67 -25t-27 -62q0 -36 25 -61.5t69 -25.5zM785 27q43 0 71.5 27t28.5 66q0 38 -27 65t-73 27q-47 0 -73 -26.5t-26 -65.5t28.5 -66t70.5 -27z
" />
    <glyph glyph-name="fiveeighths" unicode="&#x215d;" horiz-adv-x="960" 
d="M731 753l-485 -778l-29 19l485 778zM292 748l4 -33h-184l-18 -178q14 26 40 41.5t54 15.5q55 0 88 -41.5t33 -109.5q0 -69 -35 -110.5t-93 -41.5q-52 0 -87 32.5t-42 90.5l36 5q4 -43 29.5 -68t63.5 -25q41 0 65 32t24 85t-24.5 85t-65.5 32q-27 0 -50.5 -16t-35.5 -43
l-39 -1l22 248h215zM785 -7q-59 0 -98.5 35.5t-39.5 89.5q0 41 24.5 71.5t65.5 39.5q-38 8 -61 37.5t-23 69.5q0 52 37.5 86t94.5 34q56 0 94 -34t38 -86q0 -39 -23 -68.5t-62 -38.5q43 -9 67.5 -39.5t24.5 -71.5q0 -54 -40 -89.5t-99 -35.5zM785 247q44 0 69.5 25.5
t25.5 61.5q0 37 -27.5 62t-67.5 25t-67 -25t-27 -62q0 -36 25 -61.5t69 -25.5zM785 27q43 0 71.5 27t28.5 66q0 38 -27 65t-73 27q-47 0 -73 -26.5t-26 -65.5t28.5 -66t70.5 -27z" />
    <glyph glyph-name="seveneighths" unicode="&#x215e;" horiz-adv-x="871" 
d="M642 753l-485 -778l-29 19l485 778zM294 748v-33q-84 -93 -122 -190t-28 -226h-38q-17 239 147 416h-241v33h282zM695 -7q-59 0 -98.5 35.5t-39.5 89.5q0 41 24.5 71.5t65.5 39.5q-38 8 -61 37.5t-23 69.5q0 52 37.5 86t94.5 34q56 0 94 -34t38 -86q0 -39 -23 -68.5
t-62 -38.5q43 -9 67.5 -39.5t24.5 -71.5q0 -54 -40 -89.5t-99 -35.5zM695 247q44 0 69.5 25.5t25.5 61.5q0 37 -27.5 62t-67.5 25t-67 -25t-27 -62q0 -36 25 -61.5t69 -25.5zM695 27q43 0 71.5 27t28.5 66q0 38 -27 65t-73 27q-47 0 -73 -26.5t-26 -65.5t28.5 -66t70.5 -27z
" />
    <glyph glyph-name="arrowleft" unicode="&#x2190;" horiz-adv-x="667" 
d="M626 309v-42h-506l240 -197l-26 -32l-296 250l296 251l26 -32l-241 -198h507z" />
    <glyph glyph-name="arrowup" unicode="&#x2191;" horiz-adv-x="561" 
d="M531 295l-32 -26l-197 240v-506h-42v507l-198 -241l-32 26l250 296z" />
    <glyph glyph-name="arrowright" unicode="&#x2192;" horiz-adv-x="667" 
d="M333 539l296 -251l-296 -250l-26 32l242 198h-507v42h505l-240 197z" />
    <glyph glyph-name="arrowdown" unicode="&#x2193;" horiz-adv-x="561" 
d="M499 322l32 -27l-250 -295l-251 295l32 27l197 -240v505h42v-506z" />
    <glyph glyph-name="partialdiff" unicode="&#x2202;" horiz-adv-x="585" 
d="M272 760q112 0 180.5 -111.5t68.5 -295.5q0 -167 -64 -266t-169 -99t-169.5 67.5t-64.5 179.5q0 107 61.5 173t158.5 66q62 0 117 -26t86 -70q-4 156 -60 250t-147 95q-46 0 -90.5 -25.5t-73.5 -67.5l-21 32q34 44 85.5 71t101.5 27zM288 29q84 0 134 82t55 223
q-30 46 -82 73.5t-114 27.5q-80 0 -130.5 -55.5t-50.5 -144.5q0 -93 51.5 -149.5t136.5 -56.5z" />
    <glyph glyph-name="emptyset" unicode="&#x2205;" horiz-adv-x="725" 
d="M671 569l-97 -97q71 -81 71 -187q0 -116 -82.5 -197.5t-198.5 -81.5q-107 0 -187 69l-100 -99l-23 23l99 99q-72 78 -72 187q0 117 83 198.5t200 81.5q106 0 186 -70l97 97zM123 285q0 -91 59 -158l339 339q-68 58 -157 58q-101 0 -171 -69.5t-70 -169.5zM603 285
q0 91 -59 158l-338 -339q68 -58 158 -58q99 0 169 69.5t70 169.5z" />
    <glyph glyph-name="product" unicode="&#x220f;" horiz-adv-x="700" 
d="M590 748v-748h-46v706h-388v-706h-46v748h480z" />
    <glyph glyph-name="summation" unicode="&#x2211;" horiz-adv-x="498" 
d="M20 0v48l379 324l-379 328v48h437v-42h-383l385 -334l-385 -330h383v-42h-437z" />
    <glyph glyph-name="minus" unicode="&#x2212;" horiz-adv-x="495" 
d="M457 394v-40h-419v40h419z" />
    <glyph glyph-name="radical" unicode="&#x221a;" horiz-adv-x="553" 
d="M498 883h47l-198 -883h-60l-151 529h-126v40h165l140 -519z" />
    <glyph glyph-name="infinity" unicode="&#x221e;" horiz-adv-x="1032" 
d="M240 149q-83 0 -134.5 56t-51.5 147q0 90 51 145.5t134 55.5q57 0 131 -45t146 -123q72 78 146 123t132 45q82 0 133 -56t51 -145q0 -91 -51 -147t-134 -56q-58 0 -132 45t-145 123q-72 -78 -145 -123t-131 -45zM242 193q51 0 117.5 42t131.5 116q-68 74 -134.5 116
t-115.5 42q-63 0 -101.5 -43t-38.5 -114t39 -115t102 -44zM791 193q62 0 101 44t39 115q0 70 -38.5 113.5t-100.5 43.5q-49 0 -115.5 -42t-135.5 -116q65 -74 131.5 -116t118.5 -42z" />
    <glyph glyph-name="integral" unicode="&#x222b;" horiz-adv-x="380" 
d="M362 758l8 -39h-105q-23 0 -38 -14.5t-15 -39.5v-753q0 -40 -25 -65t-65 -25h-105l-7 39h104q24 0 39 14.5t15 39.5v753q0 40 25 65t65 25h104z" />
    <glyph glyph-name="approxequal" unicode="&#x2248;" horiz-adv-x="549" 
d="M380 408q-32 0 -62.5 17.5t-50 38t-45.5 38t-51 17.5q-31 0 -51 -23.5t-22 -63.5h-40q2 58 33 93t79 35q32 0 62.5 -17t50.5 -38t46 -38t50 -17q31 0 50.5 23.5t21.5 63.5h40q-2 -58 -33 -93.5t-78 -35.5zM380 207q-32 0 -62.5 17.5t-50 38t-45.5 38t-51 17.5
q-31 0 -51 -23.5t-22 -63.5h-40q2 57 33 92.5t79 35.5q32 0 62.5 -17.5t50.5 -38t46 -38t50 -17.5q31 0 50.5 24t21.5 64h40q-2 -58 -33 -93.5t-78 -35.5z" />
    <glyph glyph-name="notequal" unicode="&#x2260;" horiz-adv-x="534" 
d="M476 438h-158l-59 -128h217v-39h-235l-65 -141h-43l66 141h-141v39h159l59 128h-218v39h236l66 141h41l-65 -141h140v-39z" />
    <glyph glyph-name="lessequal" unicode="&#x2264;" horiz-adv-x="534" 
d="M476 184l-418 186v50l418 185v-46l-378 -164l378 -165v-46zM58 103v40h418v-40h-418z" />
    <glyph glyph-name="greaterequal" unicode="&#x2265;" horiz-adv-x="534" 
d="M58 184v46l378 165l-378 164v46l418 -185v-50zM476 143v-40h-418v40h418z" />
    <glyph glyph-name="lozenge" unicode="&#x25ca;" horiz-adv-x="515" 
d="M282 680l179 -340l-179 -340h-49l-179 340l179 340h49zM258 45l157 295l-157 295l-157 -295z" />
    <glyph glyph-name="circle" unicode="&#x25cb;" horiz-adv-x="902" 
d="M452 -12q-160 0 -274 113.5t-114 272.5t114 272.5t274 113.5q159 0 272 -113.5t113 -272.5t-113 -272.5t-272 -113.5zM452 14q148 0 253.5 106t105.5 254t-105.5 254t-253.5 106t-254.5 -106t-106.5 -254t106.5 -254t254.5 -106z" />
    <glyph glyph-name="uni25CF" unicode="&#x25cf;" horiz-adv-x="902" 
d="M452 -12q-160 0 -274 113.5t-114 272.5t114 272.5t274 113.5q159 0 272 -113.5t113 -272.5t-113 -272.5t-272 -113.5z" />
    <glyph glyph-name="O.cv05" horiz-adv-x="853" 
d="M427 760l399 -291l-153 -469h-493l-153 469z" />
    <glyph glyph-name="O.cv06" horiz-adv-x="918" 
d="M675 748l216 -374l-216 -374h-432l-216 374l216 374h432z" />
    <glyph glyph-name="O.cv07" horiz-adv-x="833" 
d="M418 760l311 -150l77 -337l-215 -273h-345l-219 273l77 337z" />
    <glyph glyph-name="O.cv08" horiz-adv-x="970" 
d="M640 748l219 -219v-310l-219 -219h-310l-220 219v310l220 219h310z" />
    <glyph glyph-name="O.cv09" horiz-adv-x="901" 
d="M450 760l252 -92l134 -232l-47 -264l-205 -172h-268l-206 172l-46 264l134 232z" />
    <glyph glyph-name="O.cv10" horiz-adv-x="915" 
d="M579 748l196 -143l75 -231l-75 -231l-196 -143h-243l-197 143l-75 231l75 231l197 143h243z" />
    <glyph glyph-name="O.cv11" horiz-adv-x="896" 
d="M447 760l210 -62l144 -165l30 -216l-90 -199l-184 -118h-219l-183 118l-91 199l31 216l143 165z" />
    <glyph glyph-name="Q.ss07" horiz-adv-x="837" 
d="M772 374q0 -128 -60 -224.5t-161 -136.5q110 -24 110 -151v-23h-45v20q0 66 -35.5 97.5t-112.5 31.5h-72v1q-146 8 -239 115.5t-93 269.5q0 168 100 277t255 109q154 0 253.5 -109t99.5 -277zM419 31q133 0 219 97t86 246t-86 246t-219 97t-219.5 -97t-86.5 -246
t86.5 -246t219.5 -97z" />
    <glyph glyph-name="R.ss08" horiz-adv-x="679" 
d="M632 547q0 -89 -58 -141t-166 -60l194 -346h-54l-191 345h-199v-345h-48v748h259q126 0 194.5 -52.5t68.5 -148.5zM158 706v-318h210q103 0 159 41t56 118t-56 118t-159 41h-210z" />
    <glyph glyph-name="Racute.ss08" horiz-adv-x="679" 
d="M450 989l-96 -163h-43l88 163h51zM632 547q0 -89 -58 -141t-166 -60l194 -346h-54l-191 345h-199v-345h-48v748h259q126 0 194.5 -52.5t68.5 -148.5zM158 706v-318h210q103 0 159 41t56 118t-56 118t-159 41h-210z" />
    <glyph glyph-name="Rcaron.ss08" horiz-adv-x="679" 
d="M315 826l-89 163h38l79 -134l80 134h37l-89 -163h-56zM632 547q0 -89 -58 -141t-166 -60l194 -346h-54l-191 345h-199v-345h-48v748h259q126 0 194.5 -52.5t68.5 -148.5zM158 706v-318h210q103 0 159 41t56 118t-56 118t-159 41h-210z" />
    <glyph glyph-name="uni0156.ss08" horiz-adv-x="679" 
d="M632 547q0 -89 -58 -141t-166 -60l194 -346h-54l-191 345h-199v-345h-48v748h259q126 0 194.5 -52.5t68.5 -148.5zM158 706v-318h210q103 0 159 41t56 118t-56 118t-159 41h-210zM320 -190l16 129h47l-33 -129h-30z" />
    <glyph glyph-name="S.ss09" horiz-adv-x="656" 
d="M349 -12q-112 0 -194 68.5t-102 179.5l47 8q18 -96 86.5 -154.5t164.5 -58.5q89 0 146.5 46t57.5 117q0 49 -26.5 82t-69 51t-94.5 31.5l-103.5 28t-94 34.5t-69 58.5t-26.5 93.5q1 84 69 129.5t187 45.5h242l8 -42h-252q-97 0 -151 -33.5t-54 -98.5q0 -45 26.5 -76
t69 -47.5t94 -29t103 -28t94 -37t69 -62t26.5 -98.5q0 -92 -71 -150t-183 -58z" />
    <glyph glyph-name="Sacute.ss09" horiz-adv-x="656" 
d="M456 989l-96 -163h-43l88 163h51zM349 -12q-112 0 -194 68.5t-102 179.5l47 8q18 -96 86.5 -154.5t164.5 -58.5q89 0 146.5 46t57.5 117q0 49 -26.5 82t-69 51t-94.5 31.5l-103.5 28t-94 34.5t-69 58.5t-26.5 93.5q1 84 69 129.5t187 45.5h242l8 -42h-252
q-97 0 -151 -33.5t-54 -98.5q0 -45 26.5 -76t69 -47.5t94 -29t103 -28t94 -37t69 -62t26.5 -98.5q0 -92 -71 -150t-183 -58z" />
    <glyph glyph-name="Scaron.ss09" horiz-adv-x="656" 
d="M321 826l-89 163h38l79 -134l80 134h37l-89 -163h-56zM121 574q0 -45 26.5 -76t69 -47.5t94 -29t103 -28t94 -37t69 -62t26.5 -98.5q0 -92 -71 -150t-183 -58t-194 68.5t-102 179.5l47 8q18 -96 86.5 -154.5t164.5 -58.5q89 0 146.5 46t57.5 117q0 49 -26.5 82t-69 51
t-94.5 31.5l-103.5 28t-94 34.5t-69 58.5t-26.5 93.5q1 84 69 129.5t187 45.5h242l8 -42h-252q-97 0 -151 -33.5t-54 -98.5z" />
    <glyph glyph-name="Scedilla.ss09" horiz-adv-x="656" 
d="M603 196q0 -90 -68.5 -148t-176.5 -60l-15 -55q42 3 67.5 -15t25.5 -48q0 -31 -25.5 -49t-65.5 -18q-49 0 -80 29l12 21q29 -24 66 -24q25 0 42.5 11t17.5 29q0 22 -22.5 32.5t-59.5 5.5l-11 15l18 67q-105 7 -180.5 74t-94.5 173l47 8q18 -96 86.5 -154.5t164.5 -58.5
q89 0 146.5 46t57.5 117q0 49 -26.5 82t-69 51t-94.5 31.5l-103.5 28t-94 34.5t-69 58.5t-26.5 93.5q1 84 69 129.5t187 45.5h242l8 -42h-252q-97 0 -151 -33.5t-54 -98.5q0 -45 26.5 -76t69 -47.5t94 -29t103 -28t94 -37t69 -62t26.5 -98.5z" />
    <glyph glyph-name="Scircumflex.ss09" horiz-adv-x="656" 
d="M232 826l89 163h56l89 -163h-37l-80 135l-79 -135h-38zM349 -12q-112 0 -194 68.5t-102 179.5l47 8q18 -96 86.5 -154.5t164.5 -58.5q89 0 146.5 46t57.5 117q0 49 -26.5 82t-69 51t-94.5 31.5l-103.5 28t-94 34.5t-69 58.5t-26.5 93.5q1 84 69 129.5t187 45.5h242l8 -42
h-252q-97 0 -151 -33.5t-54 -98.5q0 -45 26.5 -76t69 -47.5t94 -29t103 -28t94 -37t69 -62t26.5 -98.5q0 -92 -71 -150t-183 -58z" />
    <glyph glyph-name="uni0218.ss09" horiz-adv-x="656" 
d="M349 -12q-112 0 -194 68.5t-102 179.5l47 8q18 -96 86.5 -154.5t164.5 -58.5q89 0 146.5 46t57.5 117q0 49 -26.5 82t-69 51t-94.5 31.5l-103.5 28t-94 34.5t-69 58.5t-26.5 93.5q1 84 69 129.5t187 45.5h242l8 -42h-252q-97 0 -151 -33.5t-54 -98.5q0 -45 26.5 -76
t69 -47.5t94 -29t103 -28t94 -37t69 -62t26.5 -98.5q0 -92 -71 -150t-183 -58zM313 -190l16 129h47l-33 -129h-30z" />
    <glyph glyph-name="i.loclTRK" horiz-adv-x="245" 
d="M123 687q-17 0 -28 10.5t-11 27.5q0 18 11 28t28 10q18 0 28.5 -10t10.5 -28q0 -17 -11 -27.5t-28 -10.5zM145 569v-569h-45v569h45z" />
    <glyph glyph-name="r.calt" horiz-adv-x="360" 
d="M330 569l8 -41h-72q-121 0 -121 -187v-341h-45v569h34l8 -106q12 50 43.5 78t79.5 28h65z" />
    <glyph glyph-name="racute.calt" horiz-adv-x="360" 
d="M336 810l-96 -163h-43l88 163h51zM330 569l8 -41h-72q-121 0 -121 -187v-341h-45v569h34l8 -106q12 50 43.5 78t79.5 28h65z" />
    <glyph glyph-name="rcaron.calt" horiz-adv-x="360" 
d="M200 647l-89 163h38l79 -134l80 134h37l-89 -163h-56zM265 569h65l8 -41h-72q-121 0 -121 -187v-341h-45v569h34l8 -106q12 50 43.5 78t79.5 28z" />
    <glyph glyph-name="uni0157.calt" horiz-adv-x="360" 
d="M330 569l8 -41h-72q-121 0 -121 -187v-341h-45v569h34l8 -106q12 50 43.5 78t79.5 28h65zM87 -190l16 129h47l-33 -129h-30z" />
    <glyph glyph-name="a.ss01" horiz-adv-x="638" 
d="M501 569h37v-569h-37l-8 148v2q-20 -74 -74.5 -118t-124.5 -44q-105 0 -172.5 81.5t-67.5 214.5q0 134 67 215.5t173 81.5q70 0 124.5 -44t74.5 -118v2zM300 29q85 0 139 70t54 185t-54 185.5t-139 70.5q-90 0 -145 -70t-55 -186t55 -185.5t145 -69.5z" />
    <glyph glyph-name="aacute.ss01" horiz-adv-x="638" 
d="M415 810l-96 -163h-43l88 163h51zM501 569h37v-569h-37l-8 148v2q-20 -74 -74.5 -118t-124.5 -44q-105 0 -172.5 81.5t-67.5 214.5q0 134 67 215.5t173 81.5q70 0 124.5 -44t74.5 -118v2zM300 29q85 0 139 70t54 185t-54 185.5t-139 70.5q-90 0 -145 -70t-55 -186
t55 -185.5t145 -69.5z" />
    <glyph glyph-name="abreve.ss01" horiz-adv-x="638" 
d="M308 646q-111 0 -113 164h35q0 -134 78 -134q77 0 77 134h35q-2 -164 -112 -164zM501 569h37v-569h-37l-8 148v2q-20 -74 -74.5 -118t-124.5 -44q-105 0 -172.5 81.5t-67.5 214.5q0 134 67 215.5t173 81.5q70 0 124.5 -44t74.5 -118v2zM300 29q85 0 139 70t54 185
t-54 185.5t-139 70.5q-90 0 -145 -70t-55 -186t55 -185.5t145 -69.5z" />
    <glyph glyph-name="acircumflex.ss01" horiz-adv-x="638" 
d="M307 782l-79 -135h-38l89 163h56l89 -163h-37zM501 569h37v-569h-37l-8 148v2q-20 -74 -74.5 -118t-124.5 -44q-105 0 -172.5 81.5t-67.5 214.5q0 134 67 215.5t173 81.5q70 0 124.5 -44t74.5 -118v2zM300 29q85 0 139 70t54 185t-54 185.5t-139 70.5q-90 0 -145 -70
t-55 -186t55 -185.5t145 -69.5z" />
    <glyph glyph-name="adieresis.ss01" horiz-adv-x="638" 
d="M237 671q-17 0 -28 10t-11 28q0 17 11 27t28 10t27.5 -10t10.5 -27q0 -18 -10.5 -28t-27.5 -10zM379 671q-17 0 -27.5 10t-10.5 28q0 17 10.5 27t27.5 10t28 -10t11 -27q0 -18 -10.5 -28t-28.5 -10zM501 569h37v-569h-37l-8 148v2q-20 -74 -74.5 -118t-124.5 -44
q-105 0 -172.5 81.5t-67.5 214.5q0 134 67 215.5t173 81.5q70 0 124.5 -44t74.5 -118v2zM300 29q85 0 139 70t54 185t-54 185.5t-139 70.5q-90 0 -145 -70t-55 -186t55 -185.5t145 -69.5z" />
    <glyph glyph-name="agrave.ss01" horiz-adv-x="638" 
d="M329 647h-43l-96 163h51zM501 569h37v-569h-37l-8 148v2q-20 -74 -74.5 -118t-124.5 -44q-105 0 -172.5 81.5t-67.5 214.5q0 134 67 215.5t173 81.5q70 0 124.5 -44t74.5 -118v2zM300 29q85 0 139 70t54 185t-54 185.5t-139 70.5q-90 0 -145 -70t-55 -186t55 -185.5
t145 -69.5z" />
    <glyph glyph-name="amacron.ss01" horiz-adv-x="638" 
d="M422 706v-34h-228v34h228zM501 569h37v-569h-37l-8 148v2q-20 -74 -74.5 -118t-124.5 -44q-105 0 -172.5 81.5t-67.5 214.5q0 134 67 215.5t173 81.5q70 0 124.5 -44t74.5 -118v2zM300 29q85 0 139 70t54 185t-54 185.5t-139 70.5q-90 0 -145 -70t-55 -186t55 -185.5
t145 -69.5z" />
    <glyph glyph-name="aogonek.ss01" horiz-adv-x="638" 
d="M538 0q-112 -61 -112 -117q0 -21 12.5 -32t33.5 -11q26 0 52 18l9 -25q-31 -23 -65 -23q-33 0 -53 18.5t-20 50.5q0 34 29.5 66.5t76.5 57.5l-8 145v2q-20 -74 -74.5 -118t-124.5 -44q-105 0 -172.5 81.5t-67.5 214.5q0 134 67 215.5t173 81.5q70 0 124.5 -44t74.5 -118
v2l8 148h37v-569zM300 29q85 0 139 70t54 185t-54 185.5t-139 70.5q-90 0 -145 -70t-55 -186t55 -185.5t145 -69.5z" />
    <glyph glyph-name="aring.ss01" horiz-adv-x="638" 
d="M307 642q-39 0 -64.5 24.5t-25.5 62.5q0 37 25.5 61.5t64.5 24.5t64 -24t25 -62t-25 -62.5t-64 -24.5zM307 788q-26 0 -43 -17t-17 -42t17.5 -42.5t42.5 -17.5t42 17t17 43q0 25 -17 42t-42 17zM501 569h37v-569h-37l-8 148v2q-20 -74 -74.5 -118t-124.5 -44
q-105 0 -172.5 81.5t-67.5 214.5q0 134 67 215.5t173 81.5q70 0 124.5 -44t74.5 -118v2zM300 29q85 0 139 70t54 185t-54 185.5t-139 70.5q-90 0 -145 -70t-55 -186t55 -185.5t145 -69.5z" />
    <glyph glyph-name="atilde.ss01" horiz-adv-x="638" 
d="M247 732q-39 0 -44 -65h-37q2 47 23.5 73.5t57.5 26.5q16 0 31 -7t21 -12.5t20 -19.5q29 -31 48 -31q18 0 30 17t15 48h37q-3 -47 -24 -73.5t-57 -26.5q-16 0 -30.5 6.5t-21.5 13t-18 19.5q-29 31 -51 31zM501 569h37v-569h-37l-8 148v2q-20 -74 -74.5 -118t-124.5 -44
q-105 0 -172.5 81.5t-67.5 214.5q0 134 67 215.5t173 81.5q70 0 124.5 -44t74.5 -118v2zM300 29q85 0 139 70t54 185t-54 185.5t-139 70.5q-90 0 -145 -70t-55 -186t55 -185.5t145 -69.5z" />
    <glyph glyph-name="g.ss02" horiz-adv-x="623" 
d="M487 569h36v-536q0 -100 -64 -161.5t-167 -61.5q-88 0 -156 49t-87 128l41 8q18 -65 74 -105.5t128 -40.5q84 0 135 50.5t51 133.5v161q-17 -73 -70.5 -116t-124.5 -43q-102 0 -167 75t-65 198q0 122 64.5 197.5t167.5 75.5q71 0 125 -44t70 -118zM291 73q82 0 134.5 64
t52.5 169q0 104 -52.5 168.5t-134.5 64.5q-87 0 -140.5 -64t-53.5 -169q0 -106 53.5 -169.5t140.5 -63.5z" />
    <glyph glyph-name="gbreve.ss02" horiz-adv-x="623" 
d="M292 644q-111 0 -113 164h35q0 -134 78 -134q77 0 77 134h35q-2 -164 -112 -164zM487 569h36v-536q0 -100 -64 -161.5t-167 -61.5q-88 0 -156 49t-87 128l41 8q18 -65 74 -105.5t128 -40.5q84 0 135 50.5t51 133.5v161q-17 -73 -70.5 -116t-124.5 -43q-102 0 -167 75
t-65 198q0 122 64.5 197.5t167.5 75.5q71 0 125 -44t70 -118zM291 73q82 0 134.5 64t52.5 169q0 104 -52.5 168.5t-134.5 64.5q-87 0 -140.5 -64t-53.5 -169q0 -106 53.5 -169.5t140.5 -63.5z" />
    <glyph glyph-name="gcircumflex.ss02" horiz-adv-x="623" 
d="M292 780l-79 -135h-38l89 163h56l89 -163h-37zM487 569h36v-536q0 -100 -64 -161.5t-167 -61.5q-88 0 -156 49t-87 128l41 8q18 -65 74 -105.5t128 -40.5q84 0 135 50.5t51 133.5v161q-17 -73 -70.5 -116t-124.5 -43q-102 0 -167 75t-65 198q0 122 64.5 197.5t167.5 75.5
q71 0 125 -44t70 -118zM291 73q82 0 134.5 64t52.5 169q0 104 -52.5 168.5t-134.5 64.5q-87 0 -140.5 -64t-53.5 -169q0 -106 53.5 -169.5t140.5 -63.5z" />
    <glyph glyph-name="uni0123.ss02" horiz-adv-x="623" 
d="M328 757l-16 -129h-47l33 129h30zM487 569h36v-536q0 -100 -64 -161.5t-167 -61.5q-88 0 -156 49t-87 128l41 8q18 -65 74 -105.5t128 -40.5q84 0 135 50.5t51 133.5v161q-17 -73 -70.5 -116t-124.5 -43q-102 0 -167 75t-65 198q0 122 64.5 197.5t167.5 75.5
q71 0 125 -44t70 -118zM291 73q82 0 134.5 64t52.5 169q0 104 -52.5 168.5t-134.5 64.5q-87 0 -140.5 -64t-53.5 -169q0 -106 53.5 -169.5t140.5 -63.5z" />
    <glyph glyph-name="gdotaccent.ss02" horiz-adv-x="623" 
d="M292 685q-17 0 -28 10.5t-11 27.5q0 18 11 28t28 10q18 0 28.5 -10t10.5 -28q0 -17 -11 -27.5t-28 -10.5zM487 569h36v-536q0 -100 -64 -161.5t-167 -61.5q-88 0 -156 49t-87 128l41 8q18 -65 74 -105.5t128 -40.5q84 0 135 50.5t51 133.5v161q-17 -73 -70.5 -116
t-124.5 -43q-102 0 -167 75t-65 198q0 122 64.5 197.5t167.5 75.5q71 0 125 -44t70 -118zM291 73q82 0 134.5 64t52.5 169q0 104 -52.5 168.5t-134.5 64.5q-87 0 -140.5 -64t-53.5 -169q0 -106 53.5 -169.5t140.5 -63.5z" />
    <glyph glyph-name="l.ss03" horiz-adv-x="244" 
d="M191 0q-41 0 -66 25t-25 66v657h45v-653q0 -25 15 -40.5t39 -15.5h44l-8 -39h-44z" />
    <glyph glyph-name="lacute.ss03" horiz-adv-x="244" 
d="M230 989l-96 -163h-43l88 163h51zM191 0q-41 0 -66 25t-25 66v657h45v-653q0 -25 15 -40.5t39 -15.5h44l-8 -39h-44z" />
    <glyph glyph-name="lcaron.ss03" horiz-adv-x="244" 
d="M224 637l19 172h42l-30 -172h-31zM191 0q-41 0 -66 25t-25 66v657h45v-653q0 -25 15 -40.5t39 -15.5h44l-8 -39h-44z" />
    <glyph glyph-name="uni013C.ss03" horiz-adv-x="244" 
d="M191 0q-41 0 -66 25t-25 66v657h45v-653q0 -25 15 -40.5t39 -15.5h44l-8 -39h-44zM123 -190l16 129h47l-33 -129h-30z" />
    <glyph glyph-name="ldot.ss03" horiz-adv-x="325" 
d="M191 0q-41 0 -66 25t-25 66v657h45v-653q0 -25 15 -40.5t39 -15.5h44l-8 -39h-44zM267 348q-17 0 -28 10.5t-11 27.5q0 18 11 28.5t28 10.5q18 0 29 -10.5t11 -28.5q0 -17 -11 -27.5t-29 -10.5z" />
    <glyph glyph-name="lslash.ss03" horiz-adv-x="290" 
d="M210 39h43l-7 -39h-44q-41 0 -66 25t-25 66v264l-76 -28v37l76 28v356h45v-339l80 30v-38l-80 -29v-277q0 -25 15 -40.5t39 -15.5z" />
    <glyph glyph-name="s.ss04" horiz-adv-x="510" 
d="M276 -12q-85 0 -149 53.5t-82 139.5l44 8q16 -74 69 -118.5t118 -44.5q67 0 109 32t42 84q0 40 -20 67t-52.5 40t-71.5 22.5l-78 19t-71.5 24.5t-52.5 44.5t-20 73.5q0 63 53 99.5t140 36.5h188l8 -42h-198q-66 0 -105 -24.5t-39 -69.5q0 -41 27 -65.5t67.5 -33.5
l88 -20.5t88 -25.5t67.5 -50t27 -92q0 -70 -55 -114t-142 -44z" />
    <glyph glyph-name="sacute.ss04" horiz-adv-x="510" 
d="M372 810l-96 -163h-43l88 163h51zM276 -12q-85 0 -149 53.5t-82 139.5l44 8q16 -74 69 -118.5t118 -44.5q67 0 109 32t42 84q0 40 -20 67t-52.5 40t-71.5 22.5l-78 19t-71.5 24.5t-52.5 44.5t-20 73.5q0 63 53 99.5t140 36.5h188l8 -42h-198q-66 0 -105 -24.5t-39 -69.5
q0 -41 27 -65.5t67.5 -33.5l88 -20.5t88 -25.5t67.5 -50t27 -92q0 -70 -55 -114t-142 -44z" />
    <glyph glyph-name="scaron.ss04" horiz-adv-x="510" 
d="M237 647l-89 163h38l79 -134l80 134h37l-89 -163h-56zM108 433q0 -41 27 -65.5t67.5 -33.5l88 -20.5t88 -25.5t67.5 -50t27 -92q0 -70 -55 -114t-142 -44q-85 0 -149 53.5t-82 139.5l44 8q16 -74 69 -118.5t118 -44.5q67 0 109 32t42 84q0 40 -20 67t-52.5 40t-71.5 22.5
l-78 19t-71.5 24.5t-52.5 44.5t-20 73.5q0 63 53 99.5t140 36.5h188l8 -42h-198q-66 0 -105 -24.5t-39 -69.5z" />
    <glyph glyph-name="scedilla.ss04" horiz-adv-x="510" 
d="M473 146q0 -68 -52.5 -112t-136.5 -46l-15 -55q42 3 67.5 -15t25.5 -48q0 -31 -25.5 -49t-65.5 -18q-49 0 -80 29l12 21q29 -24 66 -24q25 0 42.5 11t17.5 29q0 22 -22.5 32.5t-59.5 5.5l-11 15l18 67q-77 7 -135 59.5t-74 132.5l44 8q16 -74 69 -118.5t118 -44.5
q67 0 109 32t42 84q0 40 -20 67t-52.5 40t-71.5 22.5l-78 19t-71.5 24.5t-52.5 44.5t-20 73.5q0 63 53 99.5t140 36.5h188l8 -42h-198q-66 0 -105 -24.5t-39 -69.5q0 -41 27 -65.5t67.5 -33.5l88 -20.5t88 -25.5t67.5 -50t27 -92z" />
    <glyph glyph-name="scircumflex.ss04" horiz-adv-x="510" 
d="M148 647l89 163h56l89 -163h-37l-80 135l-79 -135h-38zM276 -12q-85 0 -149 53.5t-82 139.5l44 8q16 -74 69 -118.5t118 -44.5q67 0 109 32t42 84q0 40 -20 67t-52.5 40t-71.5 22.5l-78 19t-71.5 24.5t-52.5 44.5t-20 73.5q0 63 53 99.5t140 36.5h188l8 -42h-198
q-66 0 -105 -24.5t-39 -69.5q0 -41 27 -65.5t67.5 -33.5l88 -20.5t88 -25.5t67.5 -50t27 -92q0 -70 -55 -114t-142 -44z" />
    <glyph glyph-name="uni0219.ss04" horiz-adv-x="510" 
d="M276 -12q-85 0 -149 53.5t-82 139.5l44 8q16 -74 69 -118.5t118 -44.5q67 0 109 32t42 84q0 40 -20 67t-52.5 40t-71.5 22.5l-78 19t-71.5 24.5t-52.5 44.5t-20 73.5q0 63 53 99.5t140 36.5h188l8 -42h-198q-66 0 -105 -24.5t-39 -69.5q0 -41 27 -65.5t67.5 -33.5
l88 -20.5t88 -25.5t67.5 -50t27 -92q0 -70 -55 -114t-142 -44zM239 -190l16 129h47l-33 -129h-30z" />
    <glyph glyph-name="y.ss05" horiz-adv-x="542" 
d="M470 569h47l-241 -623q-27 -71 -71 -97.5t-132 -26.5h-40l-8 40h46q71 0 106 21.5t57 77.5l19 49l-219 559h48l194 -499z" />
    <glyph glyph-name="yacute.ss05" horiz-adv-x="542" 
d="M381 810l-96 -163h-43l88 163h51zM470 569h47l-241 -623q-27 -71 -71 -97.5t-132 -26.5h-40l-8 40h46q71 0 106 21.5t57 77.5l19 49l-219 559h48l194 -499z" />
    <glyph glyph-name="ycircumflex.ss05" horiz-adv-x="542" 
d="M274 782l-79 -135h-38l89 163h56l89 -163h-37zM470 569h47l-241 -623q-27 -71 -71 -97.5t-132 -26.5h-40l-8 40h46q71 0 106 21.5t57 77.5l19 49l-219 559h48l194 -499z" />
    <glyph glyph-name="ydieresis.ss05" horiz-adv-x="542" 
d="M204 671q-17 0 -28 10t-11 28q0 17 11 27t28 10t27.5 -10t10.5 -27q0 -18 -10.5 -28t-27.5 -10zM346 671q-17 0 -27.5 10t-10.5 28q0 17 10.5 27t27.5 10t28 -10t11 -27q0 -18 -10.5 -28t-28.5 -10zM470 569h47l-241 -623q-27 -71 -71 -97.5t-132 -26.5h-40l-8 40h46
q71 0 106 21.5t57 77.5l19 49l-219 559h48l194 -499z" />
    <glyph glyph-name="ygrave.ss05" horiz-adv-x="542" 
d="M296 647h-43l-96 163h51zM470 569h47l-241 -623q-27 -71 -71 -97.5t-132 -26.5h-40l-8 40h46q71 0 106 21.5t57 77.5l19 49l-219 559h48l194 -499z" />
    <glyph glyph-name="y.ss06" horiz-adv-x="505" 
d="M431 569h51l-285 -569h-51l82 163l-204 406h50l178 -357z" />
    <glyph glyph-name="yacute.ss06" horiz-adv-x="505" 
d="M360 810l-96 -163h-43l88 163h51zM431 569h51l-285 -569h-51l82 163l-204 406h50l178 -357z" />
    <glyph glyph-name="ycircumflex.ss06" horiz-adv-x="505" 
d="M253 782l-79 -135h-38l89 163h56l89 -163h-37zM431 569h51l-285 -569h-51l82 163l-204 406h50l178 -357z" />
    <glyph glyph-name="ydieresis.ss06" horiz-adv-x="505" 
d="M183 671q-17 0 -28 10t-11 28q0 17 11 27t28 10t27.5 -10t10.5 -27q0 -18 -10.5 -28t-27.5 -10zM325 671q-17 0 -27.5 10t-10.5 28q0 17 10.5 27t27.5 10t28 -10t11 -27q0 -18 -10.5 -28t-28.5 -10zM431 569h51l-285 -569h-51l82 163l-204 406h50l178 -357z" />
    <glyph glyph-name="ygrave.ss06" horiz-adv-x="505" 
d="M274 647h-43l-96 163h51zM431 569h51l-285 -569h-51l82 163l-204 406h50l178 -357z" />
    <glyph glyph-name="T_i" horiz-adv-x="725" 
d="M595 748v-42h-260v-706h-48v706h-260v42h568zM623 569v-569h-45v569h45z" />
    <glyph glyph-name="f_f_t" horiz-adv-x="1005" 
d="M896 40h87l-8 -40h-87q-41 0 -66 25t-25 66v437h-292v-528h-45v528h-295v-528h-45v528h-102v41h102v89q0 40 25 65t65 25h96l7 -40h-95q-24 0 -38.5 -14.5t-14.5 -39.5v-85h295v89q0 40 25 65t65 25h97l7 -40h-96q-24 0 -38.5 -15t-14.5 -39v-85h292v159l45 31v-190h133
v-41h-133v-433q0 -25 15 -40t39 -15z" />
    <glyph glyph-name="f_j" horiz-adv-x="602" 
d="M505 569v-665q0 -37 -24 -59.5t-63 -22.5h-33l-8 39h39q20 0 32 13t12 33v621h-295v-528h-45v528h-102v41h102v89q0 40 25 65t65 25h208l7 -39h-207q-24 0 -38.5 -14.5t-14.5 -39.5v-86h340z" />
    <glyph glyph-name="f_t" horiz-adv-x="665" 
d="M556 40h86l-7 -40h-87q-41 0 -66 25t-25 66v437h-292v-528h-45v528h-102v41h102v89q0 40 25 65t65 25h97l7 -40h-96q-24 0 -38.5 -14.5t-14.5 -39.5v-85h292v159l45 31v-190h133v-41h-133v-433q0 -25 15 -40t39 -15z" />
    <glyph glyph-name="t_t" horiz-adv-x="668" 
d="M559 40h87l-8 -40h-87q-41 0 -66 25t-25 66v437h-295v-433q0 -25 14.5 -40.5t39.5 -15.5h78l-7 -39h-79q-41 0 -66 25t-25 66v437h-102v41h102v159l45 31v-190h295v159l45 31v-190h133v-41h-133v-433q0 -25 15 -40t39 -15z" />
    <glyph glyph-name="zero.zero" horiz-adv-x="611" 
d="M305 760q109 0 170 -102.5t61 -284.5q0 -181 -61 -283t-170 -102t-170 102t-61 283q0 182 61 284.5t170 102.5zM305 717q-86 0 -134 -90t-48 -254q0 -121 28 -205l291 454q-48 95 -137 95zM305 32q87 0 135 89t48 252q0 122 -28 206l-292 -453q48 -94 137 -94z" />
    <glyph glyph-name="zero.tf" horiz-adv-x="607" 
d="M303 760q109 0 170 -102.5t61 -284.5q0 -181 -61 -283t-170 -102t-170 102t-61 283q0 182 61 284.5t170 102.5zM303 717q-87 0 -135 -90t-48 -254q0 -163 48 -252.5t135 -89.5t135 89.5t48 252.5q0 164 -48 254t-135 90z" />
    <glyph glyph-name="zero.zero.tf" horiz-adv-x="608" 
d="M303 760q109 0 170 -102.5t61 -284.5q0 -181 -61 -283t-170 -102t-170 102t-61 283q0 182 61 284.5t170 102.5zM303 717q-87 0 -135 -90t-48 -254q0 -122 28 -206l292 455q-48 95 -137 95zM303 32q87 0 135 89t48 252q0 122 -28 206l-292 -453q47 -94 137 -94z" />
    <glyph glyph-name="one.tf" horiz-adv-x="607" 
d="M332 43h204v-43h-462v43h211v573q-14 -28 -40.5 -37t-85.5 -9h-61v43h61q72 0 99 26.5t28 108.5h46v-705z" />
    <glyph glyph-name="two.tf" horiz-adv-x="607" 
d="M312 760q95 0 154 -56t59 -145q0 -57 -20.5 -103.5t-54 -79t-73.5 -61l-80 -55.5t-73 -56.5t-53 -70.5t-20 -91h365v-42h-412v25q0 63 21 113.5t53.5 84t72.5 62.5l79.5 55.5t72.5 55.5t53.5 70.5t20.5 92.5q0 71 -45.5 115t-119.5 44q-71 0 -122 -53.5t-60 -146.5l-46 3
q9 109 73 174t155 65z" />
    <glyph glyph-name="three.tf" horiz-adv-x="607" 
d="M304 -12q-85 0 -146.5 55t-71.5 141l46 5q10 -71 57.5 -114.5t114.5 -43.5q74 0 121 49t47 127q0 73 -53 119t-136 46h-35l-7 43h45q72 0 117.5 43t45.5 113q0 64 -42.5 105t-110.5 41q-66 0 -112.5 -46.5t-55.5 -121.5l-46 4q10 91 70.5 149t144.5 58q89 0 145 -52.5
t56 -134.5q0 -70 -44 -121t-111 -57q77 -6 127.5 -61.5t50.5 -128.5q0 -96 -61 -156.5t-156 -60.5z" />
    <glyph glyph-name="four.tf" horiz-adv-x="607" 
d="M515 197v-42h-93v-155h-48v155h-345v44l262 549h51l-263 -551h295v190l48 12v-202h93z" />
    <glyph glyph-name="five.tf" horiz-adv-x="607" 
d="M506 748l7 -43h-310l-31 -318q24 46 68.5 73.5t94.5 27.5q91 0 145.5 -68t54.5 -182t-56.5 -182t-150.5 -68q-86 0 -143 54t-67 145l45 6q8 -75 53 -118.5t112 -43.5q72 0 115 56.5t43 150.5q0 95 -43 151.5t-116 56.5q-48 0 -90 -29t-65 -77h-50l37 408h347z" />
    <glyph glyph-name="six.tf" horiz-adv-x="607" 
d="M324 470q90 0 149 -69t59 -172t-60 -172t-151 -69q-65 0 -113 28.5t-75 79t-40 113.5t-13 140q-1 181 71 296t189 115q82 0 139.5 -48.5t71.5 -131.5l-47 -10q-11 68 -55.5 107.5t-107.5 39.5q-105 0 -165.5 -121t-47.5 -309q15 91 71 137t125 46zM318 31q72 0 119 56
t47 142q0 85 -47 141t-119 56q-71 0 -119 -55.5t-48 -141.5q0 -90 47 -144t120 -54z" />
    <glyph glyph-name="seven.tf" horiz-adv-x="607" 
d="M538 748v-41q-141 -158 -207 -326.5t-50 -380.5h-49q-26 402 254 706h-413v42h465z" />
    <glyph glyph-name="eight.tf" horiz-adv-x="607" 
d="M303 -12q-98 0 -162.5 58.5t-64.5 148.5q0 71 42.5 122.5t115.5 64.5q-69 14 -108 63.5t-39 117.5q0 86 61 141.5t155 55.5t155.5 -56t61.5 -141q0 -67 -39.5 -117t-107.5 -64q73 -13 115.5 -65t42.5 -122q0 -90 -64.5 -148.5t-163.5 -58.5zM303 405q79 0 124.5 46
t45.5 110q0 66 -48.5 111t-121.5 45q-72 0 -120.5 -45t-48.5 -111q0 -65 45 -110.5t124 -45.5zM303 32q77 0 128 47.5t51 117.5q0 68 -48 116t-131 48t-131 -47.5t-48 -116.5q0 -70 51 -117.5t128 -47.5z" />
    <glyph glyph-name="nine.tf" horiz-adv-x="607" 
d="M527 399q1 -181 -71.5 -296t-189.5 -115q-82 0 -139.5 49t-70.5 131l46 10q12 -68 56 -107.5t108 -39.5q105 0 165.5 121.5t46.5 309.5q-14 -92 -70 -138t-125 -46q-90 0 -149 69t-59 172t60 172t151 69q65 0 112.5 -28.5t75 -79t40.5 -113.5t13 -140zM289 322
q71 0 118.5 55.5t47.5 141.5q0 90 -47 144t-120 54q-71 0 -118 -56.5t-47 -141.5t47 -141t119 -56z" />
    <glyph glyph-name="zero.sinf" horiz-adv-x="370" 
d="M185 306q67 0 104.5 -61.5t37.5 -170.5t-37.5 -170t-104.5 -61t-104.5 61t-37.5 170t37.5 170.5t104.5 61.5zM185 271q-49 0 -76 -51.5t-27 -145.5t27 -145.5t76 -51.5t76 51.5t27 145.5t-27 145.5t-76 51.5z" />
    <glyph glyph-name="one.sinf" horiz-adv-x="225" 
d="M126 299h36v-449h-37v360q-10 -16 -26 -21t-51 -5h-36v33h36q42 0 59.5 15.5t18.5 66.5z" />
    <glyph glyph-name="two.sinf" horiz-adv-x="337" 
d="M171 306q56 0 93.5 -34.5t37.5 -87.5q0 -46 -22.5 -81.5t-55 -58l-64.5 -44t-54.5 -50.5t-22.5 -67h213v-33h-252v18q0 52 22.5 90.5t55 61.5t65 43.5t55 50.5t22.5 70q0 39 -27 64t-66 25q-40 0 -69.5 -31t-33.5 -85l-37 3q5 67 44 106.5t96 39.5z" />
    <glyph glyph-name="three.sinf" horiz-adv-x="340" 
d="M171 -157q-52 0 -90.5 34t-43.5 87l37 5q5 -42 32 -67t65 -25q41 0 67.5 27.5t26.5 70.5q0 41 -29.5 67.5t-76.5 26.5h-21l-5 33h27q41 0 67 24.5t26 62.5q0 37 -24 59.5t-62 22.5q-37 0 -64 -26.5t-31 -68.5l-37 3q5 56 42.5 91.5t89.5 35.5q55 0 89.5 -32t34.5 -82
q0 -41 -25 -71t-64 -34q44 -4 73 -37.5t29 -75.5q0 -58 -37.5 -94.5t-95.5 -36.5z" />
    <glyph glyph-name="four.sinf" horiz-adv-x="331" 
d="M315 -24v-34h-55v-92h-38v92h-204v35l151 322h41l-152 -323h164v111l38 8v-119h55z" />
    <glyph glyph-name="five.sinf" horiz-adv-x="342" 
d="M292 299l4 -33h-184l-18 -178q14 26 40 41.5t54 15.5q55 0 88 -41.5t33 -109.5q0 -69 -35 -110.5t-93 -41.5q-52 0 -87 32.5t-42 90.5l36 5q4 -43 29.5 -68t63.5 -25q41 0 65 32t24 85t-24.5 85t-65.5 32q-27 0 -50.5 -16t-35.5 -43l-39 -1l22 248h215z" />
    <glyph glyph-name="six.sinf" horiz-adv-x="361" 
d="M195 129q55 0 90.5 -40.5t35.5 -102.5t-37 -102.5t-92 -40.5q-77 0 -113 60t-36 156q-1 109 43 178t116 69q51 0 86.5 -30t44.5 -81l-37 -7q-7 39 -32 61t-62 22q-60 0 -94 -67.5t-26 -172.5q10 48 42 73t71 25zM189 -123q41 0 67.5 31.5t26.5 79.5t-26.5 79.5
t-67.5 31.5q-40 0 -67 -31t-27 -79q0 -51 26.5 -81.5t67.5 -30.5z" />
    <glyph glyph-name="seven.sinf" horiz-adv-x="308" 
d="M294 299v-33q-84 -93 -122 -190t-28 -226h-38q-17 239 147 416h-241v33h282z" />
    <glyph glyph-name="eight.sinf" horiz-adv-x="351" 
d="M175 -157q-59 0 -98.5 35.5t-39.5 89.5q0 41 24.5 71.5t65.5 39.5q-38 8 -61 37.5t-23 69.5q0 52 37.5 86t94.5 34q56 0 94 -34t38 -86q0 -39 -23 -68.5t-62 -38.5q43 -9 67.5 -39.5t24.5 -71.5q0 -54 -40 -89.5t-99 -35.5zM175 97q44 0 69.5 25.5t25.5 61.5
q0 37 -27.5 62t-67.5 25t-67 -25t-27 -62q0 -36 25 -61.5t69 -25.5zM175 -123q43 0 71.5 27t28.5 66q0 38 -27 65t-73 27q-47 0 -73 -26.5t-26 -65.5t28.5 -66t70.5 -27z" />
    <glyph glyph-name="nine.sinf" horiz-adv-x="361" 
d="M318 90q1 -109 -43 -178t-116 -69q-51 0 -86.5 30t-44.5 81l37 7q7 -39 32 -61t62 -22q60 0 94 67.5t26 172.5q-10 -48 -42 -73t-71 -25q-55 0 -90.5 40.5t-35.5 102.5t37 102.5t92 40.5q77 0 113 -60t36 -156zM172 50q40 0 67 31t27 79q0 51 -26.5 81.5t-67.5 30.5
t-67.5 -31.5t-26.5 -79.5t26.5 -79.5t67.5 -31.5z" />
    <glyph glyph-name="zero.dnom" horiz-adv-x="370" 
d="M185 456q67 0 104.5 -61.5t37.5 -170.5t-37.5 -170t-104.5 -61t-104.5 61t-37.5 170t37.5 170.5t104.5 61.5zM185 421q-49 0 -76 -51.5t-27 -145.5t27 -145.5t76 -51.5t76 51.5t27 145.5t-27 145.5t-76 51.5z" />
    <glyph glyph-name="one.dnom" horiz-adv-x="225" 
d="M126 449h36v-449h-37v360q-10 -16 -26 -21t-51 -5h-36v33h36q42 0 59.5 15.5t18.5 66.5z" />
    <glyph glyph-name="two.dnom" horiz-adv-x="337" 
d="M171 456q56 0 93.5 -34.5t37.5 -87.5q0 -46 -22.5 -81.5t-55 -58l-64.5 -44t-54.5 -50.5t-22.5 -67h213v-33h-252v18q0 52 22.5 90.5t55 61.5t65 43.5t55 50.5t22.5 70q0 39 -27 64t-66 25q-40 0 -69.5 -31t-33.5 -85l-37 3q5 67 44 106.5t96 39.5z" />
    <glyph glyph-name="three.dnom" horiz-adv-x="340" 
d="M171 -7q-52 0 -90.5 34t-43.5 87l37 5q5 -42 32 -67t65 -25q41 0 67.5 27.5t26.5 70.5q0 41 -29.5 67.5t-76.5 26.5h-21l-5 33h27q41 0 67 24.5t26 62.5q0 37 -24 59.5t-62 22.5q-37 0 -64 -26.5t-31 -68.5l-37 3q5 56 42.5 91.5t89.5 35.5q55 0 89.5 -32t34.5 -82
q0 -41 -25 -71t-64 -34q44 -4 73 -37.5t29 -75.5q0 -58 -37.5 -94.5t-95.5 -36.5z" />
    <glyph glyph-name="four.dnom" horiz-adv-x="331" 
d="M315 126v-34h-55v-92h-38v92h-204v35l151 322h41l-152 -323h164v111l38 8v-119h55z" />
    <glyph glyph-name="five.dnom" horiz-adv-x="342" 
d="M292 449l4 -33h-184l-18 -178q14 26 40 41.5t54 15.5q55 0 88 -41.5t33 -109.5q0 -69 -35 -110.5t-93 -41.5q-52 0 -87 32.5t-42 90.5l36 5q4 -43 29.5 -68t63.5 -25q41 0 65 32t24 85t-24.5 85t-65.5 32q-27 0 -50.5 -16t-35.5 -43l-39 -1l22 248h215z" />
    <glyph glyph-name="six.dnom" horiz-adv-x="361" 
d="M195 279q55 0 90.5 -40.5t35.5 -102.5t-37 -102.5t-92 -40.5q-77 0 -113 60t-36 156q-1 109 43 178t116 69q51 0 86.5 -30t44.5 -81l-37 -7q-7 39 -32 61t-62 22q-60 0 -94 -67.5t-26 -172.5q10 48 42 73t71 25zM189 27q41 0 67.5 31.5t26.5 79.5t-26.5 79.5t-67.5 31.5
q-40 0 -67 -31t-27 -79q0 -51 26.5 -81.5t67.5 -30.5z" />
    <glyph glyph-name="seven.dnom" horiz-adv-x="308" 
d="M294 449v-33q-84 -93 -122 -190t-28 -226h-38q-17 239 147 416h-241v33h282z" />
    <glyph glyph-name="eight.dnom" horiz-adv-x="351" 
d="M175 -7q-59 0 -98.5 35.5t-39.5 89.5q0 41 24.5 71.5t65.5 39.5q-38 8 -61 37.5t-23 69.5q0 52 37.5 86t94.5 34q56 0 94 -34t38 -86q0 -39 -23 -68.5t-62 -38.5q43 -9 67.5 -39.5t24.5 -71.5q0 -54 -40 -89.5t-99 -35.5zM175 247q44 0 69.5 25.5t25.5 61.5
q0 37 -27.5 62t-67.5 25t-67 -25t-27 -62q0 -36 25 -61.5t69 -25.5zM175 27q43 0 71.5 27t28.5 66q0 38 -27 65t-73 27q-47 0 -73 -26.5t-26 -65.5t28.5 -66t70.5 -27z" />
    <glyph glyph-name="nine.dnom" horiz-adv-x="361" 
d="M318 240q1 -109 -43 -178t-116 -69q-51 0 -86.5 30t-44.5 81l37 7q7 -39 32 -61t62 -22q60 0 94 67.5t26 172.5q-10 -48 -42 -73t-71 -25q-55 0 -90.5 40.5t-35.5 102.5t37 102.5t92 40.5q77 0 113 -60t36 -156zM172 200q40 0 67 31t27 79q0 51 -26.5 81.5t-67.5 30.5
t-67.5 -31.5t-26.5 -79.5t26.5 -79.5t67.5 -31.5z" />
    <glyph glyph-name="zero.numr" horiz-adv-x="370" 
d="M185 755q67 0 104.5 -61.5t37.5 -170.5t-37.5 -170t-104.5 -61t-104.5 61t-37.5 170t37.5 170.5t104.5 61.5zM185 720q-49 0 -76 -51.5t-27 -145.5t27 -145.5t76 -51.5t76 51.5t27 145.5t-27 145.5t-76 51.5z" />
    <glyph glyph-name="one.numr" horiz-adv-x="225" 
d="M126 748h36v-449h-37v360q-10 -16 -26 -21t-51 -5h-36v33h36q42 0 59.5 15.5t18.5 66.5z" />
    <glyph glyph-name="two.numr" horiz-adv-x="337" 
d="M171 755q56 0 93.5 -34.5t37.5 -87.5q0 -46 -22.5 -81.5t-55 -58l-64.5 -44t-54.5 -50.5t-22.5 -67h213v-33h-252v18q0 52 22.5 90.5t55 61.5t65 43.5t55 50.5t22.5 70q0 39 -27 64t-66 25q-40 0 -69.5 -31t-33.5 -85l-37 3q5 67 44 106.5t96 39.5z" />
    <glyph glyph-name="three.numr" horiz-adv-x="340" 
d="M171 292q-52 0 -90.5 34t-43.5 87l37 5q5 -42 32 -67t65 -25q41 0 67.5 27.5t26.5 70.5q0 41 -29.5 67.5t-76.5 26.5h-21l-5 33h27q41 0 67 24.5t26 62.5q0 37 -24 59.5t-62 22.5q-37 0 -64 -26.5t-31 -68.5l-37 3q5 56 42.5 91.5t89.5 35.5q55 0 89.5 -32t34.5 -82
q0 -41 -25 -71t-64 -34q44 -4 73 -37.5t29 -75.5q0 -58 -37.5 -94.5t-95.5 -36.5z" />
    <glyph glyph-name="four.numr" horiz-adv-x="331" 
d="M315 425v-34h-55v-92h-38v92h-204v35l151 322h41l-152 -323h164v111l38 8v-119h55z" />
    <glyph glyph-name="five.numr" horiz-adv-x="342" 
d="M292 748l4 -33h-184l-18 -178q14 26 40 41.5t54 15.5q55 0 88 -41.5t33 -109.5q0 -69 -35 -110.5t-93 -41.5q-52 0 -87 32.5t-42 90.5l36 5q4 -43 29.5 -68t63.5 -25q41 0 65 32t24 85t-24.5 85t-65.5 32q-27 0 -50.5 -16t-35.5 -43l-39 -1l22 248h215z" />
    <glyph glyph-name="six.numr" horiz-adv-x="361" 
d="M195 578q55 0 90.5 -40.5t35.5 -102.5t-37 -102.5t-92 -40.5q-77 0 -113 60t-36 156q-1 109 43 178t116 69q51 0 86.5 -30t44.5 -81l-37 -7q-7 39 -32 61t-62 22q-60 0 -94 -67.5t-26 -172.5q10 48 42 73t71 25zM189 326q41 0 67.5 31.5t26.5 79.5t-26.5 79.5t-67.5 31.5
q-40 0 -67 -31t-27 -79q0 -51 26.5 -81.5t67.5 -30.5z" />
    <glyph glyph-name="seven.numr" horiz-adv-x="308" 
d="M294 748v-33q-84 -93 -122 -190t-28 -226h-38q-17 239 147 416h-241v33h282z" />
    <glyph glyph-name="eight.numr" horiz-adv-x="351" 
d="M175 292q-59 0 -98.5 35.5t-39.5 89.5q0 41 24.5 71.5t65.5 39.5q-38 8 -61 37.5t-23 69.5q0 52 37.5 86t94.5 34q56 0 94 -34t38 -86q0 -39 -23 -68.5t-62 -38.5q43 -9 67.5 -39.5t24.5 -71.5q0 -54 -40 -89.5t-99 -35.5zM175 546q44 0 69.5 25.5t25.5 61.5
q0 37 -27.5 62t-67.5 25t-67 -25t-27 -62q0 -36 25 -61.5t69 -25.5zM175 326q43 0 71.5 27t28.5 66q0 38 -27 65t-73 27q-47 0 -73 -26.5t-26 -65.5t28.5 -66t70.5 -27z" />
    <glyph glyph-name="nine.numr" horiz-adv-x="361" 
d="M318 539q1 -109 -43 -178t-116 -69q-51 0 -86.5 30t-44.5 81l37 7q7 -39 32 -61t62 -22q60 0 94 67.5t26 172.5q-10 -48 -42 -73t-71 -25q-55 0 -90.5 40.5t-35.5 102.5t37 102.5t92 40.5q77 0 113 -60t36 -156zM172 499q40 0 67 31t27 79q0 51 -26.5 81.5t-67.5 30.5
t-67.5 -31.5t-26.5 -79.5t26.5 -79.5t67.5 -31.5z" />
    <glyph glyph-name="zero.sups" horiz-adv-x="370" 
d="M185 855q67 0 104.5 -61.5t37.5 -170.5t-37.5 -170t-104.5 -61t-104.5 61t-37.5 170t37.5 170.5t104.5 61.5zM185 820q-49 0 -76 -51.5t-27 -145.5t27 -145.5t76 -51.5t76 51.5t27 145.5t-27 145.5t-76 51.5z" />
    <glyph glyph-name="one.sups" horiz-adv-x="225" 
d="M126 848h36v-449h-37v360q-10 -16 -26 -21t-51 -5h-36v33h36q42 0 59.5 15.5t18.5 66.5z" />
    <glyph glyph-name="two.sups" horiz-adv-x="337" 
d="M171 855q56 0 93.5 -34.5t37.5 -87.5q0 -46 -22.5 -81.5t-55 -58l-64.5 -44t-54.5 -50.5t-22.5 -67h213v-33h-252v18q0 52 22.5 90.5t55 61.5t65 43.5t55 50.5t22.5 70q0 39 -27 64t-66 25q-40 0 -69.5 -31t-33.5 -85l-37 3q5 67 44 106.5t96 39.5z" />
    <glyph glyph-name="three.sups" horiz-adv-x="340" 
d="M171 392q-52 0 -90.5 34t-43.5 87l37 5q5 -42 32 -67t65 -25q41 0 67.5 27.5t26.5 70.5q0 41 -29.5 67.5t-76.5 26.5h-21l-5 33h27q41 0 67 24.5t26 62.5q0 37 -24 59.5t-62 22.5q-37 0 -64 -26.5t-31 -68.5l-37 3q5 56 42.5 91.5t89.5 35.5q55 0 89.5 -32t34.5 -82
q0 -41 -25 -71t-64 -34q44 -4 73 -37.5t29 -75.5q0 -58 -37.5 -94.5t-95.5 -36.5z" />
    <glyph glyph-name="four.sups" horiz-adv-x="331" 
d="M315 525v-34h-55v-92h-38v92h-204v35l151 322h41l-152 -323h164v111l38 8v-119h55z" />
    <glyph glyph-name="five.sups" horiz-adv-x="342" 
d="M292 848l4 -33h-184l-18 -178q14 26 40 41.5t54 15.5q55 0 88 -41.5t33 -109.5q0 -69 -35 -110.5t-93 -41.5q-52 0 -87 32.5t-42 90.5l36 5q4 -43 29.5 -68t63.5 -25q41 0 65 32t24 85t-24.5 85t-65.5 32q-27 0 -50.5 -16t-35.5 -43l-39 -1l22 248h215z" />
    <glyph glyph-name="six.sups" horiz-adv-x="361" 
d="M195 678q55 0 90.5 -40.5t35.5 -102.5t-37 -102.5t-92 -40.5q-77 0 -113 60t-36 156q-1 109 43 178t116 69q51 0 86.5 -30t44.5 -81l-37 -7q-7 39 -32 61t-62 22q-60 0 -94 -67.5t-26 -172.5q10 48 42 73t71 25zM189 426q41 0 67.5 31.5t26.5 79.5t-26.5 79.5t-67.5 31.5
q-40 0 -67 -31t-27 -79q0 -51 26.5 -81.5t67.5 -30.5z" />
    <glyph glyph-name="seven.sups" horiz-adv-x="308" 
d="M294 848v-33q-84 -93 -122 -190t-28 -226h-38q-17 239 147 416h-241v33h282z" />
    <glyph glyph-name="eight.sups" horiz-adv-x="351" 
d="M175 392q-59 0 -98.5 35.5t-39.5 89.5q0 41 24.5 71.5t65.5 39.5q-38 8 -61 37.5t-23 69.5q0 52 37.5 86t94.5 34q56 0 94 -34t38 -86q0 -39 -23 -68.5t-62 -38.5q43 -9 67.5 -39.5t24.5 -71.5q0 -54 -40 -89.5t-99 -35.5zM175 646q44 0 69.5 25.5t25.5 61.5
q0 37 -27.5 62t-67.5 25t-67 -25t-27 -62q0 -36 25 -61.5t69 -25.5zM175 426q43 0 71.5 27t28.5 66q0 38 -27 65t-73 27q-47 0 -73 -26.5t-26 -65.5t28.5 -66t70.5 -27z" />
    <glyph glyph-name="nine.sups" horiz-adv-x="361" 
d="M318 639q1 -109 -43 -178t-116 -69q-51 0 -86.5 30t-44.5 81l37 7q7 -39 32 -61t62 -22q60 0 94 67.5t26 172.5q-10 -48 -42 -73t-71 -25q-55 0 -90.5 40.5t-35.5 102.5t37 102.5t92 40.5q77 0 113 -60t36 -156zM172 599q40 0 67 31t27 79q0 51 -26.5 81.5t-67.5 30.5
t-67.5 -31.5t-26.5 -79.5t26.5 -79.5t67.5 -31.5z" />
    <glyph glyph-name="question.alt" horiz-adv-x="481" 
d="M200 184q-3 50 11 89.5t37 63.5t50.5 49.5l51.5 47.5t40 57.5t16 78.5q0 64 -46 106.5t-116 42.5q-73 0 -125 -52.5t-61 -144.5l-44 3q9 108 73 171.5t157 63.5q90 0 149 -54t59 -136q0 -42 -12.5 -76t-32 -57.5t-43 -45l-46.5 -41.5t-41 -42.5t-27.5 -54t-6.5 -69.5h-43
zM251 72v-72h-61v72h61z" />
    <glyph glyph-name="parenleft.case" horiz-adv-x="295" 
d="M257 -90q-193 180 -193 454q0 275 193 455l30 -23q-181 -168 -181 -432q0 -263 181 -431z" />
    <glyph glyph-name="parenright.case" horiz-adv-x="297" 
d="M95 819q192 -179 192 -454q0 -276 -192 -455l-31 23q181 167 181 432q0 264 -181 431z" />
    <glyph glyph-name="braceleft.case" horiz-adv-x="309" 
d="M272 -89q-63 0 -97.5 35t-34.5 99v172q0 63 -22.5 98t-63.5 38v37q42 3 64 38t22 98v172q0 64 34.5 99t97.5 35h38v-37h-38q-43 0 -66.5 -25t-23.5 -72v-174q0 -122 -77 -152q77 -30 77 -153v-174q0 -47 23.5 -72.5t66.5 -25.5h38v-36h-38z" />
    <glyph glyph-name="braceright.case" horiz-adv-x="320" 
d="M48 832q63 0 97 -35t34 -100v-172q0 -63 22.5 -98t63.5 -38v-37q-41 -3 -63.5 -38t-22.5 -97v-173q0 -64 -34 -98.5t-97 -34.5h-38v36h37q44 0 67.5 25.5t23.5 71.5v174q0 122 77 152q-77 30 -77 153v174q0 47 -23.5 72.5t-67.5 25.5h-37v37h38z" />
    <glyph glyph-name="bracketleft.case" horiz-adv-x="312" 
d="M311 795h-157v-848h157v-36h-201v921h201v-37z" />
    <glyph glyph-name="bracketright.case" horiz-adv-x="321" 
d="M211 832v-921h-201v36h158v848h-158v37h201z" />
    <glyph glyph-name="space.tab" horiz-adv-x="600" 
 />
    <glyph glyph-name="at.case" horiz-adv-x="929" 
d="M464 -65q-171 0 -285.5 114.5t-114.5 285.5t114.5 285.5t285.5 114.5q166 0 283.5 -108t117.5 -261q0 -108 -44.5 -177t-110.5 -69q-48 0 -79 38t-33 96q-10 -61 -53 -97.5t-97 -36.5q-78 0 -127.5 60t-49.5 158t49 158.5t127 60.5q53 0 94.5 -36t51.5 -95v121h36v-269
q0 -56 22.5 -90t59.5 -34q51 0 85.5 59.5t34.5 152.5q0 139 -107.5 237.5t-259.5 98.5q-157 0 -261.5 -105t-104.5 -262t104.5 -262t261.5 -105q43 0 100.5 17t93.5 45l17 -29q-39 -30 -101 -48t-110 -18zM453 154q61 0 100 51t39 133q0 83 -39.5 134t-99.5 51
q-63 0 -103 -51t-40 -134t40 -133.5t103 -50.5z" />
    <glyph glyph-name="ampersand.ss10" horiz-adv-x="648" 
d="M461 398q146 -55 146 -208q0 -86 -68.5 -144t-169.5 -58q-118 0 -215 89l-76 -77h-65l109 111q-74 88 -99 208l47 8q22 -108 84 -184l72 73q108 108 154 160l-63 14q-98 22 -147 68t-49 123q0 78 59 128.5t151 50.5q91 0 149.5 -50.5t58.5 -129.5q0 -46 -17.5 -87.5
t-60.5 -94.5zM410 413q2 0 2 -1q44 52 62 90.5t18 77.5q0 60 -46 99.5t-116 39.5t-116 -39.5t-46 -98.5t40 -95t123 -56zM367 31q80 0 136 47t56 113q0 128 -128 171q-40 -45 -152 -159l-94 -95q82 -77 182 -77z" />
    <glyph glyph-name="at.ss11" horiz-adv-x="906" 
d="M453 -109q-166 0 -277.5 102t-111.5 260q0 159 96 258t248 99q93 0 150.5 -47.5t57.5 -124.5v-323h-28l-6 119q-15 -63 -58 -96.5t-96 -33.5q-67 0 -109.5 41t-42.5 105q0 82 58 125.5t163 43.5h85v21q0 62 -48.5 101.5t-125.5 39.5q-139 0 -225.5 -91t-86.5 -237
q0 -145 102.5 -239t254.5 -94q154 0 255 95.5t101 242.5q0 65 -18 134t-52 110l25 16q38 -45 57.5 -117t19.5 -143q0 -159 -110.5 -263t-277.5 -104zM435 135q67 0 107 54.5t40 147.5v57h-83q-91 0 -140 -36t-49 -105q0 -52 35.5 -85t89.5 -33z" />
    <glyph glyph-name="at.case.ss11" horiz-adv-x="906" 
d="M453 3q-166 0 -277.5 102.5t-111.5 260.5q0 159 96 258t248 99q93 0 150.5 -48t57.5 -125v-322h-28l-6 119q-15 -63 -58 -96.5t-96 -33.5q-67 0 -109.5 41t-42.5 105q0 82 58 125.5t163 43.5h85v20q0 63 -48.5 102.5t-125.5 39.5q-139 0 -225.5 -91t-86.5 -237
q0 -145 102.5 -239t254.5 -94q154 0 255 95.5t101 242.5q0 65 -18 133.5t-52 110.5l25 16q38 -45 57.5 -117t19.5 -143q0 -159 -110.5 -263.5t-277.5 -104.5zM435 248q67 0 107 54.5t40 147.5v56h-83q-91 0 -140 -35.5t-49 -104.5q0 -52 35.5 -85t89.5 -33z" />
    </font>
</defs>
</svg>
